<?xml version="1.0" encoding="utf-8"?>
<!-- Generator: Adobe Illustrator 21.1.0, SVG Export Plug-In . SVG Version: 6.00 Build 0)  -->
<svg version="1.1" id="Слой_1" xmlns="http://www.w3.org/2000/svg" xmlns:xlink="http://www.w3.org/1999/xlink" x="0px" y="0px"
	 viewBox="0 0 1920 2030" style="enable-background:new 0 0 1920 2030;" xml:space="preserve">
<style type="text/css">
	.st0{fill:#FFFFFF;}
	.st1{fill:url(#SVGID_1_);}
	.st2{opacity:0.3;fill:#F5F5F5;}
	.st3{opacity:0.3;fill:#FAFAFA;}
	.st4{opacity:0.3;fill:#F8F8F8;}
	.st5{opacity:0.3;fill:#F7F7F7;}
	.st6{opacity:0.3;fill:#DADADA;}
	.st7{opacity:0.3;fill:#CDCDCD;}
	.st8{opacity:0.3;fill:#EDEDED;}
	.st9{opacity:0.3;fill:#D4D4D4;}
	.st10{opacity:0.3;fill:#F3F3F3;}
	.st11{opacity:0.3;fill:#E0E0E0;}
	.st12{opacity:0.3;fill:#E3E3E3;}
	.st13{opacity:0.3;fill:#EEEEEE;}
	.st14{opacity:0.3;fill:#F6F6F6;}
	.st15{opacity:0.3;fill:#E5E5E5;}
	.st16{opacity:0.3;fill:#DFDFDF;}
	.st17{opacity:0.3;fill:#F4F4F4;}
	.st18{opacity:0.3;fill:#FEFEFE;}
	.st19{opacity:0.3;fill:#E6E6E6;}
	.st20{opacity:0.3;fill:#E8E8E8;}
	.st21{fill:#FEFEFE;}
	.st22{opacity:0.3;fill:#D8D8D8;}
	.st23{opacity:0.3;fill:#F9F9F9;}
	.st24{opacity:0.3;fill:#E4E4E4;}
	.st25{opacity:0.3;fill:#D6D6D6;}
	.st26{opacity:0.3;fill:#C9C9C9;}
	.st27{opacity:0.3;fill:#FDFDFD;}
	.st28{opacity:0.3;fill:#CACACA;}
	.st29{opacity:0.3;fill:#D3D3D3;}
	.st30{opacity:0.3;fill:#CBCBCB;}
	.st31{opacity:0.3;fill:#D5D5D5;}
	.st32{opacity:0.3;fill:#FCFCFC;}
	.st33{opacity:0.3;fill:#D7D7D7;}
	.st34{opacity:0.3;fill:#D2D2D2;}
	.st35{opacity:0.3;fill:#E7E7E7;}
	.st36{opacity:0.3;fill:#E1E1E1;}
	.st37{opacity:0.3;fill:#CFCFCF;}
	.st38{opacity:0.3;fill:#DCDCDC;}
	.st39{opacity:0.3;fill:#ECECEC;}
	.st40{opacity:0.3;fill:#CECECE;}
	.st41{opacity:0.3;fill:#D1D1D1;}
	.st42{opacity:0.3;fill:#DDDDDD;}
	.st43{opacity:0.3;fill:#DEDEDE;}
	.st44{opacity:0.3;fill:#D0D0D0;}
	.st45{opacity:0.3;fill:#D9D9D9;}
	.st46{opacity:0.3;fill:#DBDBDB;}
	.st47{opacity:0.3;fill:#CCCCCC;}
</style>
<path class="st0" d="M1247,346c-3.2-10.8-10.2-17.8-21-21c7,0,14,0,21,0C1247,332,1247,339,1247,346z"/>
<path class="st0" d="M756,325c-10.7,3.3-17.7,10.3-21,21c0-7,0-14,0-21C742,325,749,325,756,325z"/>
<linearGradient id="SVGID_1_" gradientUnits="userSpaceOnUse" x1="964.25" y1="923.2" x2="964.25" y2="-992.7568" gradientTransform="matrix(1 0 0 -1 0 1080)">
	<stop  offset="0" style="stop-color:#FFFFFF"/>
	<stop  offset="0.1612" style="stop-color:#F3F6FB"/>
	<stop  offset="0.8498" style="stop-color:#EEF2F9"/>
	<stop  offset="1" style="stop-color:#FEFEFF"/>
</linearGradient>
<rect y="156.8" class="st1" width="1928.5" height="1873.2"/>
<g>
	<path class="st2" d="M0,1531.5c0-86.1,0-172.2,0-258.3c6.2,0.3,12.3,0.8,18.5,0.9c14.7,0.2,29.3,0,44,0.2
		c12.8,0.2,25.5,0.7,38.3,0.9c9.5,0.1,19-0.1,28.6,0c3.8,0,4.8-2.1,5.2-5.3c0.3-2.3,1.4-4.4,2.1-6.6c-2.4,8.6,0.4,12.2,9.3,11.9
		c9.4-0.4,18.9-0.2,28.3,0c9.6,0.2,19.3,0.5,28.9,1.1c1.7,0.1,3.2,1.9,4.9,2.9c-1.2,2.8-1.8,6-3.6,8.2c-1.7,2.1-4.9,4.7-7.1,4.4
		c-6.1-0.8-8.4,2.5-10.5,7.1c-6,13.3-12.1,26.4-18,39.7c-1.6,3.6-3,4.9-7.1,3.3c-2.6-1-5.9-0.9-8.7-0.3c-3.9,0.8-7.5,2.8-11.4,3.8
		c-2.2,0.6-4.7,1-6.8,0.5c-10.9-2.8-10.9-2.9-16.2,6.9c-1.6,2.9-3.2,5.9-4.8,8.8c-0.4,0.9-0.5,1.9-0.9,3.5c1.2-0.6,1.8-0.6,2-1
		c2.1-3.8,4.4-7.5,6.3-11.4c3.6-7.4,4.5-8.1,11.8-5c4.2,1.8,7.6,1.2,11.4-0.6c3.3-1.6,6.8-2.9,10.3-3.9c1.6-0.5,3.7-0.3,5.4,0.2
		c18.4,5.9,36.8,12,55.2,18.1c4.3,1.4,8.6,2.7,13,4c-1.3-1.9-3-2.9-4.9-3.4c-16.1-5.1-32.2-10.2-48.3-15.3c-2.9-0.9-6.9-1.3-4.8-6.1
		c6.1-13.4,12.3-26.7,18.4-40.1c1.6-3.4,4.1-5.1,7.9-5.2c5.3-0.3,9.1-2.8,11-7.9c0.7-2,1.6-4,2.4-6.1c3.1-4.1,7.2-4.7,12-4.2
		c10.5,1,21,1.4,31.5,2.2c20.9,1.8,41.9,3.6,62.8,5.7c8.6,0.9,17.1,2.6,25.7,3.4c2.8,0.2,5.8-1.4,8.7-2.1c0.6,1.2,1.2,2.4,2.1,4.1
		c-1.9,0-2.9,0-3.1,0c0.8,2.4,2.2,4.8,2.1,7.1c-0.1,2-2.3,3.7-2.8,5.8c-0.5,1.8,0,3.8,0.1,5.7c2.1-0.1,4.5,0.4,6.4-0.4
		c3.8-1.7,7.2-4.1,10.8-6.1c1.4-0.8,3-1.3,5.2-2.2c-4.4-3.8-11.7-2.8-11.7-9.9c9.7,1.4,19.3,2.7,29,4.3c8.8,1.4,17.6,3.1,26.4,4.7
		c16.8,15,33.5,30.3,52.8,42.1c2.4,1.4,5.1,2.9,7.7,3.2c13.6,1.2,27.3,1.9,41,2.9c6.2,0.5,6.1,0.6,5.4,7.1c-0.4,3.3,0,6.7,0,10.1
		c0.9,0,1.8,0,2.6-0.1c0-8.7,0-17.4,0-26.1c0.7-8.7,1.3-17.4,2-26.1c5-3.7,3-8.5,2-13.1c0-1,0-2,0-3c3.2-1.2,6.4-3.6,9.5-3.4
		c14.4,1,28.8,2.7,43.1,4.2c7.3,0.7,10.7-3.4,8.6-10.6c-0.2-0.7,0-1.5,0-3.3c4.1,2.3,3.6,5.3,3,8c-0.9,4.1,0.5,6,4.6,6.3
		c7.3,0.6,14.6,1.5,21.9,2.2c4.6,0.4,9.1,0.8,14.6,1.3c-2.8,4.5-5.4,8-7.3,11.8c-1.3,2.6-2.3,5.5-2.3,8.3c0,3.8,1.1,7.6,1.8,11.4
		c0.9,10.6,1.8,21.1,2.7,31.7c0.8-0.1,1.6-0.2,2.5-0.2c-1.4-10.2-2.8-20.3-4.2-30.5c0.7-5,1.3-10.1,2-15.1
		c7-10.4,14.1-20.8,21.1-31.2c3.2,2.2,5.7,6.2,11.9,4c-3.7-3-6.8-5.5-9.9-8.1c4.6-4.3,10.3-4.2,16-3.8c12.5,0.7,25,1.4,37.5,1.8
		c2,0.1,4.1-1.3,6.2-2c-1-2.5-1.9-5.1-3.2-7.5c-0.9-1.6-2.7-2.8-3.9-4.3c-3.9-4.9-7.3-10.2-11.6-14.7c-1.6-1.7-5.1-1.4-7.8-2
		c-2.3-0.5-4.6-0.9-6.9-1.3c0.1-0.5,0.2-0.9,0.4-1.4c1.9,0.4,4,1.3,5.8,1c6.9-1.3,10.8,2.7,14.9,7.2c4.7,5.2,9.9,9.9,14.7,15
		c1.7,1.8,3.6,3.9,4.2,6.2c0.9,3.3,2.5,4.9,5.9,4.9c5.2,0.1,10.3,0.2,15.5,0.5c17,0.8,33.9,1.9,50.9,2.5c27.5,0.9,55.1,1.4,82.6,2.1
		c9.2,0.2,18.3,0.1,27.5,0.4c12.5,0.4,25,0.9,37.6,1.4c14.8,0.5,29.7,0.6,44.5,1.7c3.4,0.3,7.5,3.3,9.6,6.3
		c8.6,11.7,16.4,24,24.7,36c1.7,2.4,4,4.4,6,6.6c-7.4,5.4-14.7,10.7-22.1,16.1c-4,2.5-7.9,4.9-11.9,7.4
		c-10.5,6.8-20.4,14.8-31.7,20.1c-21.8,10.3-44.2,19.1-66.5,28.2c-10.2,4.2-20.5,8.2-31.2,11c-11.1,2.9-22.7,4.2-34,6
		c-34.8,5.5-69.7,11.1-104.6,16.4c-7.7,1.2-16,2.6-23.4,1.1c-19.8-4.2-39.3-9.6-58.8-15.3c-6.2-1.8-11.8-2.7-18.1-1.3
		c-3.5,0.7-7.8,1.3-10.8-0.1c-6.1-2.8-12.2-3.2-18.5-3.3c-2.8,0-5.7-0.7-8.3-1.7c-1.8-0.7-3.2-2.4-4.9-3.8c-0.6,0.2-2.1,0.7-3.6,1.2
		c-3.7,1.2-7.7,1.8-10.8,3.9c-4,2.6-6.6,7.8-10.7,9.5c-10.6,4.4-21.8,7.6-32.7,11.3c0-4,0-8,0.2-12.1c0.9-20.7,1.9-41.4,2.8-62.1
		c0.1-1.3-0.3-2.5-0.5-3.8c-1.2,1.5-1.4,2.8-1.4,4.1c-0.4,7.8-1,15.7-1.3,23.5c-0.6,15.4-1.2,30.7-1.6,46.1c0,1.4,1.2,2.9,1.9,4.3
		c-0.6,0.3-1.1,0.8-1.7,1c-17.2,6-34.3,12-51.5,17.9c-1.4,0.5-2.9,0.6-4.4,0.4c-7.6-0.7-15.2-1.5-22.8-2.2c-0.4-1.3-0.8-3.6-1.2-3.6
		c-4.9,0.1-8.8-1.4-11.3-5.9c-0.2-0.3-0.9-0.2-1.4-0.4c-7.1-2.6-14.6-4.5-21.2-8.1c-9.5-5.2-12.7-6.2-21.8-3.7
		c9.6,4.6,20.1,9.7,30.6,14.6c6.8,3.2,13.7,6.2,20.7,8.9c1.5,0.6,3.7-0.5,5.6-0.8c6.5,0.5,13.1,1,19.6,1.4c0,0.5,0.1,0.9,0.1,1.4
		c-1.8,0.5-3.6,1.3-5.5,1.6c-22.1,3.5-43.9,9-66.6,7.9c-5.1-0.2-10.9,1.8-15.5,4.3c-8.1,4.3-15.7,9.6-23.2,14.9
		c-6.4,4.5-13.1,5.6-20.5,3.9c-5.4-1.2-10.8-2.5-16.3-3.2c-25.7-3.3-51.4-6.6-77.2-9.4c-27.4-3-54.6-8.1-82.4-6.9
		c-2.8,0.1-6.3-0.6-8.5-2.2c-11.5-8.3-22.8-17-34.1-25.6c-9.3-7.1-18.6-14.2-27.9-21.3c-2.3-1.7-4.7-3-6.7,0.6
		c-3.2,5.9-7.1,11.5-9.4,17.7c-5.1,13.8-9.2,27.9-14.1,41.8c-1.2,3.5-3.6,6.9-6.3,9.4c-7.7,6.7-15.7,13-23.7,19.3
		C15.5,1524.9,9.1,1530.8,0,1531.5z M359.1,1411.6c-0.8,2.3-1.5,4.5-2.5,6.6c-0.6,1.2-1.6,2.9-2.7,3.2c-4.5,1.1-9.2,1.8-13.8,2.7
		c-0.4,0.1-0.8,0.2-1.7,0.5c1.9,0.3,3.2,0.5,4.5,0.8c-1,0.9-1.7,1.5-2.4,2.1c0.1,0.1,0.2,0.2,0.8,0.7c7.1-3.2,12.1-0.5,15.4,6.6
		c0.9,1.9,2.7,3.4,4.2,5c2.4,2.7,4.4,1.9,5.7-1c0.5-1.1,1.1-2.7,0.7-3.8C364.7,1427.1,361.9,1419.5,359.1,1411.6z M187.2,1437.3
		c2.9-0.4,5.9-0.3,8.6-1.3c3.8-1.4,7.4-2.9,11.6-1.2c0.6,0.2,2.6-1.1,2.7-1.9c0.1-1.2-0.6-3.3-1.4-3.6c-7.5-2.1-9.6-8.6-12.7-14.6
		c-0.9-1.8-2.4-3.4-3.6-5.1c-0.4,0.3-0.8,0.6-1.2,0.8c1.5,4.9,3.3,9.7,4.4,14.6C196.9,1431.8,190.6,1433.2,187.2,1437.3z
		 M296.9,1420.5c5.2,1,10.9-1.4,13.4,4.7c0.1,0.2,0.6,0.4,0.9,0.4c4.3,0.3,8.6,0.9,12.8,0.6c1.5-0.1,2.9-2.6,4.3-4
		c-1.6-1.2-3.2-3.5-4.7-3.5C315,1419,306.4,1419.8,296.9,1420.5z M335.3,1317.3c2.6,2.5,4.8,6,7.9,7.4c4.7,2.2,3.1,4.7,1.6,7.6
		c-1.2,2.2-2.6,4.3-4,6.6c5.1,2.3,7.4,1,7.6-3.1c0.1-2.8,0.7-5.6,0.9-8.4c0.3-3.2,0.4-6.3,0.6-10.6
		C343.7,1322.8,343.7,1322.8,335.3,1317.3z M364.6,1373.6c-0.4-0.1-0.8-0.3-1.2-0.4c-3.6,5.2-6.9,10.5-8.3,16.8
		c-0.3,1.2,1.6,2.9,2.4,4.4c1.4-0.9,3.1-1.5,4.2-2.7c0.8-0.9,0.8-2.5,1.1-3.8c0.7-3.9,1.5-7.8,2.1-11.6
		C365,1375.5,364.7,1374.5,364.6,1373.6z M266.8,1299c6.1-0.7,11.7-1.2,17.3-2.1c1.1-0.2,1.9-1.8,2.8-2.7c-1-0.6-2-1.8-3.1-1.9
		c-3.4-0.2-6.9-0.1-10.3-0.1c0.2,0.3,0.4,0.7,0.6,1C271.8,1295.1,269.5,1296.9,266.8,1299z M293.7,1294.7c1.8,1.5,3.4,2.8,5,4.2
		c2.9,2.4,7.9,0.5,6.7-2.6c-1.1-2.9-3.9-5.1-6-7.7C297.1,1291.1,295.5,1292.8,293.7,1294.7z M710.3,1395.6c-1.5,2.2-3.5,3.8-3.3,5
		c0.3,1.5,2.3,2.7,3.6,4.1c1.2-1.3,3.3-2.6,3.3-3.8C713.7,1399.3,711.9,1397.8,710.3,1395.6z M103.1,1339.1
		c-0.6-0.4-1.1-0.9-1.7-1.3c-1.8,2.7-3.6,5.4-5.4,8.2c0.5,0.4,1.1,0.7,1.6,1.1C99.4,1344.4,101.3,1341.7,103.1,1339.1z
		 M225.2,1303.2c0.2,0.6,0.3,1.1,0.5,1.7c3.4-0.9,6.8-1.8,10.2-2.8c-0.1-0.5-0.3-1-0.4-1.5C232,1301.5,228.6,1302.4,225.2,1303.2z"
		/>
	<path class="st3" d="M1707.8,1308.3c-2.5-8-4.7-16-7.4-23.9c-2.3-6.7-1.9-7.3,5.2-7.3c15.8-0.2,31.6-0.8,47.4-0.8
		c8.2,0,13.9-4.7,19-9.9c7-7.1,6.5-7.3,0-15.1c-3-3.6-5.2-7.7-7.6-11.8c-3.8-6.5-7.3-13.1-10.9-19.7c-0.6-1.1-0.9-2.3-1.6-4.1
		c1.4,0.2,2.3,0.1,2.6,0.5c4.6,5.5,9.1,11,13.7,16.5c4.4,5.4,8.6,11,13.3,16.1c2.7,2.8,10.3,2.2,13.6,0c13.3-8.8,27.5-15.2,43.5-17
		c3.5-0.4,7,0,10.5,0.2c4.7,0.2,7.1-2.2,6.4-6.7c-1.5-9.9-3.3-19.8-5-29.7c-0.3-1.8-0.3-3.7-0.5-5.5c0.6-0.2,1.2-0.4,1.8-0.7
		c0.9,1.7,2.1,3.3,2.6,5c2.6,8.8,4.8,17.8,7.5,26.6c1,3.1,2.6,6.1,4.4,8.8c0.6,0.9,2.6,0.8,4,1.2c0.1-1.2,0.8-2.6,0.4-3.6
		c-3.1-7.7-6.6-15.3-9.6-23c-3.3-8.7-6.6-17.5-9.2-26.4c-1.4-4.9,0.5-6.8,5.6-7.2c7.2-0.5,14.4-0.6,21.5-1.2
		c6.1-0.5,9.9,2.4,13.7,6.7c6.1,7.1,12.8,13.7,19.2,20.4c0,8.4,0,16.8,0,25.1c-10.4,4.1-20.8,8.1-31.1,12.5
		c-1.2,0.5-2.6,2.9-2.4,4.3c0.3,3.2-0.3,4.2-3.7,5.4c-2.8,1-5.8,5-6.1,8c-0.4,3.2,3.3,4.6,7,4.5c1.5-0.1,3.6,1.7,4.6,3.2
		c1.3,1.8,1.7,4.3,2.5,6.4c3.6,3.7,7.3,7.4,11.3,11.5c-3.1,0.4-5.3,0.7-7.5,1c0.2-0.4,0.4-0.7,0.6-1.1c-2.6-1.5-5.3-4.3-7.8-4.2
		c-2.2,0.1-4.7,3.1-6.2,5.4c-1.6,2.4-2.1,5.4-3.4,9c0-2.6,0.3-4.5-0.1-6.2c-0.5-2.6-1.5-5-2.2-7.5c-0.9,2.6-2.3,5.2-2.6,7.8
		c-1.2,8.9-0.8,18.3-3.2,26.8c-3.7,12.9-9.2,25.2-14,37.8c-1.4,2.5-3,4.9-4.2,7.4c-2.9,6.2-7.3,11.8-14,12.6c-6.8,0.8-14-0.9-21-1.5
		c-5.3-0.5-6.6-3.5-5.3-8.4c5.1-18.7-3.1-34.3-11.4-49.9c-0.3-0.5-1-0.7-2.6-1.7c-0.9,5,0.4,8.7,2.4,12.2c7,12.1,11.4,24.5,7.1,38.7
		c-1.4,4.7-3.6,6.9-8.4,6.7c-1.7,0-3.5,0.5-4.4,0.6c1.6,1.9,3,3.7,4.4,5.4c2,1.8,3.9,3.8,6.1,5.5c2,1.5,4.2,2.7,6.3,4
		c-0.2,0.7-0.3,1.5-0.5,2.2c-7.2,0.7-14.4,1.8-21.7,2.1c-4.1,0.2-9.1,0.5-9.2-6.9c-1.9,1.5-3.3,2.1-3.8,3.1
		c-2.2,4.9-6.3,5.3-10.9,5.1c-9-0.3-18.1-0.6-27.1-0.4c-1.5,0-3.6,1.9-4.2,3.5c-0.6,1.4,0.6,3.5,0.7,5.3c0.5,5.1,1.9,10.4,1,15.3
		c-1.3,7-4.5,13.6-6.4,20.5c-0.8,3.1-0.9,6.7-0.2,9.9c2.1,9.6,4.4,19.3,7.1,28.7c3.7,12.9,7.3,25.9,18.1,35.1
		c5.3,4.6,10.4,9.4,15.4,14.3c1.3,1.3,3.1,3.8,2.7,5c-2.4,6.6,1.9,7.3,6.4,8.2c1.6,0.3,3.3,0.9,4.7,1.6c4.8,2.4,9.5,4.9,14.2,7.4
		c-0.2,0.5-0.4,1-0.6,1.5c-0.7,0-1.6,0.1-2.2-0.2c-7.7-3.1-15.5-6.1-23.1-9.5c-1.3-0.6-3-3-2.7-4.2c1.7-6.5-2.7-9.4-6.7-12.7
		c-12.3-9.8-22.2-21.2-26.1-37c-3.3-13.1-7-26.2-10.1-39.4c-1-4.3-3-4.6-6.4-3.5c-1.2,0.4-2.4,1.2-3.5,1.9c-5.1,3.2-10.2,6.5-16.8,5
		c-1.3-0.3-3,0.5-4.3,1.1c-5.9,2.8-11.8,5.5-17.5,8.7c-4.1,2.3-7.5,2.5-10.6-1.5c-1.9-2.3-3.8-2.4-6.5-0.5c-2.7,1.9-6,2.7-8.9,4.3
		c-2.3,1.2-4.9,2.3-6.6,4.1c-2.9,3.2-5.1,7.1-8,10.2c-1.6,1.7-4.2,3.1-6.5,3.4c-7.6,0.9-15.3,1.6-23,1.8c-10.3,0.3-20.7,0.4-31,0.1
		c-3.6-0.1-6.8-1.8-7.9-5.9c0.7-0.3,1.3-0.7,2-1c4,5.8,10.3,6.1,16.2,5.8c14-0.6,28-1.9,42-2.7c3.3-0.2,5.4-1.2,7.4-4
		c4.8-6.9,9.1-14.6,19-15.5c1.3-0.1,2.8-1.2,3.8-2.2c3.8-3.4,7-2.8,10.4,0.7c1.2,1.2,4,1.9,5.5,1.3c5.3-2.1,10.2-4.8,15.4-7.2
		c2.9-1.3,5.9-3.2,8.8-3.2c5.8,0,10.8-1.6,15.5-4.8c2-1.4,4.7-1.7,6.8-3.1c2.2-1.4,5.2-3.2,5.7-5.3c2.2-9,4.3-18.2,5-27.4
		c0.7-9.6-2.5-13.1-10.7-14.7c-7.4-1.4-14.8-3.3-22.2-3.8c-6-0.4-12.4,0-18.1,1.9c-8,2.7-15.4,7-23.1,10.6c1-1.7,2-3.4,3-5
		c5.4-2.7,10.8-5.3,15.8-7.8c-1.2-3.1-2.9-6.2-2.5-6.5c2-1.7,4.6-2.8,7.1-3.6c1.8-0.6,4-0.1,5.9-0.6c1.5-0.4,2.9-1.5,4.3-2.3
		c-0.1-0.5-0.2-1-0.3-1.5c-2-0.3-4-0.7-6.1-0.8c-2.8-0.1-5-0.7-5.2-4c0.8-1.8,1.9-3.6,2.4-5.5c1.2-4.9,3.2-8.6,9-9.2
		c2.3-0.3,4.4-2.2,6.8-3.5c-0.7-1.3-1.4-2.3-1.6-3.4c-1.3-5.1,1.7-8.1,5.3-10.9c3.7-2.7,4.9,0.9,7,2.5c1.6,1.1,3.1,2.2,4.7,3.3
		c0.2-0.3,0.4-0.6,0.5-0.9c-2.4-2.7-4.8-5.3-8.3-9.2c3.4-0.5,5.6-1.4,7.6-1c3.2,0.6,5.3-0.4,5.3-3.4c-0.1-3.6,1.9-5.1,4.5-6.4
		c6.7-3.5,13.4-6.9,20-10.5c6-3.3,12-6.6,17.8-10.2c1.4-0.9,2-2.9,2.9-4.5c-1.8,0.1-3.9-0.3-5.4,0.5c-12.5,6.7-24.8,13.7-37.3,20.4
		C1711.3,1308.4,1709.4,1308.1,1707.8,1308.3z M1825.2,1337.4c0.4-0.1,0.8-0.1,1.2-0.2c0-3.6-0.1-7.2,0-10.9
		c0.3-7-0.7-13.6-4.7-19.6c-1.3-2-2.4-4.8-2-7c1.7-10.7-2.1-18.9-10-25.8c-1.2-1-1.6-3-2.4-4.5c1.6-0.7,3.2-1.8,4.9-2.1
		c13.5-2.6,27-4.9,40.4-7.6c2.1-0.4,5.5-2.3,5.5-3.6c0.1-3.2-0.4-7.5-2.4-9.6c-8.4-8.4-18.8-9.7-29.6-4.6c-2.4,1.1-5,1.9-7.4,3.2
		c-8,4.5-16.2,8.6-23.6,13.9c-6.2,4.5-4.8,9.6,2.4,12.5c9.1,3.7,15.5,10.3,18,20c1.2,4.8,1,10.4,3.4,14.4c4.5,7.8,6.2,15.7,5.6,24.5
		C1824.3,1332.7,1825,1335.1,1825.2,1337.4z M1778.1,1367.8c0-0.4,0-0.8-0.1-1.3c-20.4-0.4-40.8-5.3-61.5-0.9
		c2.1,1.7,4.4,2.9,6.8,2.9c14.9,0.2,29.8,0.1,44.6,0C1771.4,1368.6,1774.8,1368.1,1778.1,1367.8z M1896.1,1220.3
		c-0.1-0.7-0.3-1.3-0.4-2c-6.7,0.9-13.5,1.3-20.1,2.7c-4.8,1-2.3,5.4-2,7.9c0.3,2.8,2.8,2.5,5.1,1.2
		C1884.5,1226.7,1890.3,1223.5,1896.1,1220.3z M1708,1368c-4.7-6-13.9-5.7-17.3,0C1696.3,1368,1701.7,1368,1708,1368z
		 M1708.8,1361.8c3.1-4.8,5.6-8.7,8.4-13c-6.8-1.2-9,3.2-11.2,6.8C1705.4,1356.6,1707.6,1359.3,1708.8,1361.8z M1713.4,1314.7
		c1,5.6,3,6.3,6.8,3.3C1718.3,1317.1,1716.3,1316.2,1713.4,1314.7z"/>
	<path class="st4" d="M0,1195.7c23.9,0.7,47.8,1.5,71.7,2c13,0.3,26-0.1,39,0c30.1,0.4,60.1,0.8,90.2,1.4c8.2,0.2,16.3,1,24.5,1.5
		c2.7,0.2,3.5,1.5,3.3,4.3c-2.3,25.3-12.3,48.4-19.7,72.3c-0.2,0.6-0.6,1.2-0.9,1.8c-1.6-1-3.2-2.7-4.9-2.9
		c-9.6-0.6-19.3-0.9-28.9-1.1c-9.4-0.2-18.9-0.4-28.3,0c-8.9,0.3-11.7-3.3-9.3-11.9c-0.7,2.2-1.8,4.3-2.1,6.6
		c-0.5,3.2-1.5,5.3-5.2,5.3c-9.5-0.1-19,0.1-28.6,0c-12.8-0.2-25.5-0.7-38.3-0.9c-14.7-0.2-29.3,0-44-0.2
		c-6.2-0.1-12.3-0.6-18.5-0.9C0,1247.3,0,1221.5,0,1195.7z"/>
	<path class="st5" d="M51.2,1502.3c4.7,3.3,9.9,5.8,12.7,11.5c1.3,2.6,4.5,4.4,6.9,6.4c10,8.1,20.2,15.9,29.9,24.4
		c3.9,3.5,6.7,8.3,9.8,12.6c9.7,13.2,18,27.3,25.4,41.9c2.9,5.8,6.9,11.1,10.7,16.3c2.9,3.9,1.9,7-1.9,8.5
		c-5.9,2.3-11.6,6.2-18.5,4.8c-1.2-0.2-3.4-0.6-3.5-1.2c-1.3-6.7-6.7-4.9-10.7-5c-15.4-0.3-30.7-0.3-46.1-0.4c-8,0-16,0-24-0.1
		c-14-0.3-28.1-0.7-42.1-1c0-28.1,0-56.3,0-84.4c7.9-1.9,15.1-5.2,21.4-10.5C31.2,1517.9,41.3,1510.2,51.2,1502.3z"/>
	<path class="st6" d="M51.2,1502.3c-10,7.9-20.1,15.6-29.8,23.7c-6.4,5.3-13.5,8.5-21.4,10.5c0-1.7,0-3.4,0-5
		c9.1-0.7,15.5-6.6,22.2-11.9c8-6.3,16.1-12.6,23.7-19.3c2.7-2.4,5.1-5.9,6.3-9.4c4.9-13.8,9-28,14.1-41.8
		c2.3-6.2,6.2-11.8,9.4-17.7c1.9-3.5,4.4-2.3,6.7-0.6c9.3,7.1,18.6,14.2,27.9,21.3c11.3,8.6,22.5,17.3,34.1,25.6
		c2.2,1.6,5.7,2.3,8.5,2.2c27.8-1.1,55,3.9,82.4,6.9c25.8,2.8,51.5,6.1,77.2,9.4c5.5,0.7,10.9,2,16.3,3.2c7.4,1.6,14.1,0.6,20.5-3.9
		c7.5-5.3,15.1-10.6,23.2-14.9c4.7-2.5,10.4-4.5,15.5-4.3c22.7,1.1,44.5-4.3,66.6-7.9c1.9-0.3,3.7-1.1,5.5-1.6
		c0-0.5-0.1-0.9-0.1-1.4c-6.5-0.5-13.1-1-19.6-1.4c0-0.4,0-0.7,0-1.1c7.6,0.8,15.2,1.6,22.8,2.2c1.4,0.1,3,0,4.4-0.4
		c17.2-5.9,34.3-11.9,51.5-17.9c0.6-0.2,1.2-0.6,1.7-1c0,0,0,0,0,0c10.9-3.7,22.1-6.8,32.7-11.3c4.2-1.7,6.8-6.9,10.7-9.5
		c3.1-2.1,7.2-2.7,10.8-3.9c1.5-0.5,2.9-1,3.6-1.2c1.8,1.4,3.1,3.2,4.9,3.8c2.6,1,5.5,1.7,8.3,1.7c6.4,0.1,12.5,0.4,18.5,3.3
		c3,1.4,7.3,0.8,10.8,0.1c6.3-1.3,11.9-0.5,18.1,1.3c19.4,5.7,39,11.1,58.8,15.3c7.4,1.6,15.7,0.1,23.4-1.1
		c34.9-5.2,69.7-10.8,104.6-16.4c11.4-1.8,22.9-3.1,34-6c10.6-2.7,21-6.8,31.2-11c22.3-9.1,44.7-18,66.5-28.2
		c11.2-5.3,21.1-13.4,31.7-20.1c3.9-2.5,7.9-5,11.9-7.4c0.7,1,1.4,2,2,3c-1.9,1.4-3.8,2.8-5.7,4c-13.6,8.8-26.7,18.7-41.1,26
		c-16.5,8.4-34.1,14.6-51.3,21.7c-20.9,8.6-41.5,17.7-64.4,20.4c-18.2,2.2-36.2,6.4-54.4,9.2c-22.6,3.5-45.3,6.8-68.1,9.5
		c-8.3,1-17.1,1.3-25.3-0.1c-11.8-2-23.3-5.9-35-9c-15-3.9-29.7-10.9-45.8-5.4c-1-0.3-2-0.7-3-1c-5.1-1.3-10.1-2.8-15.3-3.9
		c-3.7-0.8-7.5-0.9-11.3-1.5c-1.6-0.2-3.1-0.7-4.6-1c-1,3.4-2,6.3-2.6,9.2c-0.8,3.4-1.3,6.9-1.8,10.4c-0.6,3.8-1.2,7.7-1.8,11.5
		c-0.5-0.1-1-0.2-1.6-0.3c0.5-3.9,0.9-7.8,1.4-11.6c0.5-3.5,1.2-7,1.7-10.5c0.3-2.1,0.4-4.3,0.6-6.4c-1.7,1.4-3.4,2.9-5.1,4.3
		c-0.3,0.3-0.7,0.4-2,1.2c0.6-3,1.1-5.2,1.7-8c-2.3,1.9-4.6,3.2-5.9,5.2c-3.1,4.9-7.8,7-13,8.8c-22.3,7.6-44.6,15.2-66.9,23
		c-8.8,3.1-17.5,6.6-26.2,9.8c-0.7,0-1.3,0-2,0c-1.8,0-3.6-0.2-5.4,0c-5.6,0.9-11.2,2.4-16.8,2.9c-16.1,1.6-32.2,2.7-48.3,4.2
		c-3.1,0.3-6.3,1.4-8.9,2.9c-8.2,4.9-16.2,10-24.1,15.4c-6.9,4.7-14.2,5.9-22.4,4.4c-14.8-2.6-29.7-4.9-44.6-6.8
		c-21.7-2.8-43.4-5.3-65.2-7.8c-12.9-1.5-25.9-2.8-38.8-4.2c-0.7,0-1.3,0-2,0c-3.7,0-7.4-0.5-11,0c-16.2,2.4-28.5-4.7-40.4-14.6
		c-14-11.6-28.9-22.2-43.3-33.3c-3.2-2.5-5.2-2-6.8,1.7c-2.3,5.2-5.5,10-7.5,15.3c-3.5,9.2-7.8,17.9-4.9,28.7
		c1.9,7.2,2.1,14.7,6.5,21.1c-0.4,0.7-0.7,1.4-1.1,2.1c-1.7-3.5-3.9-6.8-4.9-10.4c-1.2-4.8-1.3-9.9-1.9-14.8c-0.5,0-1.1,0-1.6-0.1
		c-2.6,6.4-5.2,12.8-7.7,19.2C52.6,1501,51.9,1501.6,51.2,1502.3z"/>
	<path class="st4" d="M1911.9,1287.2c0,1.7,0,3.4,0,5c-2.4,1.4-6.7,2.5-7,4.2c-1,6.4-1,13-0.8,19.4c0.3,8.3,1.4,16.6,1.6,25
		c0.3,10.3,0.1,10.3-10,11.7c-6.3,0.8-8.4,3.6-7.6,10.8c1.9-1,3.5-2.4,5.3-2.8c3.8-0.8,9-2.7,11.1-1c2.6,2,3.3,7.3,3.7,11.2
		c0.4,4.7-0.3,9.5-0.6,14.3c-0.2,3.8-0.4,7.7-1,11.5c-0.1,0.9-1.9,1.6-3,2.4c-0.9-0.3-1.9-0.9-2.8-0.9c-12.4,0.2-23.5-3.3-33.8-10.3
		c-7-4.8-14.6-8.6-21.8-13.2c-2.9-1.8-6-4.2-3.6-8.5c3.2-5.8,6.5-11.6,9.7-17.4c4.1-9.3,7.8-18.9,12.4-28c2.5-4.9,6.3-9.2,9.9-13.4
		c2.5-2.9,5.6-5.2,9.6-8.8c-4.7,1-8.1,1.7-11.5,2.4c-0.1-0.4-0.2-0.8-0.2-1.3c5.9-3.3,11.7-6.9,17.7-10c3.4-1.8,6.8-3.2,5.8-8.6
		c1.4,1,2.5,1.3,2.7,1.9c2.4,7.9,7.5,7.3,13.5,4.5C1911.5,1287.2,1911.7,1287.2,1911.9,1287.2z"/>
	<path class="st7" d="M1911.9,1442c0,43.9,0,87.8,0,131.7c-9.7,0.7-19.4,1.3-29.2,2c0.3-5.7,0.7-11.3,0.8-17
		c0.1-5.8,1.6-12.1-6.7-14.6c-3.7-1.1-4.2-6.3-0.9-8.5c1.9-1.3,5.1-0.6,7.7-0.9c1.5-0.2,3.6-0.1,4.4-1c0.7-0.7-0.2-2.8-0.4-4.3
		c-0.3-0.7-0.7-1.4-1-2.1c0.2-0.9,0.4-1.8,0.6-3.2c1.1,1.3,1.8,2.2,2.6,3.1c1.2-2.3,2.5-4.3,3.3-6.4c2.7-7.3,6.9-14.1,4.9-22.8
		c-1.1-4.9-2.8-10.8,0.9-16c0.5-0.7-1-2.7-1.2-3.2c2.4-11.7,4.7-22.7,7.1-33.8C1907.2,1444,1909.5,1443,1911.9,1442z"/>
	<path class="st8" d="M1911.9,1287.2c-0.2,0-0.4,0-0.5,0.1c-5.9,2.7-11.1,3.4-13.5-4.5c-0.2-0.6-1.3-0.9-2.7-1.9
		c1,5.4-2.4,6.9-5.8,8.6c-6,3.1-11.8,6.6-17.7,10c0.1,0.4,0.2,0.8,0.2,1.3c3.4-0.7,6.8-1.4,11.5-2.4c-4,3.6-7.2,5.9-9.6,8.8
		c-3.6,4.2-7.5,8.5-9.9,13.4c-4.6,9.1-8.3,18.6-12.4,28c-1.3-0.7-2.7-1.3-4-2c4.8-12.6,10.3-24.9,14-37.8c2.4-8.5,2-17.9,3.2-26.8
		c0.4-2.7,1.7-5.2,2.6-7.8c0.8,2.5,1.7,5,2.2,7.5c0.3,1.8,0.1,3.6,0.1,6.2c1.3-3.6,1.8-6.6,3.4-9c1.5-2.3,4-5.4,6.2-5.4
		c2.6-0.1,5.2,2.7,7.8,4.2c-0.2,0.4-0.4,0.7-0.6,1.1c2.2-0.3,4.4-0.6,7.5-1c-4-4.1-7.6-7.8-11.3-11.5c1.5-3.6,4.3-5.1,8.1-5.6
		c7-1,14-2.3,21.1-3.5C1911.9,1267.1,1911.9,1277.2,1911.9,1287.2z"/>
	<path class="st9" d="M1882.7,1575.7c9.7-0.7,19.4-1.3,29.2-2c0,11.4,0,22.8,0,34.2c-12.7,2-25.5,4-38.2,6c-2.9-2.7-5-5.1-1.2-9.2
		c3.5-3.8,2.7-9.3-1.4-12.8c-4.2-3.7-9-6.8-13.5-10.2c2.8-0.3,5.6-0.3,8.2-1.1c3.7-1,7.2-2.6,10.9-3.9
		C1879.2,1579.7,1881.5,1580.8,1882.7,1575.7z"/>
	<path class="st10" d="M1911.9,1257.1c-7,1.2-14,2.5-21.1,3.5c-3.8,0.5-6.6,2-8.1,5.6c-0.8-2.2-1.3-4.6-2.5-6.4
		c-1-1.5-3.1-3.2-4.6-3.2c-3.7,0.1-7.4-1.3-7-4.5c0.3-3,3.4-7.1,6.1-8c3.4-1.2,4-2.1,3.7-5.4c-0.1-1.4,1.2-3.7,2.4-4.3
		c10.3-4.3,20.7-8.4,31.1-12.5C1911.9,1233.6,1911.9,1245.3,1911.9,1257.1z"/>
	<path class="st11" d="M1903.8,1398.8c1-0.8,2.8-1.4,3-2.4c0.6-3.8,0.7-7.6,1-11.5c0.3-4.8,1-9.6,0.6-14.3c-0.4-4-1.1-9.2-3.7-11.2
		c-2.2-1.7-7.3,0.3-11.1,1c-1.8,0.4-3.4,1.7-5.3,2.8c-0.8-7.2,1.2-9.9,7.6-10.8c10.1-1.3,10.3-1.3,10-11.7c-0.2-8.3-1.3-16.6-1.6-25
		c-0.2-6.5-0.2-13.1,0.8-19.4c0.3-1.7,4.5-2.8,7-4.2c0,37.5,0,75.1,0,112.6c-1.3,0.3-2.6,0.7-4,1c-4.7-1-9.4-2-14.1-3
		C1897.1,1401.5,1900.5,1400.1,1903.8,1398.8z"/>
	<path class="st12" d="M1873.7,1613.9c12.7-2,25.5-4,38.2-6c0,2,0,4,0,6c-1.7,5.3-3.7,10.5-4.9,16c-0.7,2.9-1.2,5.4-4.4,5.8
		c-6.3,0.9-12.6,1.6-18.8,2.3c-0.7-1-1.3-2-2-3c-3-5.3-6-10.6-9-15.9c0.3-0.2,0.6-0.4,0.9-0.5c1.4,1.6,2.9,3.2,4.3,4.8
		c0.4-0.3,0.7-0.5,1.1-0.8C1877.2,1619.7,1875.4,1616.8,1873.7,1613.9z"/>
	<path class="st2" d="M0,1181.7c19.4-2.2,38.7-4.3,58.1-6.5c21.2-2.5,42.4-5,63.5-7.6c4,0,7.9,0,12.2,0c-0.5,1.2-0.8,2.1-1.1,3
		c-18.7,2.5-37.3,5.2-56.1,7.4c-25.5,3.1-51.1,5.8-76.6,8.6C0,1185,0,1183.4,0,1181.7z"/>
	<path class="st13" d="M1883.7,1638c6.3-0.8,12.6-1.4,18.8-2.3c3.2-0.5,3.7-2.9,4.4-5.8c1.2-5.4,3.2-10.7,4.9-16
		c0,13.1,0,26.1,0,39.2c-4.4-2.1-6.6-1.1-7.2,3.8c-0.3,2.3-1.4,4.1-3.4,2.1c-5.6-5.9-10.8-12.1-16.1-18.3
		C1884.5,1639.9,1884.2,1638.9,1883.7,1638z"/>
	<path class="st9" d="M1907.9,1405.8c1.3-0.3,2.6-0.7,4-1c0,12.4,0,24.8,0,37.2c-2.3,1-4.7,2-7,3c0.5-3.5,1-6.9,1.6-10.4
		c1.4-8.6-2-13.3-10.7-14.7c-4.3-0.7-8.6-1.3-12.9-2.1c-3.6-0.7-6.4-2.5-7.6-6.2c5.6-3.3,10.9-3.9,16.3,0.2
		c3.2,2.4,6.8,4.3,10.4,6.1c3.8,2,5.6,0.9,5.8-3.4C1907.9,1411.5,1907.9,1408.7,1907.9,1405.8z"/>
	<path class="st14" d="M1573.1,1350.5c-1.1,4.6-2.3,9.2-3.4,13.8c0.5,0.2,1,0.3,1.5,0.5c1.6-5.4,3.2-10.8,4.8-16.2
		c1.4-2.3,3.4-4.5,4.2-7c2-6.6,3.2-7.6,9.9-6.6c2,0.3,4.1,0.8,6,0.4c14.4-2.3,27,4.7,40.3,7.6c11,2.4,22,5,33,7.5
		c-3.3,6.4-6.7,12.7-10,19.1c-1.2,0.9-2.7,1.6-3.4,2.8c-5.1,8.8-10.6,17.4-14.9,26.6c-5.6,11.8-13.5,20.7-24.9,27.1
		c-13.1,7.4-25.5,15.9-38.2,23.9c-3.3,1.9-6.7,3.7-10,5.7c-12.5,7.5-25,14.9-37.3,22.6c-12.2,7.6-24.9,14.5-34.9,25.2
		c-8.4,9-17.1,17.9-25.7,26.7c-7.7,7.8-14.8,7.6-22.1-0.7c-19-22-37.9-44.1-57-66c-19.2-22-38.6-43.9-57.9-65.9
		c-1.5-1.7-2.7-3.9-3.3-6c-1.8-6.3-3.2-6.8-8.2-2.2c-19.1-10.3-38.2-20.5-57.3-30.8c3.6-4.4,7.4-8.6,10.6-13.3
		c2.3-3.4,4-7.3,5.4-11.2c1.8-5,11.2-12.8,16-14.5c3.1-1.1,6.7-4.4,7.6-7.4c1.8-5.9,5.7-9.3,10.5-12.1c2.3-1.4,4.8-2.4,7.2-3.5
		c7.1-3,11.6-8.1,13.2-15.8c2-9.4,4.1-10.3,14-10.4c11.3-0.1,22.6-1.3,34-1.7c4.1-0.2,8.2,0.4,12.3,0.7c-1,3.6-2.2,7.1-3,10.8
		c-0.6,2.7-0.8,5.4-1.1,8.1c-0.1,1.1,0.3,2.5-0.2,3.4c-2.6,4.7-5.1,9.4-8.2,13.7c-0.7,1-3.6,1.3-5.1,0.9c-2.7-0.9-4.9-2.8-7.5-3.9
		c-3.6-1.5-6.5-0.7-8.2,3.2c-2,4.6-4.5,9-6,13.8c-5.1,15.4-12.2,29.6-21.2,43c-0.5,0.8-0.8,1.7-1.2,2.5c0.3,0.3,0.6,0.6,0.9,0.9
		c1.3-1.2,2.9-2.2,3.8-3.7c3.9-6.8,8.1-13.5,11.4-20.6c4.8-10.3,8.9-20.9,13.3-31.3c2.6-6.1,3.6-6.4,9.4-3.3c1.8,0.9,3.5,2,5.2,3
		c3.4,2.1,6,1.8,7.5-2.2c2.3-2.1,4.8-4,6.9-6.3c2.3-2.5,4.5-4.5,8.2-2.8c8.1,3.7,14.7,1.8,20.7-4.8c1.9-2.1,5.3-4.1,8-4
		c12.3,0.2,24.6,1.1,36.8,1.8c7.2,0.5,14.5,1.2,21.7,2c5.2,0.5,10.3,4.8,15.7,0.5c0.3-0.3,1.5,0.4,2.3,0.7c2.6,1,5.2,2.3,7.9,3.1
		c20.4,6.3,41.1,12.1,57.3,27.2c1.5,1.4,3.5,4.1,3,5.5C1571.3,1337.2,1572,1343.8,1573.1,1350.5z M1529,1325.1
		c3,3.1,5.5,6.2,8.6,8.7c1.1,0.9,3.4,0.3,5.2,0.4c-0.2-1.6,0.2-3.8-0.7-4.8c-3.3-3.6-7-6.8-10.5-10.2
		C1530.8,1320.9,1529.9,1323,1529,1325.1z M1459.6,1491.8c0.5-0.3,1-0.6,1.5-0.9c-2.2-3.1-4.3-6.2-6.5-9.2c-0.5,0.3-0.9,0.6-1.4,1
		C1455.3,1485.6,1457.4,1488.7,1459.6,1491.8z"/>
	<path class="st3" d="M1629.5,1314.5c-8-0.9-14.2-2.3-20.3-2c-5.7,0.3-11.6,1.6-16.8,3.9c-14,6.4-13.8,6.7-25.8-3
		c-5.9-4.7-11.7-9.5-17.9-13.8c-7.2-5-11.7-11.9-14.4-20c-1.7-5.2-5-8.8-9.6-11.7c-8.3-5.4-16.2-11.2-24.3-16.8
		c-3.3-2.3-4-4.4-1-7.6c4.7-5,8.6-10.7,13.6-15.3c4.5-4.2,7.5-2.5,11.2,2.5c3.4,4.7,8,8.8,12.7,12.4c5,3.9,10.7,6.9,16.1,10.2
		c6.1,3.8,12.5,6.5,19.9,5.7c2.1-0.2,4.4-0.3,6.5,0.2c7.8,2,14-0.6,19.8-5.7c5.1-4.5,7.3-4.1,13.6-1.5c12.3,5.1,24.9,9.4,37.1,14.5
		c3.3,1.4,6.6,3.8,8.9,6.6c3.8,4.6,6.6,10.1,10.4,14.8c3.1,3.9,2.1,6.7-1.4,9.2c-1.9,1.4-3.9,2.7-6,3.7c-7.4,3.5-14.8,7-22.3,10.3
		C1635.8,1312.8,1631.8,1313.8,1629.5,1314.5z"/>
	<path class="st3" d="M1120.8,1311.3c-2.9-1.9-6.9-3.2-8.6-5.9c-5.2-8-12.2-13-20.4-17.8c-6.4-3.7-10.5-11.3-15.6-17.2
		c-0.3-0.3-0.4-1-0.3-1.4c1.3-6.1,2.6-12.1,4.2-18.2c0.8-3.1,3-4.1,6.4-4.1c4.3,0,8.5-1.2,12.8-2c3.3-0.6,6.6-1.9,9.8-1.7
		c5.4,0.3,8.6-1.8,9.9-6.9c0.3-1.3,0.2-2.8-0.3-4c-4.4-10.8-8.9-21.5-13.4-32.2c0.6-0.3,1.2-0.7,1.8-1c2.2,2.9,4.6,5.7,6.6,8.7
		c2.1,3,3.8,6.3,5.7,9.4c2.4,4,4.6,8.1,7.1,12c0.6,0.9,2.2,1.2,3.3,1.8c2.1,9.4,8.4,11.6,17.2,10.7c6.9-0.7,12.4,2.2,17.7,7.2
		c9,8.4,19,15.7,29,23c6.5,4.8,7,4.5,2.3,10.8c-2.7,3.7-6.3,6.7-9.5,10c-0.8,0.9-1.5,1.8-2.2,2.7c0.5,0.5,1,0.9,1.5,1.4
		c4.1-4.2,8.2-8.3,12.2-12.5c1-1.1,1.6-2.6,2.7-3.6c0.7-0.6,2-0.6,3.1-0.9c0.3,1,1,2.3,0.7,3.1c-1.3,3.1-2.8,6.1-4.5,8.9
		c-3.3,5.4-5.7,11-4.9,17.5c-3.3-3-6.7-6-10-9.1c-15.3-15.5-30.6-30.9-46-46.4c-0.2-0.2-0.5-0.6-0.8-0.6c-1.5-0.1-3.1-0.2-4.6-0.3
		c0.1,1.5-0.4,3.5,0.4,4.5c2.4,3,5.3,5.6,8,8.4c3.7,3.7,7.4,7.5,10.4,10.5c-6,6.3-11.8,11.6-16.6,17.7c-3.3,4.2-6.2,4.1-10.3,1.9
		c-8.9-4.9-16.6-10.8-22.2-19.7c-2.8-4.5-7.9-7.5-12-11.1c-0.6,0.5-1.1,0.9-1.7,1.4c1.5,3,2.6,6.3,4.6,8.9c3,3.8,6.5,7.3,10.3,10.3
		c6.4,5,11.5,11.9,20.2,13.5c1.1,0.2,1.9,2.1,2.9,3.2C1125.5,1305.3,1123.1,1308.3,1120.8,1311.3z"/>
	<path class="st6" d="M1264.5,1358.6c19.1,10.3,38.3,20.6,57.3,30.8c4.9-4.6,6.3-4.1,8.2,2.2c0.6,2.2,1.8,4.3,3.3,6
		c19.2,22,38.7,43.9,57.9,65.9c19.1,21.9,38,44,57,66c7.2,8.4,14.4,8.6,22.1,0.7c8.7-8.8,17.3-17.7,25.7-26.7
		c10-10.7,22.7-17.6,34.9-25.2c12.3-7.7,24.8-15.1,37.3-22.6c3.3-2,6.7-3.8,10-5.7c1.3,0.7,2.7,1.3,4,2c-6.7,4.4-13.4,8.7-20.1,13.1
		c-0.7,0.3-1.3,0.7-2,1c-7,4.2-14,8.4-21.1,12.8c0.9,1.5,1.7,2.7,3,5c-2.8-0.5-4.4-0.9-6.1-0.9c-1.7,0-3.9-0.2-5.1,0.7
		c-10.5,7.6-22,14-30.8,23.9c-7.9,8.9-16.5,17.2-25.2,25.2c-4.7,4.4-6.6,9-6.3,15.4c0.2,6.5,4.1,10.5,7.9,14.6
		c12.3,13.7,25.5,26.5,34.8,42.6c5.8,10.1,14.2,17,25.2,20.3c9.1,2.7,18.5,4.4,27.9,6.4c9.7,2.1,19,5.5,25.4,13.2
		c6,7.1,10.6,15.3,15.8,23c-1.3,0.3-2.7,0.7-4,1c-0.8-1.5-1.6-2.9-2.4-4.4c-7.4-13.6-19-22.4-33.4-27.2c-8.1-2.7-16.6-4.2-25-5.3
		c-14-1.8-24.2-8.8-31.5-20.6c-4.2-6.7-8.3-13.4-13.3-19.4c-9-10.9-18.7-21.4-28.1-32c-5.6-6.3-13.6-6.7-19.6-0.5
		c-14.3,14.8-28.5,29.7-42.6,44.6c-12.9,13.6-25.7,27.3-38.6,40.8c-13.5,14.1-27.2,28.1-40.8,42.2c-1.7-0.3-3.4-0.7-5.1-1
		c0.4-0.5,0.8-1.1,1.2-1.6c19.6-20.6,39.1-41.3,58.7-61.8c17.8-18.6,35.7-37.1,53.6-55.7c3.7-3.9,7.5-7.7,10.9-11.8
		c6.1-7.2,5.9-13.8-0.4-20.9c-12.7-14.4-25.5-28.7-38.1-43.2c-13.9-16-27.8-32.1-41.4-48.3c-9.1-10.9-17.4-22.4-26.6-33.1
		c-5.2-6-10.3-13.1-20.4-10.6c-3.4,0.9-3.4-2.6-4.3-4.9c-0.7-1.9-1.8-4.2-3.4-5.2c-7.3-4.3-14.8-8.4-22.4-12.3
		c-14.6-7.5-29.2-14.8-43.8-22.2c1.3-1.3,2.7-2.7,4-4c4.7,2.3,9.4,4.7,14.1,7C1263.2,1357.9,1263.9,1358.2,1264.5,1358.6z"/>
	<path class="st3" d="M1573.1,1350.5c-1.1-6.7-1.8-13.4,0.5-20.2c0.5-1.4-1.5-4.1-3-5.5c-16.2-15.1-36.8-21-57.3-27.2
		c-2.7-0.8-5.2-2.1-7.9-3.1c-0.8-0.3-1.9-1-2.3-0.7c-5.4,4.3-10.5,0-15.7-0.5c-7.2-0.8-14.5-1.5-21.7-2c-12.3-0.8-24.6-1.6-36.8-1.8
		c-2.7,0-6.1,1.9-8,4c-5.9,6.6-12.6,8.5-20.7,4.8c-3.7-1.7-5.9,0.3-8.2,2.8c-2.1,2.3-4.6,4.2-6.9,6.3c2.1-3.6,4-7.3,6.3-10.8
		c2.1-3.1,5.4-4.1,8.8-2.4c8.2,4.2,14.5,1.6,19.7-5.2c1.3-1.7,2.8-3.3,4.1-5.1c3.1-4.1,6.8-5.7,11.7-3.1c1,0.5,2.2,0.8,3.3,1.1
		c8.5,2.3,8.4,1.7,10.6-6.8c3.5-13.9,7.8-27.7,15.8-39.9c1.7-2.6,0.9-3.8-0.8-5.4c-2.3-2.2-4.6-4.4-6.5-6.8c-0.8-1-0.7-2.6-1.1-3.9
		c0.5-0.2,1-0.4,1.5-0.6c0.7,1.2,1.3,2.4,2.1,3.5c1.8,2.3,3.5,4.9,5.7,6.8c3.3,2.7,7.3,4.4,8,9.6c0.2,1.5,3.1,2.8,4.9,4
		c15.3,10,30.6,19.7,45.7,29.9c2.7,1.8,5.2,5,6.2,8c4.2,12.7,13.8,20.6,23.8,28.2c6.9,5.2,13.9,10.4,20.7,15.9
		c1.3,1,2.6,3.4,2.3,4.8C1576.8,1336.3,1574.9,1343.4,1573.1,1350.5z"/>
	<path class="st14" d="M1214.4,1275.7c2.6-0.6,4.7-1.4,6.9-1.5c7-0.2,14-0.5,21,0.1c3.8,0.4,8.1,1.8,10.8,4.2
		c9.8,8.8,19.1,18.2,28.6,27.3c1.7,1.6,3.3,3.3,5,5c6.5,6.5,6.5,6.9-1,12.7c-8.7,6.8-24.2,6.2-35.1-0.7
		c-10.5-6.7-17.9-15.6-20.5-27.9c-1.6-7.6-5.7-12.6-12.6-15.7c-0.8-0.3-1.4-0.9-2.1-1.4C1215.3,1277.7,1215.2,1277.3,1214.4,1275.7z
		"/>
	<path class="st14" d="M1262.5,1357.6c-4.7-2.3-9.4-4.7-14.1-7c-1.5-1.1-2.9-2.3-4.4-3.2c-6.9-4-13.8-7.9-20.7-11.9
		c-4.9-5.3-9.7-10.6-14.6-15.7c-3.1-3.2-6.3-6.2-9.5-9.4c3.4-2.4,3.6-5.5,2.1-9.4c-1.2,0.9-2.1,1.6-3.1,2.3
		c0.4-7.8,5.9-12.7,10.5-18.1c0.9-1.1,5-0.9,6.4,0.2c3.9,3.3,7.6,6.9,10.4,11.1c3.1,4.9,4.6,10.8,7.7,15.7
		c7.1,11.2,25.6,22.5,44.8,22.3C1275.2,1344,1268.3,1350.4,1262.5,1357.6z"/>
	<path class="st14" d="M1259.2,1275c1.7-0.3,3.1-0.8,4.5-0.8c10.6-0.4,21.3-0.7,31.9-1.1c9.6-0.3,19.3-0.8,28.9-1
		c5.8-0.1,6.5,1.2,6,6.9c-0.7,7.8-4.2,12.8-11.7,15.9c-4.5,1.8-8.5,5.1-12.3,8.3c-1.8,1.6-2.5,4.5-3.9,6.7c-1.4,2.2-2.8,4.6-4.8,6
		c-0.7,0.5-3.5-1.7-5-3c-4.9-4.3-9.9-8.6-14.2-13.3c-6.4-7-12.4-14.4-18.5-21.7C1259.6,1277.3,1259.6,1276.4,1259.2,1275z"/>
	<path class="st3" d="M1678.7,1332.4c-1.1-0.3-2.2-0.9-3.3-0.9c-15.5-0.7-31-1.6-46.5-2c-10-0.3-20,0-29.9-0.1c-3,0-6.1-0.3-8.9-1
		c-1.9-0.5-4.1-1.8-4.8-3.4c-0.4-0.9,1.4-3.7,2.9-4.6c8.1-4.7,16.7-7.5,26.3-5c-2.8,0.8-5.6,1.6-8.4,2.5c0,0.6-0.1,1.3-0.1,1.9
		c2.1,0.6,4.3,1.1,6.4,1.7c-0.6,1.1-1.1,2.2-2.1,3.9c2.8-0.8,5-1.4,7.1-2c1.4,0.8,2.8,2.4,4.2,2.4c1.9,0,4.1-0.8,5.5-2
		c0.6-0.5-0.3-2.9-0.6-4.4c-0.3-0.3-0.7-0.7-1-1c0-0.7,0-1.3,0-2c7.6,1.2,14-2.3,20.5-5.3c8.5-3.9,16.9-8,25.4-11.8
		c3.8-1.7,6.3,0.3,8.2,3.6c3.7,6.5,7.5,13,11.2,19.5C1686.7,1325.7,1682.7,1329.1,1678.7,1332.4z M1587.2,1324.4
		c7.6,3.4,14.5,0,15.3-7.7C1597.2,1319.3,1592.7,1321.6,1587.2,1324.4z"/>
	<path class="st3" d="M1530.8,1226.9c3.8,0.4,7.8,0.2,11.4,1.2c12.4,3.4,24.7,7,37,11c5.1,1.6,9.8,4.2,14.7,6.4
		c2.6,1.2,2.3,3,0.6,4.8c-3.4,3.3-7.5,4-12,3.7c-4.8-0.3-9.6,0.1-14.4-0.3c-2.6-0.2-5.5-0.6-7.6-2c-8.7-5.7-17.1-11.6-25.6-17.7
		c-1.9-1.3-3.2-3.4-4.8-5.2C1530.2,1228.2,1530.5,1227.5,1530.8,1226.9z"/>
	<path class="st3" d="M1669.6,1350.5c-11-2.5-22-5.1-33-7.5c-13.4-2.9-26-9.9-40.3-7.6c-1.9,0.3-4-0.2-6-0.4c-6.7-1-7.9,0-9.9,6.6
		c-0.8,2.5-2.8,4.7-4.2,7c1.1-5,1.9-10.1,3.4-15c0.9-3,3.3-4.3,6.8-3.1c2.1,0.8,4.6,1,6.9,1c26-0.6,51.8,0.9,77.4,4.9
		c1.6,0.3,3.3,0.1,5,0.2C1673.6,1341.2,1671.6,1345.9,1669.6,1350.5z"/>
	<path class="st13" d="M1669.6,1350.5c2-4.7,4-9.4,6-14.1c1-1.3,2-2.7,3-4c4-3.3,8-6.7,12.1-10c0.7-0.7,1.3-1.3,2-2
		c4-3.3,8.1-6.7,12.1-10c1-0.7,2-1.3,3-2c1.6-0.2,3.5,0.1,4.8-0.6c12.5-6.7,24.8-13.7,37.3-20.4c1.5-0.8,3.6-0.4,5.4-0.5
		c-0.9,1.5-1.5,3.6-2.9,4.5c-5.8,3.6-11.8,7-17.8,10.2c-6.6,3.6-13.3,7-20,10.5c-2.6,1.4-4.6,2.8-4.5,6.4c0.1,3-2,4-5.3,3.4
		c-1.9-0.4-4.1,0.5-7.6,1c3.5,3.9,5.9,6.5,8.3,9.2c-0.2,0.3-0.4,0.6-0.5,0.9c-1.6-1.1-3.1-2.2-4.7-3.3c-2.1-1.5-3.3-5.2-7-2.5
		c-3.7,2.7-6.6,5.8-5.3,10.9c0.3,1.1,1,2,1.6,3.4c-2.4,1.3-4.5,3.3-6.8,3.5c-5.8,0.7-7.8,4.3-9,9.2c-0.5,1.9-1.6,3.7-2.4,5.5
		c-3,4-6,8-9,12.1c-1-0.7-2-1.3-3-2C1662.9,1363.3,1666.3,1356.9,1669.6,1350.5z"/>
	<path class="st15" d="M1223.3,1335.5c6.9,4,13.8,7.9,20.7,11.9c1.6,0.9,2.9,2.1,4.4,3.2c-1.3,1.3-2.7,2.7-4,4
		c-9-5.1-18.5-9.5-26.8-15.5c-7.6-5.6-14.5-12.5-20.7-19.7c-5.2-5.9-14.5-4.5-18.7,1.8c-7.9,11.8-16.8,22.9-25.3,34.3
		c-1-0.7-2-1.3-3-2c10.9-15.6,19.9-32.7,36.3-44.6c-2.1-2-4.6-4.3-7.1-6.7c2-0.7,4-1.3,6-2c3.3,3,6.7,6,10,9.1
		C1204.5,1318.1,1213.9,1326.8,1223.3,1335.5z"/>
	<path class="st14" d="M1432.3,1267c-3.3,4.6-6.2,8.1-8.4,12c-5.5,9.3-14.1,11.4-23.9,11.2c-4.8-0.1-5.9-1.8-4.2-6.3
		c0.2-0.5,0.3-0.9,0.5-1.4c5.8-14.7,10.2-17.4,26-16.2C1425,1266.5,1427.8,1266.6,1432.3,1267z"/>
	<path class="st3" d="M1704.8,1310.3c-4,3.3-8.1,6.7-12.1,10c-3.2-5.8-6.2-11.7-9.6-17.4c-5.5-9.5-11.7-18.7-16.8-28.4
		c-5.2-9.9-9.5-20.2-14.1-30.4c-0.4-0.8,0-1.9,0-3.8c1.3,1.2,2.3,1.8,2.7,2.6c2.8,5.8,5.5,11.8,8.3,17.6c1,2.1,2,4.2,3.2,6.2
		c5,8.1,10,16.1,15.1,24.1c0.7,1.1,1.4,2.8,2.4,3.1c7.8,1.9,11.1,9.2,16.7,13.7C1701.9,1308.7,1703.4,1309.5,1704.8,1310.3z"/>
	<path class="st15" d="M1612.3,1321.4c-2.1-0.6-4.3-1.1-6.4-1.7c0-0.6,0.1-1.3,0.1-1.9c2.8-0.8,5.6-1.6,8.4-2.5
		c3.7,0.3,7.4,0.7,11,1c0,0.7,0,1.3,0,2C1621,1319.4,1616.7,1320.4,1612.3,1321.4z"/>
	<path class="st16" d="M1198.2,1303.3c0.9-0.7,1.8-1.4,3.1-2.3c1.5,3.9,1.3,7-2.1,9.4C1198.9,1308,1198.5,1305.7,1198.2,1303.3z"/>
	<path class="st17" d="M1152.9,1355.6c8.5-11.4,17.4-22.5,25.3-34.3c4.2-6.4,13.5-7.8,18.7-1.8c6.2,7.1,13.1,14.1,20.7,19.7
		c8.3,6,17.8,10.4,26.8,15.5c14.6,7.4,29.3,14.7,43.8,22.2c7.6,3.9,15.1,8,22.4,12.3c1.6,1,2.7,3.3,3.4,5.2c0.8,2.3,0.9,5.8,4.3,4.9
		c10.1-2.6,15.2,4.6,20.4,10.6c9.2,10.7,17.5,22.3,26.6,33.1c13.6,16.3,27.5,32.3,41.4,48.3c12.6,14.5,25.4,28.8,38.1,43.2
		c6.2,7.1,6.4,13.8,0.4,20.9c-3.4,4.1-7.2,7.9-10.9,11.8c-17.8,18.6-35.8,37.1-53.6,55.7c-19.6,20.5-39.2,41.2-58.7,61.8
		c-0.5,0.5-0.8,1.1-1.2,1.6c-6,6-12.1,12.1-18.1,18.1c-3.1-0.4-6.1-1.1-9.2-1.2c-4.7-0.2-9.3,0-14,0c-11.9,0-23.9-0.1-35.8,0.1
		c-2.8,0-5.6,1.1-8.4,1.7c2,2.5,4.1,4.9,6.1,7.4c-0.4,0.3-0.7,0.7-1.1,1c-6.5-3.7-10.7-10.7-20.3-9.8c-12.2,1.1-24.6-0.7-36.9-0.8
		c-16.1-0.1-32.3,0.5-48.4,0.4c-13.7,0-27.4-0.9-41-0.7c-6,0.1-13.1-1-17.1,5.8c-0.3,0-0.7,0-1,0c-0.6-1.6-1-4.5-1.9-4.6
		c-7-1.1-14.1-1.7-21.2-2.4c-0.3,0-0.7,0-1,0c-3.9-4.8-9.1-3.2-14.1-3c-2,0-4,0-6,0c-1.4-0.4-2.7-1.1-4.1-1.3
		c-8.5-1.1-17.1-2.2-25.6-2.9c-6.8-0.6-13.7-0.6-20.5-0.8c-3.1,0.4-6.2,0.8-10.4,1.3c1.4-2.4,2.3-3.9,3.2-5.5
		c-0.6-0.2-1.3-0.6-1.4-0.5c-6.4,6.7-14.5,1.5-21.6,2.9c-2.5,0.5-5.6,0.3-7.5,1.6c-7.7,5.6-16.5,6.8-25.6,7.2c-5,0-9.9,0.1-14.9,0
		c-10-0.3-20-0.6-29.9-1.3c-21.3-1.5-42.5-3.2-63.8-4.8c1.7-1.8,3.3-3.7,5.1-5.5c38.6-39,77.3-78,116-116.9c17.9-18.1,36-36,53.9-54
		c2.3-2.3,4.5-3.7,8-2.8c4.2,1,7.8-0.7,10.8-3.8c3.6-3.7,7.2-7.6,11.3-10.7c28.7-22.1,57.6-44.1,86.4-66.1
		c6.2-4.7,13.1-8.7,16.1-16.7c2.3-6.1,5.1-12,8-17.9c3.6-7.4,7.5-14.7,12-23.4c1.3,3,1.8,4.3,1.9,4.4c1.2-3.1,2.2-7.1,4.1-10.4
		C1145.7,1365.2,1149.5,1360.5,1152.9,1355.6z M1112.5,1639.8c4.1,5.9,1.4,10.2-2.6,14c-2.7,2.6-5.7,5-8.9,7c-2.3,1.4-2.9,2.2-1.7,5
		c2,4.5,5.2,3.8,7.6,1.9c3.8-3.1,8.5-6.5,9.9-10.8c2-5.8,5.6-9.7,9.6-13.7c3.6-3.6,5.4-7.6,5.7-12.9c0.2-4.1,2.3-8.2,3.6-12.6
		c-1.5-1-4.3-2.7-7.3-4.6c-0.4,1.2-1,2.1-0.9,2.7c2,6.7-1,12.4-3.3,18.3C1120.9,1642.9,1120.9,1642.9,1112.5,1639.8z M1171.4,1595.4
		c-0.3-0.3-0.6-0.5-0.8-0.8c-2.3,3.3-4.3,6.8-6.9,9.8c-2.7,3-5,7.8-10.6,4.4c-0.7-0.4-3.1,0.4-3.3,1c-0.3,1.2,0,3.5,0.8,3.9
		c2.5,1.3,6,3.3,7.9,2.4c3.4-1.6,9.2-0.9,9.1-7.4c-0.1-4.8,2.1-8.2,7.5-9c3.2-0.5,5.6-2.6,5.6-6
		C1177.5,1594.3,1174.5,1594.8,1171.4,1595.4z M1297.9,1614.6c0-0.4,0.1-0.8,0.1-1.2c-5.7-2.1-11.3-4.2-17-6.1
		c-0.7-0.2-1.9,0.8-2.9,1.2c0.5,0.7,0.9,2,1.5,2.1C1285.8,1612,1291.9,1613.3,1297.9,1614.6z"/>
	<path class="st2" d="M1325.9,1687.3c13.6-14.1,27.3-28,40.8-42.2c13-13.5,25.7-27.2,38.6-40.8c14.2-14.9,28.4-29.8,42.6-44.6
		c5.9-6.1,14-5.8,19.6,0.5c9.4,10.7,19,21.1,28.1,32c5,6,9.2,12.8,13.3,19.4c7.4,11.8,17.5,18.9,31.5,20.6c8.4,1.1,17,2.6,25,5.3
		c14.4,4.8,26,13.6,33.4,27.2c0.8,1.5,1.6,2.9,2.4,4.4c6,10.5,11.1,21.7,20.1,30.2c-5.8,0.3-11.6,0.2-17.3,0.8
		c-7.1,0.8-14.2,2.1-21.2,3.4c-3.3,0.6-6.6,1.5-9.6,2.8c-1.1,0.5-1.5,2.6-2.2,4c0,0,0,0,0,0c-2.6-0.8-5.4-2.6-7.9-2.3
		c-8.1,1-16.2,2.3-24,4.4c-9.5,2.5-9.4,2.9-12.3-6.1c0-5.5,0-11,0-16.6c-0.3,0-0.6,0-1,0c-0.7,7.5-1.4,15.1-2.1,22.6
		c-5.1,2.3-10.3,4.4-15.2,7c-1.5,0.8-2.5,2.8-3.2,4.6c-1.8,4.7-3,9.6-5,14.3c-1,2.4-4,4.3-4.2,6.6c-0.4,5.4-3.4,7.8-7.6,10.1
		c-3.7,1.9-4,6.9-1.1,9.3c2.7,2.2,5.5,4.3,8.2,6.5c-2.5,3.4-6.6,3.5-9.9-0.2c-6.1-6.9-14.3-9.8-22.8-9.6
		c-12.6,0.2-25.3,1.9-37.9,3.3c-19.8,2.3-37.1-1-49.4-18.8c-6.4-9.3-14-17.9-21.1-26.8c-4.5-5.6-4.5-6.7,2.1-9.8
		c12.7-6,25.5-11.8,38.3-17.6c1.5-0.7,2.9-1.4,4.1-2.9c-1.9,0.4-3.9,0.5-5.7,1.2c-12.8,5.8-25.6,11.7-38.2,17.8
		c-3.8,1.8-5.9,2.9-9.3-1.6c-4.6-6.2-11-11.1-16.8-16.5c-0.7-0.7-2.2-0.6-3.3-0.9C1325.9,1688,1325.9,1687.6,1325.9,1687.3z
		 M1452.2,1654.2c-1.4-1-3.1-2.4-4.7-3.5c-1.7,3.5-3.3,6.7-4.9,9.8c0.2,0.2,0.5,0.3,0.7,0.5
		C1446.3,1658.7,1449.2,1656.5,1452.2,1654.2z M1499.7,1681.3c-7.1,2.2-8,4.3-4.4,9.2C1496.7,1687.6,1498,1684.8,1499.7,1681.3z
		 M1399.2,1722.9c-0.8,0.2-1.6,0.4-2.4,0.6c0.4,2.5,0.9,5,1.3,7.5c0.8-0.1,1.6-0.3,2.4-0.4C1400,1728.1,1399.6,1725.5,1399.2,1722.9
		z"/>
	<path class="st17" d="M456.4,1474.2c8.7-3.3,17.4-6.8,26.2-9.8c22.3-7.8,44.6-15.4,66.9-23c5.1-1.8,9.8-3.9,13-8.8
		c1.3-2,3.7-3.3,5.9-5.2c-0.6,2.7-1,4.9-1.7,8c1.3-0.8,1.7-0.9,2-1.2c1.7-1.4,3.4-2.8,5.1-4.3c-0.2,2.1-0.3,4.3-0.6,6.4
		c-0.5,3.5-1.2,7-1.7,10.5c-0.5,3.9-1,7.8-1.4,11.6c0.5,0.1,1,0.2,1.6,0.3c0.6-3.8,1.1-7.7,1.8-11.5c0.6-3.5,1.1-7,1.8-10.4
		c0.6-2.9,1.6-5.7,2.6-9.2c1.5,0.3,3.1,0.8,4.6,1c3.8,0.5,7.6,0.7,11.3,1.5c5.1,1.1,10.2,2.6,15.3,3.9c-3.4,4.9-7,9.7-10.2,14.7
		c-3.2,5.1-6.6,10.2-8.7,15.7c-1.1,2.9,0.2,6.9,1,10.3c0.5,2,2.3,3.6,3.3,5.6c6.8,13.2,13.9,26.2,20.1,39.7
		c2.1,4.6,2.2,10.4,2.1,15.6c-0.2,5.8-1.4,11.6-2.8,17.2c-0.8,3.2-3.1,5.9-4.7,8.9c-14.6,7.7-28.4,17-44.4,21.6
		c-3.4,1-6.8,1.6-10.2,2.5c-5.3,1.4-10.6,2.5-15.7,4.4c-6.5,2.5-12.8,5.7-19.1,8.7c-2.5-1.3-4.9-2.9-7.5-3.9
		c-10.8-4.3-21.6-8.6-32.6-12.6c-3.4-1.2-7.2-1.4-12.5-2.4c-3.1-3.7-3.2-3.8-9.2,0c-3.4,2.1-6.4,4.9-9.6,7.2c-1.9,1.3-4,2.3-4.9,2.9
		c0-2.4,0.8-4.9-0.1-6.7c-1.1-2.3-3.5-4.1-5.3-6.1c1.4-0.1,2.3,0.4,2.7,1.1c2.8,4.5,7.1,3.9,11.2,2.9c0.8-0.2,1.9-3.2,1.7-3.3
		c-4.2-2.9-8.3-6.6-13-8c-12-3.5-24.2-6-36.4-8.8c-3.1-0.7-4.1-2.5-3.1-5.5c5-4.7,9.3-9.7,10.6-16.9c1.1-5.8,3-11.5,4.5-17.3
		c1.6-9.6,3.8-18.6,13.8-23.4c5.8-2.8,11.1-6.8,16.7-10C452.2,1484.9,454.8,1480,456.4,1474.2z M426.2,1540.5
		c2.7,8.9,9.5,14.8,15.8,21C436.7,1554.6,431.5,1547.5,426.2,1540.5c-1.1-5.4-2-10.8-3.4-16.2c-2-8.1,3.2-13.3,6.6-19.2
		c0.5,0,1,0,1.4,0.1c3.7,15.5,7.3,31.1,11,46.6c0.5-0.1,0.9-0.2,1.4-0.3c-3.1-13.3-6.1-26.7-9.4-40c-2.2-9.1-2.4-9,5.6-13
		c1.2-0.6,2.4-1.4,4.7-2.8C422.6,1500.6,415.3,1520.8,426.2,1540.5z M518.6,1579c-3.3-1.7-6.4-3.8-9.9-4.9c-1.2-0.4-3.2,2-4.9,3.1
		c0.8,0.9,1.6,1.8,2.3,2.5C511.2,1571.4,514,1581.4,518.6,1579z M503.7,1476c-0.1-0.5-0.1-1-0.2-1.4c-9.3,1.6-18.6,3.2-27.9,4.8
		c0.1,0.4,0.1,0.7,0.2,1.1C485,1479,494.3,1477.5,503.7,1476z M459.9,1511c0.7,2.7,1.5,5.7,2.3,8.7c0.7,0.3,1.4,0.6,2.1,0.8
		c-4.1-8,2.3-7.9,6.4-10.2C467,1510.6,464,1510.7,459.9,1511z"/>
	<path class="st2" d="M1907.9,1405.8c0,2.8,0,5.7-0.1,8.5c-0.2,4.3-2,5.4-5.8,3.4c-3.6-1.8-7.2-3.7-10.4-6.1
		c-5.4-4.1-10.7-3.5-16.3-0.2c1.2,3.8,4,5.5,7.6,6.2c4.3,0.8,8.6,1.4,12.9,2.1c8.8,1.4,12.2,6.1,10.7,14.7
		c-0.6,3.5-1.1,6.9-1.6,10.4c-2.3,11.1-4.6,22.2-7.1,33.8c0.2,0.6,1.7,2.6,1.2,3.2c-3.7,5.2-2,11.1-0.9,16c2,8.8-2.2,15.5-4.9,22.8
		c-0.8,2.1-2.1,4.1-3.3,6.4c-0.8-1-1.5-1.8-2.6-3.1c-0.3,1.4-0.5,2.3-0.6,3.2c-1.2-0.1-2.3-0.4-3.5-0.3c-1.3,0.2-2.7,0.7-3.9,1.2
		c-0.1,0.1,0.2,2.1,0.5,2.1c1.2,0.1,2.4-0.1,3.6-0.3c1.4-0.2,2.8-0.5,4.3-0.7c0.2,1.5,1,3.6,0.4,4.3c-0.8,0.9-2.9,0.8-4.4,1
		c-2.6,0.3-5.8-0.4-7.7,0.9c-3.3,2.2-2.8,7.4,0.9,8.5c8.3,2.5,6.8,8.8,6.7,14.6c-0.1,5.7-0.5,11.3-0.8,17c-1.2,5-3.5,4-6,1
		c-0.9-2.8-3.2-6.2-2.3-8.3c2.7-6.5-1.6-12.2-1.1-18.3c0.1-1.3-1.1-2.6-1.8-3.9c-0.2,0.4-0.4,0.7-0.6,1.1c-2.1-0.5-4.9-0.2-6-1.5
		c-2.2-2.7-3.4-6.3-5.3-9.4c-0.9-1.5-2.6-3.5-3.8-3.4c-1.6,0.1-4.4,2-4.4,3.1c0,7-6.4,12.8-3.3,20.3c0.3,0.7-0.4,1.9-0.7,2.8
		c-1.1,2.6-2.2,5.2-3.4,7.7c-0.6,1.3-1.4,2.5-2.2,3.8c-0.6-0.1-1.2-0.2-1.7-0.3c-0.1-2.5-0.8-5.1-0.3-7.4c0.7-3.2-0.1-5.3-2.6-6.8
		c-2.4-1.4-4.9-2.7-7.5-3.7c-6-2.4-12.5-3.9-13.2-12.3c-0.3-3.4-3.4-4.1-6.6-2.8c0.5,1.1,0.9,1.9,1.3,2.9c-8.5,1.2-9.4,2.9-4,9.2
		c3.9,4.6,4.5,12.4,12.5,13c0.1,0,0.2,0.2,0.4,0.3c3.2,2.9,6.5,5.8,9.7,8.7c3.4,3,7.9,5.8,1.9,11.1c2.2-0.2,3.6-0.8,5.1-1.3
		c2.2-0.8,4.5-2.2,6.7-2c4.8,0.4,9.5,1.7,14.3,2.6c4.5,3.4,9.3,6.5,13.5,10.2c4.1,3.5,4.8,9.1,1.4,12.8c-3.8,4.1-1.7,6.4,1.2,9.2
		c1.7,2.9,3.5,5.8,5.2,8.7c-0.4,0.3-0.7,0.5-1.1,0.8c-1.4-1.6-2.9-3.2-4.3-4.8c-0.3,0.2-0.6,0.4-0.9,0.5c3,5.3,6,10.6,9,15.9
		c-7.7,1.9-15.3,3.8-23,5.7c-2.4,0.6-4.8,0.9-7,1.8c-2.2,0.9-4.1,2.3-6.2,3.6c-4.6-6.8-4.2-10.9,2-19.1c8.1-4.7,9.6-17.1,2.1-24.3
		c-2.7-2.6-6.9-3.8-9.3-6.5c-2.4-2.7-3.3-6.5-5.5-11.2c-2.1,5.1-1.7,8.8,0.9,11.7c3.2,3.6,6.9,6.7,10.4,10.1
		c6.7,6.4,6.8,12.2,0.5,19.1c0,0,0-0.1,0-0.1c-1.3-0.9-2.6-2.5-3.9-2.5c-2.3,0.1-4.5,1-6.7,1.8c-12.2,4.9-24.4,9.8-36.6,14.8
		c-2-17.4-5.1-34.7-5.7-52.2c-0.6-18.1,0.9-36.4,1.9-54.6c0.4-8.2,0.9-16.4,2.6-24.4c6.1-28.1,12.9-56,19.4-84
		c0.4-1.1,0.8-2.2,1.1-3.3c3.5-12,6.8-24.1,10.6-36c2.1-6.8,8.7-9.5,14.2-6.3c10,5.8,20,11.4,29.8,17.6c6.4,4.1,13,6.7,20.7,6
		C1898.5,1403.8,1903.2,1404.8,1907.9,1405.8z M1875.7,1522.1c3.4-3.7,4.3-7.6,2.5-11.9c-1.5-3.7-3.7-3.7-6.7-1.1
		c-2.9,2.5-1.2,5.1-1.4,7.7c-0.5,5.5,2.1,8.4,8.4,8.7C1877.5,1524.2,1876.7,1523.3,1875.7,1522.1z M1814.7,1502.1
		c-2.9,5.7-5.1,11.3-5.4,17.6c-0.1,3.8-0.8,7.5-1.2,11.3c-0.1,1.2-0.4,3,0.2,3.3c1.2,0.7,2.9,1,4.2,0.6c0.8-0.3,1.5-2.1,1.5-3.2
		C1814.3,1522.2,1814.5,1512.6,1814.7,1502.1z M1857.3,1514.1c0.3-0.1,0.5-0.3,0.8-0.4c-5-10.1-10.2-20.1-14.8-30.4
		c-6.8-15.1-17.9-28.4-20.2-45.5c0.4,5.1,0.7,10.6,2.9,15c9.5,19.5,19.5,38.8,29.4,58.1C1856,1512.1,1856.7,1513.1,1857.3,1514.1z
		 M1842.2,1534.1c-2.1-8.7-4-16.6-6.1-24.4c-0.2-0.9-1.8-1.5-2.7-2.3c-0.2,1.1-0.8,2.3-0.7,3.4c0.2,3.1,0.3,6.3,1.2,9.1
		C1835.7,1525.1,1837.4,1530.4,1842.2,1534.1z M1876,1532.4c-2-1.6-3.7-3.4-4.1-3.1c-2.6,1.6-4.9,3.7-7.3,5.6c1,1.1,2.7,3.3,3,3.1
		C1870.3,1536.5,1872.7,1534.6,1876,1532.4z M1803.4,1523.3c0-1.7,0.1-2.7,0-3.6c-0.3-1.7-0.8-3.3-1.1-5c-0.7,0.2-2.1,0.4-2.1,0.6
		c0.1,1.9,0.2,3.8,0.6,5.7C1801,1521.6,1802.1,1522.1,1803.4,1523.3z"/>
	<path class="st17" d="M179.9,1485.3c12.9,1.4,25.9,2.7,38.8,4.2c21.7,2.5,43.5,5,65.2,7.8c14.9,1.9,29.8,4.2,44.6,6.8
		c8.2,1.4,15.5,0.3,22.4-4.4c7.9-5.4,15.9-10.5,24.1-15.4c2.6-1.6,5.9-2.6,8.9-2.9c16.1-1.6,32.2-2.7,48.3-4.2
		c5.6-0.5,11.2-2,16.8-2.9c1.7-0.3,3.6,0,5.4,0c-3.3,7.3-8.7,12.3-15.8,15.8c-3.6,1.8-6.8,4.2-10.4,6c-10.7,5.2-13.7,14.6-14,25.5
		c-2.4,7-3.8,14.6-7.4,21c-3.4,6.1-9,10.9-13.7,16.2c-11.6-1.8-23.2-4-34.9-5.4c-15.3-1.9-30.7-3.2-46.1-4.7c-2.6-0.3-5.3-0.2-8-0.4
		c-10.3-0.6-20.5-1.3-30.7-1.9c-4.1-0.2-8.3-0.4-12.4-0.5c-9.4-0.2-18.9-0.4-28.3-0.3c-11.4,0.1-22.8,0.5-34.2,0.6
		c-4.5,0.1-8.9-0.3-13.4-0.4c-0.9-8.6-2.1-17.2-2.8-25.8C181.3,1508.2,180.7,1496.8,179.9,1485.3z"/>
	<path class="st5" d="M53.3,1500.3c2.6-6.4,5.2-12.8,7.7-19.2c0.5,0,1.1,0,1.6,0.1c0.6,4.9,0.7,10,1.9,14.8c0.9,3.7,3.2,7,4.9,10.4
		c8,4.7,16.1,9.4,24.1,14.1c0.3-0.5,0.6-1,0.9-1.6c-3.7-1.9-7.5-3.5-11-5.7c-4.5-2.8-8.6-6-12.9-9c-4.4-6.4-4.7-13.9-6.5-21.1
		c-2.8-10.8,1.5-19.5,4.9-28.7c2-5.3,5.1-10.1,7.5-15.3c1.7-3.7,3.6-4.2,6.8-1.7c14.4,11.1,29.4,21.6,43.3,33.3
		c11.9,9.9,24.3,17,40.4,14.6c3.6-0.5,7.3-0.1,11,0c1.2,14.8,2.7,29.6,3.7,44.4c0.8,12.8,0.8,25.6,1.4,38.4
		c0.3,6.3,1.1,12.6,1.6,18.9c0.8,10.6,1.5,21.3,2.3,31.9c-4.2-0.7-8.5-1.3-12.7-2c-0.3,0.7-0.5,1.3-0.8,2c3.8,2.3,7.6,4.7,11.4,7
		c-3.1-0.6-6.3-1-9.4-1.8c-4.1-1-8.2-2.6-12.4-3.2c-6-0.9-11.1-2.4-14.6-8.1c-11.9-19.3-24.4-38.2-36.3-57.4
		c-5.4-8.7-12.9-15.3-20.6-21.7c-7.4-6.2-15.3-11.9-23-17.8c-0.9-0.7-2.2-1.4-2.5-2.4C64.2,1506.8,57.7,1504.6,53.3,1500.3z"/>
	<path class="st17" d="M526.7,1597.8c3.8-1.7,7.5-3.7,11.5-4.9c9.9-3.2,19.9-6.2,30-9c12.7-3.5,23.9-9.9,35.1-16.6
		c1.8-1.1,3.9-1.8,5.9-2.6c6.6,3.4,13.2,6.8,19.9,10.2c3.4,1.7,7.2,3,10.2,5.2c22.3,16.5,44.9,32.7,66.5,50
		c22,17.6,45.6,32.8,69.5,47.6c5.5,3.4,11.2,6.4,16.9,9.6c1.3,1.3,2.6,2.5,3.8,3.9c1.5,1.7,2.9,3.4,4.3,5.2h0
		c-7.6-1-15.2-2-22.8-2.9c-8.6-1.1-17.2-2.7-25.8-3c-22.1-0.7-44.2-0.7-66.2-1.2c-3.9-0.1-7.8-1-11.7-1.5c0.1-0.8,0.1-1.6,0.2-2.4
		c20.2,0,40.3,0,60.5,0c0-0.5,0.1-1,0.1-1.6c-4.9-1.8-9.7-3.8-14.7-5.3c-16.4-4.8-33.6-6.9-49-15.5c-7-4-15.2-6.1-22.7-9.2
		c-7.7-3.2-15.2-6.8-22.9-10c-5.9-2.5-12-4.7-18-7c-0.9-0.4-1.9-0.8-2.6-1.5c-5.1-5.5-11.8-7.3-18.7-9c-3-0.8-6-2.1-8.9-3.3
		c-8.5-3.5-16.9-7-25.4-10.5c-7.1-2.9-14.3-5.6-21.2-8.9C528.6,1602.7,527.9,1599.8,526.7,1597.8z"/>
	<path class="st14" d="M1241.4,1712.4c-2-2.5-4.1-4.9-6.1-7.4c2.8-0.6,5.6-1.7,8.4-1.7c11.9-0.2,23.9-0.1,35.8-0.1
		c4.7,0,9.3-0.2,14,0c3.1,0.1,6.2,0.8,9.2,1.2c-4.3,4.8-8.6,9.8-13,14.5c-9.5,10-19.3,19.8-28.8,29.9c-7,7.5-13.7,15.3-20.5,22.9
		c-1.6,1.5-3.3,2.9-4.6,4.5c-3.9,4.8-7.6,9.7-11.4,14.6c1.7-4,3.5-8,5.4-12.6c-2.8-0.4-6-1.2-9.2-1.2c-17.1,0.1-34.3,0.6-51.4,0.7
		c-5,0-10.4,0.4-14.9-1.4c-4.9-1.9-9.4-5.6-13.3-9.3c-6.5-6.1-12.2-13.3-18.8-19.3c-5.4-4.9-11.5-9.1-17.7-12.9
		c-3.8-2.3-6.7-4.8-7.6-9.3c-1.4-7.5-5.4-12.2-13.4-13.5c-2.5-0.4-4.7-2.4-7-3.6c4-6.8,11-5.7,17.1-5.8c13.7-0.2,27.4,0.7,41,0.7
		c16.1,0.1,32.3-0.5,48.4-0.4c12.3,0.1,24.7,1.9,36.9,0.8c9.6-0.9,13.8,6.1,20.3,9.8c3.5,2.7,6.9,5.4,10.4,8.1
		c0.4-0.5,0.8-1,1.1-1.5C1250.2,1715.3,1245,1714.8,1241.4,1712.4z"/>
	<path class="st5" d="M953.9,1704.4c-0.7,9.4-1.3,18.8-2,28.1c-0.7,1.6-1.7,3.2-1.9,4.9c-0.7,5.8-2.7,7.4-8.5,6.8
		c-3.2-0.4-6.3-0.6-9.5-0.6c-22.9-0.4-45.8-0.5-68.7-1.1c-9-0.2-18-1.5-27-2.2c-4.4-0.4-7.3-2.3-9.1-6.6c-1.3-3-3.9-5.5-6-8.2
		c-0.7,0.7-1.3,1.3-2,2c0.4,2.1,0.7,4.3,1.3,6.3c1,3.4-0.3,4.8-3.6,4.7c-1.5,0-3-0.2-4.5-0.4c-11.4-1.5-22.7-3-34.1-4.7
		c-4.5-0.7-8.9-1.8-14.7-3c2.6-2.4,4.3-3.9,5.9-5.4c3.1-2.9,6.3-5.7,9.4-8.6c6.2-4.9,12.4-9.8,18.6-14.7c1.6-1.3,3.1-2.9,4.6-4.4
		c2-0.3,4-0.6,5.9-1c1.3,0,2.7,0,4,0.1c17.1,1.3,34.3,2.8,51.4,4c8.1,0.6,16.3,0.7,24.4,1.2c8.8,0.5,17.6,1.3,26.4,1.7
		c2.4,0.1,4.9-0.6,7.4-0.9c2.7-0.3,5.4-0.7,8-1c-1.2,0.8-2.4,1.6-3.9,2.6c2.6,1.5,3.9,2.5,5.4,3c1.6,0.5,3.4,1,5.1,0.8
		c3.2-0.4,6.3-1.2,9.5-1.8C948.5,1705.4,951.2,1704.9,953.9,1704.4z"/>
	<path class="st14" d="M1044.4,1760.7c-2.9-0.7-5.7-1.9-8.6-1.9c-25.1-0.2-50.2-0.1-75.2-0.1c-6.6,0-6.3-0.1-4.9-6.4
		c0.6-2.7-1.1-5.8-1.7-8.7c0.7-11.7,1.3-23.5,2.1-35.2c0.1-1.7,1.2-3.4,1.9-5c6.3,1.7,12.7,3.4,19,5c3.1,2.7,6.1,5.7,9.4,8.1
		c6,4.4,7.5,3.7,9.1-3.7c1.2-5.2,0.4-6.3-4.9-6.4c-1.5,0-3-0.1-4.5-0.1c1.4-4.5,5.4-3.4,8.4-3.4c8,0,16,0.5,23.9,0.9
		c3.2,0.1,4.9-0.9,3.9-4.4c2,0,4,0,6,0c1.7,0.7,3.3,1.6,5.1,1.9c11.4,2,22.9,3.7,34.4,5.8c2.1,0.4,3.9,2.2,5.8,3.4
		c-3.1,3.2-4.9,6.7-2,11c-2.2,9.8-4.4,19.6-6.9,31c-3.1-3.4-5-5.6-7-7.7c-2.1-2.2-4-4.8-6.6-6.3c-6.7-4.1-13.6-7.7-20.6-11.4
		c-2.2-1.2-4.7-1.7-6.8-2.9c-4.7-2.7-9.1-5.7-13.7-8.6c-1.5-0.9-3.2-1.6-4.8-2.4c-0.3,0.6-0.7,1.1-1,1.7c2.2,1.6,4.2,3.5,6.5,4.7
		c13.8,7.1,27.6,14,41.4,21c4,2,5.5,5.7,3.2,8.4C1051.7,1753,1048,1756.8,1044.4,1760.7z"/>
	<path class="st2" d="M1275.6,1741.6c9.7-3.7,19.3-7.6,29-10.9c13.9-4.7,28.3-8.2,41.1-15.8c0.9-0.5,3.6,0.4,4.5,1.4
		c9.6,12.2,19,24.5,28.3,37c3.6,4.8,6.5,10.1,10,15.5c-0.2,0.1-1.1,0.8-2.1,0.9c-7.3,0.8-14.6,1.7-21.9,2
		c-15.8,0.8-31.7,1.6-47.5,1.9c-19.7,0.3-39.3,0.1-59,0.2c-4.5,0-9,0.6-13.5,1c0.7-1,1.3-2,2-3
		C1256.1,1761.7,1265.9,1751.6,1275.6,1741.6z"/>
	<path class="st6" d="M808.1,1696.3c-2,0.3-4,0.6-5.9,1c0-0.3,0-0.6,0-0.9c0.4-1.3,0.7-2.6,1.1-4c2.2-1.8,4.6-3.3,6.6-5.3
		c32-31.9,64-63.8,95.8-95.8c13.4-13.5,26.6-27.2,39.9-40.9c11.2-11.5,22.5-22.9,33.5-34.6c3.6-3.8,7.5-5.6,12.8-5.6
		c2.7,0,5.8-1.4,7.9-3.1c7.4-5.7,14.2-12.1,21.6-17.8c25.6-19.6,51.4-39,76.9-58.7c5.2-4,10.5-8.7,13.8-14.2
		c4.8-7.9,7.8-17,11.8-25.4c6.6-13.9,16.1-25.7,25.9-37.3c1,0.7,2,1.3,3,2c-3.5,4.9-7.2,9.7-10.3,14.9c-2,3.4-2.9,7.3-4.1,10.4
		c-0.1-0.1-0.6-1.4-1.9-4.4c-4.4,8.6-8.3,15.9-12,23.4c-2.9,5.9-5.7,11.8-8,17.9c-3,8-9.9,11.9-16.1,16.7
		c-28.8,22.1-57.7,44-86.4,66.1c-4.1,3.1-7.6,7-11.3,10.7c-3,3.1-6.6,4.8-10.8,3.8c-3.5-0.8-5.7,0.5-8,2.8c-17.9,18-36,36-53.9,54
		c-38.7,38.9-77.3,77.9-116,116.9c-1.8,1.8-3.4,3.7-5.1,5.5C808.8,1695,808.4,1695.6,808.1,1696.3z"/>
	<path class="st5" d="M949.9,1750.6c-0.1,0.1-0.3,0.2-0.3,0.4c-2.4,9.3-9.1,10.3-17.4,9.8c-11-0.7-22-0.8-33-0.8
		c-9.3,0-18.6,0.9-27.9,0.4c-10.1-0.5-20.3-1.7-30.3-3.4c-2.4-0.4-5-3.4-6.3-5.8c-4.8-8.4-9.1-17.1-13.5-25.7c2,2.7,4.6,5.2,6,8.2
		c1.9,4.2,4.7,6.2,9.1,6.6c9,0.7,18,2,27,2.2c22.9,0.6,45.8,0.7,68.7,1.1c3.2,0.1,6.3,0.3,9.5,0.6c5.9,0.7,7.8-1,8.5-6.8
		c0.2-1.7,1.3-3.3,1.9-4.9C951.2,1738.5,950.6,1744.6,949.9,1750.6z"/>
	<path class="st14" d="M1067.5,1754.6c-0.3-0.3-0.7-0.7-1-1c2-10.4,4-20.8,6-31.2c0.6-4,1.3-8,1.9-12c3.7,1.4,7.3,3,11.1,4.2
		c5,1.6,7.9,4.9,8.9,9.8c1.1,5.1,3.1,9.1,8.2,11.6c5,2.5,9.4,6.3,14,9.5c1.7,3.9,3.4,7.8,5.4,12.3c-2.1,0.3-3.9,0.7-5.8,0.7
		c-10.1,0.1-20.3-0.2-30.4,0.2c-2.5,0.1-4.9,1.9-7.4,2.9C1074.9,1759.3,1071.2,1757,1067.5,1754.6z"/>
	<path class="st5" d="M819.2,1727.5c1.9,3.9,4,7.7,5.5,11.7c1.3,3.4-0.1,5.9-3.6,7.7c-10.5,5.4-21,8.2-33.1,5
		c-12.5-3.3-25.5-4.7-38.2-7c-3.5-0.6-4-2.5-1.9-5.3c8.6-6.7,17.3-13.5,26-20.2c1.6-1.2,3.4-1.9,5.2-2.9c-3.1,2.9-6.3,5.7-9.4,8.6
		c-1.7,1.5-3.3,3-5.9,5.4c5.8,1.2,10.2,2.3,14.7,3c11.3,1.7,22.7,3.2,34.1,4.7c1.5,0.2,3,0.4,4.5,0.4c3.3,0.1,4.6-1.3,3.6-4.7
		C819.9,1731.8,819.6,1729.6,819.2,1727.5z"/>
	<path class="st2" d="M1325.9,1689.3c6.1,6,12.2,11.9,18.3,17.9c2.9,2.9,2,5-1.3,6.5c-7.6,3.3-15.2,6.8-23.1,9.7
		c-13.3,4.9-26.8,9.5-40.2,14.1c13-13.8,26-27.7,39.1-41.5C1320.9,1693.6,1323.4,1691.5,1325.9,1689.3z M1315.9,1705.3
		c-0.4,0.7-0.8,1.3-1.2,2c3.4,1.9,6.8,3.8,10.2,5.7c0.3-0.4,0.5-0.8,0.8-1.2C1322.4,1709.7,1319.1,1707.5,1315.9,1705.3z"/>
	<path class="st18" d="M792.1,1687.3c-5.6-3.2-11.4-6.2-16.9-9.6c-23.9-14.8-47.5-30-69.5-47.6c-21.6-17.3-44.2-33.5-66.5-50
		c-3-2.2-6.8-3.5-10.2-5.2c-6.6-3.4-13.3-6.8-19.9-10.2c0-1,0-2,0-3c1.6-3,3.9-5.7,4.7-8.9c1.5-5.6,2.6-11.4,2.8-17.2
		c0.2-5.2,0-11-2.1-15.6c-6.1-13.5-13.3-26.5-20.1-39.7c-1-1.9-2.8-3.6-3.3-5.6c-0.8-3.4-2.1-7.4-1-10.3c2.1-5.5,5.5-10.6,8.7-15.7
		c3.2-5,6.8-9.8,10.2-14.7c1,0.3,2,0.7,3,1c-5.8,8.7-11.7,17.4-17.5,26.2c-3.7,5.6-3.6,10.7,1.3,15.8c1.7,1.7,2.3,4.4,3.4,6.6
		c5.1,10.1,10,20.4,15.4,30.4c3,5.4,5.2,10.8,4.4,17.1c-1.1,8.4-2.2,16.9-3.5,25.3c-1.2,7.4-0.5,8.9,6.1,12.4
		c8.8,4.7,18.1,8.7,26.2,14.4c15.2,10.6,29.8,22.1,44.6,33.3c13.7,10.4,26.9,21.6,41.1,31.3c19.8,13.4,40.3,25.8,60.5,38.6
		C793.4,1686.6,792.8,1687,792.1,1687.3z"/>
	<path class="st19" d="M1325.9,1689.3c-2.4,2.2-4.9,4.3-7.2,6.7c-13.1,13.8-26,27.7-39.1,41.5c-1.3,1.3-2.7,2.7-4,4
		c-9.7,10-19.4,20.1-29.1,30.1c-2,0-4,0-6,0c6.8-7.6,13.5-15.4,20.5-22.9c9.5-10.1,19.3-19.9,28.8-29.9c4.5-4.7,8.7-9.7,13-14.5
		c6-6,12.1-12.1,18.1-18.1c1.7,0.3,3.4,0.7,5.1,1c0,0.3,0,0.7,0,1C1325.9,1688.6,1325.9,1689,1325.9,1689.3z"/>
	<path class="st17" d="M977,1708.4c-6.3-1.7-12.7-3.4-19-5c4.4-4.5,9.1-7.8,16-7c2.9,0.4,6.1-1.3,9.1-2.1c5.6,0.5,11.2,0.9,16.7,1.7
		c7.5,1,15,2.2,22.5,3.4c1,3.5-0.7,4.6-3.9,4.4c-8-0.3-16-0.9-23.9-0.9c-3,0-7-1.1-8.4,3.4C983.1,1707,980,1707.7,977,1708.4z"/>
	<path class="st5" d="M214.5,1631.2c3.7-4.3,6.5-2.5,9.4,0c2,1.7,4.5,3,6.5,4.7c1.7,1.5,3.7,3.2,4.4,5.1c1.4,4.1,4.2,6,7.9,7.7
		c6.6,3.1,13.1,6.7,19.4,10.4c1,0.6,1.2,2.5,1.8,3.9c-1.6,0.2-3.7,1.2-4.7,0.5c-14.8-9.5-29.2-19.3-44.1-28.6
		c-4.5-2.8-10-4.3-15-6.1c-3.2-1.2-8.6-1.2-7.6-5.4c1.2-4.5,5.8-1.6,9-0.9C206.7,1623.5,211.5,1625.2,214.5,1631.2z"/>
	<path class="st17" d="M1240.4,1771.7c2,0,4,0,6,0c-0.7,1-1.3,2-2,3c-9.9,9.9-17.3,21.5-23.9,33.7c-2.8,5.2-5.9,10.3-9,15.5
		c-0.5,0.8-1.4,1.3-2.1,1.9c-0.4-0.2-0.9-0.4-1.3-0.6c1.8-4.6,3.3-9.4,5.4-13.8c3.4-7,7.1-13.8,10.7-20.6c3.8-4.9,7.6-9.8,11.4-14.6
		C1237.1,1774.6,1238.8,1773.2,1240.4,1771.7z"/>
	<path class="st3" d="M808.1,1696.3c0.3-0.7,0.7-1.3,1-2c21.3,1.6,42.5,3.3,63.8,4.8c10,0.7,20,0.9,29.9,1.3c5,0.2,9.9,0,14.9,0
		c1.3,0.7,2.7,1.3,4,2c-2.5,0.3-4.9,1.1-7.4,0.9c-8.8-0.4-17.6-1.2-26.4-1.7c-8.1-0.5-16.3-0.6-24.4-1.2c-17.1-1.2-34.3-2.7-51.4-4
		C810.8,1696.3,809.4,1696.3,808.1,1696.3z"/>
	<path class="st17" d="M953.9,1704.4c-2.7,0.5-5.4,1-8.1,1.5c-3.2,0.6-6.3,1.4-9.5,1.8c-1.7,0.2-3.5-0.3-5.1-0.8
		c-1.5-0.5-2.8-1.5-5.4-3c1.5-1,2.7-1.8,3.9-2.6c4.4-1.7,9-3.3,13.3-5.3c3.8-1.7,15.2-2.7,19.1-0.9
		C959.4,1698.3,956.6,1701.3,953.9,1704.4z"/>
	<path class="st8" d="M1842.5,1669.2c-9.2,0.8-17.1,4.4-24,10.9c-0.7-5.1,2.3-7.9,6.4-9.4c3.6-1.3,7.4-1.8,11.2-2.6
		c3.4-0.7,6.7-1.5,7.6-5.5c1-4.2,3.2-8.2-1-12.5c-6.1-6.2-3.7-19.6,3.8-24.3c0,0,0,0.1,0,0.1c0.3,0.3,0.7,0.7,1,1
		c-6.2,8.2-6.7,12.2-2,19.1c0.5,1.2,0.7,2.6,1.4,3.6C1852.5,1657.4,1851,1664.3,1842.5,1669.2z"/>
	<path class="st18" d="M414.1,1521.4c0.3-10.9,3.3-20.3,14-25.5c3.6-1.7,6.8-4.2,10.4-6c7.1-3.5,12.6-8.5,15.8-15.8c0.7,0,1.3,0,2,0
		c-1.5,5.8-4.1,10.8-9.7,13.9c-5.7,3.2-10.9,7.2-16.7,10c-10,4.8-12.2,13.8-13.8,23.4C415.5,1521.4,414.8,1521.4,414.1,1521.4z"/>
	<path class="st3" d="M1022.3,1699.4c-7.5-1.1-15-2.4-22.5-3.4c-5.5-0.7-11.1-1.1-16.7-1.7c-0.7-0.3-1.3-0.7-2-1
		c6.8,0.3,13.7,0.3,20.5,0.8c8.6,0.7,17.1,1.9,25.6,2.9c1.4,0.2,2.8,0.8,4.1,1.3c-1,0.3-2,0.7-3,1
		C1026.3,1699.3,1024.3,1699.3,1022.3,1699.4z"/>
	<path class="st20" d="M185,1626c-3.8-2.3-7.6-4.7-11.4-7c0.3-0.7,0.5-1.3,0.8-2c4.2,0.7,8.5,1.3,12.7,2
		C190.3,1622.4,188.7,1624.5,185,1626z"/>
	<path class="st14" d="M1052.4,1701.4c7.1,0.7,14.2,1.3,21.2,2.4c0.8,0.1,1.3,3,1.9,4.6c-5.3-1.6-10.7-3.3-16-4.9
		C1057.2,1702.8,1054.8,1702.1,1052.4,1701.4z"/>
	<path class="st18" d="M245.5,1685.2c4.1-4.4,8.2-8.7,12.3-13.1c0.4,0.4,0.9,0.8,1.3,1.2c-4,4.5-8,8.9-12,13.4
		C246.6,1686.1,246,1685.7,245.5,1685.2z"/>
	<path class="st5" d="M792.1,1687.3c0.7-0.3,1.3-0.7,2-1c3,2,6.1,4.1,9.1,6.1c-0.4,1.3-0.7,2.6-1.1,4c-0.7,0-1.3,0-2,0
		c-1.4-1.7-2.8-3.5-4.3-5.2C794.7,1689.8,793.3,1688.6,792.1,1687.3z"/>
	<path class="st21" d="M872.1,1852.4c-2.5-3-4.4-5.2-6.6-7.9C872.6,1845.2,873.5,1846.1,872.1,1852.4z"/>
	<path class="st22" d="M1074.5,1710.4c-0.6,4-1.3,8-1.9,12c-0.3-0.3-0.7-0.6-1-1c-2.8-4.3-1-7.8,2-11
		C1073.9,1710.4,1074.2,1710.4,1074.5,1710.4z"/>
	<path class="st14" d="M1037.4,1698.3c4.9-0.1,10.2-1.8,14.1,3C1046.7,1700.4,1042,1699.3,1037.4,1698.3z"/>
	<path class="st23" d="M659.4,1264.1c-1.6,9.5-8.5,16-13.3,23.8c-5.4,8.8-11.4,17.3-17.1,25.9c-1,1.6-1.8,3.3-3.4,6.3
		c2.2-1,2.9-1.3,3.6-1.6c-0.7,5-1.3,10.1-2,15.1c-0.3-0.3-0.7-0.7-1-1c-0.6-3.8-1.7-7.6-1.8-11.4c0-2.8,1-5.8,2.3-8.3
		c1.9-3.8,4.4-7.3,7.3-11.8c-5.5-0.5-10.1-0.8-14.6-1.3c-7.3-0.7-14.6-1.6-21.9-2.2c-4.2-0.3-5.5-2.3-4.6-6.3c0.6-2.7,1.2-5.8-3-8
		c0,1.8-0.2,2.6,0,3.3c2.1,7.1-1.3,11.3-8.6,10.6c-14.4-1.5-28.7-3.2-43.1-4.2c-3.1-0.2-6.3,2.2-9.5,3.4c3.7-3.2,7.2-6.7,11.1-9.5
		c4.4-3.2,8-6.6,8.4-11.5c-6.6,5.2-13.4,10.5-20.1,15.9c-1,0.8-1,2.7-1.5,4c-2.9-1.8-5.7-4.2-8.8-5.1c-3.4-1-7.1-0.6-10.7-0.9
		c-16.6-1.8-33.2-3.3-49.7-5.6c-14.4-1.9-28.6-4.8-42.9-7c-4.1-0.7-8.3-0.8-12.5-1.1c-0.3,0.6-0.6,1.1-0.8,1.7
		c5.1,5.4,10.4,10.6,15.3,16.2c2,2.3,3.1,5.3,4.6,8c-8.6-9.5-16.9-19.4-26-28.4c-8.5-8.5-7.2-16,0.1-24.1c1.5-1.7,2-4.5,2.6-6.8
		c2-6.8,3.8-13.8,5.9-20.6c1.4-4.5,4.9-4.9,8.9-4.3c14,2.1,28,4.4,42.1,6.2c29.3,3.7,58.7,7.2,88,10.8c5.5,0.7,11,1,16.4,1.8
		c4.6,0.7,5.3,2.3,3.4,6.6c-1.9,4.2-3.9,8.4-5.8,12.7c-1.9,3.5-3.8,7-5.8,10.5c0.5,0.3,1,0.6,1.4,0.8c2.4-3.8,4.9-7.6,7.3-11.3
		c2.6-3.9,5.4-7.6,7.8-11.6c2.2-3.7,4.9-5.8,9.3-5.5c13.1,1,26.3,1.5,39.4,2.9c7.8,0.8,13.8-3,20.2-6.1c0.5-0.3,1.1-1.1,1.1-1.6
		c-0.2-5.9,3.9-11.8,0.4-17.8c-0.5-0.8-0.2-2-0.2-3.1c0.6-0.1,1.2-0.2,1.8-0.3c1.1,6.6,2.5,13.1,3.3,19.7c0.4,3.4,1.8,5,4.9,5
		c3.2,0,4.2-1.8,3.9-5c-0.2-1.9,0.4-3.9,0.7-5.8c0.5,2,0.7,4.3,1.7,6.1c2,3.7,0.6,5.3-3,5.8c-2.1,0.3-4.7-0.3-6.4,0.7
		c-2.1,1.3-3.6,3.7-4.7,5.9c-0.3,0.6,1.8,3.1,3.2,3.4c1.8,0.4,5.4-0.1,5.6-0.9c1.5-6,7.8-6.8,10.8-11c-1.5,4.7,0.3,6.8,5.1,7.1
		c1.3,0.1,2.6,1,3.9,1.5c-0.6,1.3-1.1,2.7-1.9,3.8c-1.6,2.3-3.4,4.4-5,6.6C660.7,1258.1,660.1,1261.1,659.4,1264.1z M596.2,1275.9
		c0.4,0.5,0.9,0.9,1.3,1.4c3.7-3.4,7.4-6.7,11.1-10.1c-0.3-0.3-0.5-0.5-0.8-0.8C604,1269.5,600.1,1272.7,596.2,1275.9z"/>
	<path class="st4" d="M210.1,1281.2c2.6-7.8,5.2-15.5,7.7-23.3c1-3.1,2.9-3.2,5.5-2c11.7,5.3,23.4,10.9,35.3,15.7
		c4.3,1.7,9.5,2.8,14,2c13.2-2.4,26.3-1.3,39.4,0.1c13.3,1.4,26.4,0.6,38.9-4.5c0.4,3.3,1.9,7.1,0.8,9.7c-1.2,2.7-1.6,4.7-0.9,7.3
		c-2.9,0.8-5.9,2.4-8.7,2.1c-8.6-0.8-17.1-2.5-25.7-3.4c-20.9-2.1-41.9-3.9-62.8-5.7c-10.5-0.9-21-1.3-31.5-2.2
		C217.3,1276.5,213.2,1277.1,210.1,1281.2z"/>
	<path class="st4" d="M351.8,1269.1c7.8-4.1,15.7-8,23.4-12.3c3.4-1.9,5.5-1,7.6,1.9c6.3,8.8,12.5,17.6,19.2,26.1
		c4,5.1,8.7,9.6,13.1,14.4c-8.8-1.6-17.6-3.3-26.4-4.7c-9.6-1.6-19.3-2.9-29-4.3c-0.7-3.8-2.5-7.7-1.8-11.2
		C359.2,1272.4,358.5,1270.3,351.8,1269.1z"/>
	<path class="st24" d="M1120.8,1311.3c2.4-3,4.7-6,7.1-9c1.7,0.7,3.3,1.3,5,2c-3.3,5-6.5,10.1-10.1,15c-1.6,2.2-3.8,5.1-6.1,5.6
		c-6.6,1.3-13.5,2.4-20.2,2.1c-9-0.5-17.9-2-26.7-3.7c-8.2-1.6-15,0.5-21.7,5.1c-14.8,10.2-29.9,20.2-44.8,30.3c-0.7-1-1.4-2-2-3
		c7.4-5.4,14.7-10.7,22.1-16.1c0.3-0.3,0.7-0.7,1-1c7.1-4.6,14.5-8.9,21.3-13.9c7.4-5.5,15.2-6.9,24.1-5.7
		c12.1,1.5,24.2,2.5,36.3,3.5c6.5,0.5,11.9-1.6,14.8-8C1120.8,1313.4,1120.8,1312.3,1120.8,1311.3z"/>
	<path class="st25" d="M351.8,1269.1c6.7,1.2,7.4,3.3,6.1,9.9c-0.7,3.5,1.2,7.5,1.8,11.2c0,7.2,7.4,6.1,11.7,9.9
		c-2.2,0.9-3.8,1.4-5.2,2.2c-3.6,2-7.1,4.4-10.8,6.1c-1.8,0.8-4.2,0.3-6.4,0.4c-0.1-1.9-0.6-3.9-0.1-5.7c0.6-2.1,2.7-3.8,2.8-5.8
		c0.1-2.3-1.3-4.6-2.1-7.1c0.2,0,1.2,0,3.1,0c-0.9-1.7-1.5-2.9-2.1-4.1c-0.7-2.6-0.3-4.7,0.9-7.3c1.1-2.6-0.4-6.4-0.8-9.7
		C351.2,1269.2,351.5,1269.2,351.8,1269.1z"/>
	<path class="st26" d="M440.3,1463.1c0,0.4,0,0.7,0,1.1c-1.9,0.3-4.1,1.4-5.6,0.8c-7-2.7-13.9-5.8-20.7-8.9
		c-10.6-4.9-21-10-30.6-14.6c9.1-2.5,12.3-1.5,21.8,3.7c6.6,3.6,14.1,5.5,21.2,8.1c0.5,0.2,1.2,0.1,1.4,0.4c2.5,4.5,6.4,6,11.3,5.9
		C439.5,1459.5,439.9,1461.8,440.3,1463.1z"/>
	<path class="st26" d="M359.1,1411.6c2.8,7.9,5.6,15.5,8.2,23.2c0.4,1.1-0.2,2.6-0.7,3.8c-1.3,2.9-3.3,3.7-5.7,1
		c-1.5-1.6-3.3-3.1-4.2-5c-3.3-7.1-8.3-9.8-15.4-6.6c-0.5-0.5-0.7-0.6-0.8-0.7c0.7-0.6,1.4-1.2,2.4-2.1c-1.4-0.2-2.7-0.4-4.5-0.8
		c0.9-0.3,1.3-0.4,1.7-0.5c4.6-0.9,9.3-1.5,13.8-2.7c1.1-0.3,2.1-1.9,2.7-3.2C357.6,1416.1,358.2,1413.9,359.1,1411.6z"/>
	<path class="st26" d="M187.2,1437.3c3.3-4.1,9.6-5.6,8.2-12.1c-1.1-5-2.9-9.8-4.4-14.6c0.4-0.3,0.8-0.6,1.2-0.8
		c1.2,1.7,2.7,3.2,3.6,5.1c3,5.9,5.2,12.4,12.7,14.6c0.8,0.2,1.5,2.4,1.4,3.6c-0.1,0.8-2.1,2.1-2.7,1.9c-4.2-1.7-7.7-0.2-11.6,1.2
		C193.2,1437,190.1,1437,187.2,1437.3z"/>
	<path class="st27" d="M526.7,1295.3c0.5-1.4,0.6-3.2,1.5-4c6.6-5.5,13.5-10.7,20.1-15.9c-0.5,4.9-4,8.3-8.4,11.5
		c-3.9,2.8-7.4,6.3-11.1,9.5c0,1,0,2,0,3c-0.7,4.4-1.3,8.7-2,13.1c-0.7,8.7-1.3,17.4-2,26.1c-0.3,0-0.7,0-1,0c0-6.3-0.7-12.8,0.2-19
		C525.1,1311.5,521.6,1302.8,526.7,1295.3z"/>
	<path class="st23" d="M520.7,1446.1c-0.7-1.4-2-2.9-1.9-4.3c0.4-15.4,1-30.7,1.6-46.1c0.3-7.8,0.8-15.7,1.3-23.5
		c0.1-1.3,0.2-2.6,1.4-4.1c0.2,1.3,0.6,2.6,0.5,3.8c-0.9,20.7-1.9,41.4-2.8,62.1C520.7,1438,520.7,1442,520.7,1446.1
		C520.7,1446.1,520.7,1446.1,520.7,1446.1z"/>
	<path class="st28" d="M296.9,1420.5c9.5-0.7,18.1-1.5,26.7-1.8c1.5,0,3.1,2.3,4.7,3.5c-1.4,1.4-2.8,3.8-4.3,4
		c-4.2,0.3-8.6-0.3-12.8-0.6c-0.3,0-0.8-0.2-0.9-0.4C307.8,1419.1,302.1,1421.5,296.9,1420.5z"/>
	<path class="st29" d="M335.3,1317.3c8.4,5.5,8.4,5.5,14.6-0.5c-0.2,4.2-0.3,7.4-0.6,10.6c-0.2,2.8-0.8,5.6-0.9,8.4
		c-0.2,4.1-2.5,5.4-7.6,3.1c1.4-2.2,2.8-4.3,4-6.6c1.5-2.8,3.1-5.4-1.6-7.6C340.1,1323.3,337.9,1319.8,335.3,1317.3z"/>
	<path class="st30" d="M364.6,1373.6c0.1,0.9,0.4,1.8,0.3,2.7c-0.6,3.9-1.4,7.8-2.1,11.6c-0.2,1.3-0.3,2.9-1.1,3.8
		c-1.1,1.2-2.8,1.8-4.2,2.7c-0.9-1.5-2.7-3.1-2.4-4.4c1.3-6.3,4.7-11.7,8.3-16.8C363.8,1373.4,364.2,1373.5,364.6,1373.6z"/>
	<path class="st31" d="M266.8,1299c2.7-2.1,5-3.9,7.3-5.7c-0.2-0.3-0.4-0.7-0.6-1c3.4,0,6.9-0.1,10.3,0.1c1.1,0.1,2,1.2,3.1,1.9
		c-0.9,0.9-1.8,2.6-2.8,2.7C278.5,1297.9,272.9,1298.4,266.8,1299z"/>
	<path class="st9" d="M293.7,1294.7c1.9-2,3.4-3.6,5.7-6.1c2.1,2.5,5,4.8,6,7.7c1.2,3.2-3.8,5.1-6.7,2.6
		C297.1,1297.6,295.4,1296.2,293.7,1294.7z"/>
	<path class="st32" d="M626.2,1332.5c0.3,0.3,0.7,0.7,1,1c1.4,10.2,2.8,20.3,4.2,30.5c-0.8,0.1-1.6,0.2-2.5,0.2
		C628,1353.6,627.1,1343,626.2,1332.5z"/>
	<path class="st16" d="M650.4,1287.2c0.7-1.3,1.3-2.7,2-4c3.1,2.5,6.2,5,9.9,8.1C656.1,1293.4,653.6,1289.4,650.4,1287.2z"/>
	<path class="st33" d="M710.3,1395.6c1.6,2.2,3.5,3.7,3.5,5.3c0.1,1.2-2.1,2.5-3.3,3.8c-1.3-1.3-3.3-2.6-3.6-4.1
		C706.8,1399.4,708.7,1397.8,710.3,1395.6z"/>
	<path class="st23" d="M526.7,1312.4c0.7-4.4,1.3-8.7,2-13.1C529.7,1303.9,531.7,1308.7,526.7,1312.4z"/>
	<path class="st34" d="M103.1,1339.1c-1.8,2.6-3.7,5.3-5.5,7.9c-0.5-0.4-1.1-0.7-1.6-1.1c1.8-2.7,3.6-5.4,5.4-8.2
		C102,1338.2,102.5,1338.7,103.1,1339.1z"/>
	<path class="st6" d="M225.2,1303.2c3.4-0.9,6.9-1.7,10.3-2.6c0.1,0.5,0.3,1,0.4,1.5c-3.4,0.9-6.8,1.8-10.2,2.8
		C225.5,1304.3,225.3,1303.8,225.2,1303.2z"/>
	<path class="st4" d="M346.8,1268.2c-10.1,3.2-20.5,4.8-31.1,3.6c-14.8-1.7-29.5-2.5-44.4-0.2c-4.3,0.7-9.3-0.8-13.5-2.5
		c-11.3-4.7-22.2-10.2-33.4-15.1c-3.7-1.6-4.6-3.6-3.2-7.4c3.3-8.9,5.8-18.2,9.5-27c2.4-5.7,6-11,9.4-16.3c0.7-1.1,3.3-1.6,5-1.5
		c8.2,0.3,16.4,0.9,24.5,1.2c1.7,0.1,4.2-0.3,4.8-1.3c0.6-1.1-0.4-3.3-1-4.9c-0.4-1.1-1.3-1.9-2-2.9c0.7-0.4,1.3-0.8,2-1.3
		c1.4,1.4,2.9,2.8,4.3,4.2c10.2,10.3,20.7,20.3,30.4,31c6.6,7.2,11.5,16.2,22.9,16.9c4.3,0.3,8.6,1.8,12.9,1.8
		c5.7,0,11.5,3.3,17-0.6c-3.1,7.1-15.7,10.8-22.2,6.8c-3.5-2.2-7.2-3.9-10.8-5.9c-0.3,0.5-0.7,0.9-1,1.4c3.7,3.1,7.4,6.1,11.2,9.3
		c-0.9,1-1.6,1.8-3,3.3C339.3,1263.5,343,1265.9,346.8,1268.2z"/>
	<path class="st2" d="M526.7,1295.3c-5.1,7.6-1.6,16.2-2.8,24.3c-0.9,6.2-0.2,12.6-0.2,19c-0.3,5.4-2.6,6.9-8.4,6.3
		c-12.7-1.4-25.6-1.5-38.4-2.3c-1.8-0.1-3.7-0.7-5.2-1.6c-18.4-10.4-33.7-24.8-49.7-38.5c-0.4-0.3-0.6-0.8-0.9-1.2
		c-1.5-2.7-2.6-5.7-4.6-8c-4.9-5.6-10.2-10.8-15.3-16.2c0.3-0.6,0.6-1.1,0.8-1.7c4.2,0.4,8.4,0.5,12.5,1.1c14.3,2.3,28.6,5.1,42.9,7
		c16.5,2.2,33.1,3.8,49.7,5.6c3.6,0.4,7.3-0.1,10.7,0.9C521.1,1291.1,523.8,1293.5,526.7,1295.3z"/>
	<path class="st23" d="M360.9,1246c-5.5,3.9-11.4,0.5-17,0.6c-4.3,0-8.6-1.5-12.9-1.8c-11.4-0.7-16.3-9.7-22.9-16.9
		c-9.8-10.7-20.3-20.7-30.4-31c-1.4-1.4-2.8-2.8-4.3-4.2c2,1,4,2,6,3.1c3.2,1.6,6.2,4.3,9.6,4.7c12.1,1.5,24.3,2.1,36.4,3.4
		c7.5,0.8,14.9,2,22.3,3.2c12.7,2,25.4,4.2,38.1,6.1c3.3,0.5,6.7,0.5,10,0.7c3.5,0.2,4.6,2.1,3.9,5.4c-1.2,6-3.1,12-3.1,18
		c0,8.7-6.3,13.6-9.6,20c-0.9-0.1-1.4,0-1.6-0.2c-5.8-5.4-5.7-5.3-13.3-1.3c-6,3.2-12.2,6.2-18.3,9.3c1.8-1.4,3.6-2.8,5.5-4
		c4.8-2.9,9.8-5.7,14.6-8.5c-4-1.8-7.4-2.9-7.1-7.6c-0.5-4.1,1.4-6.6,5.1-8.1c1.4-0.6,3.1-1.1,3.8-2.2c0.7-0.9,0.2-2.7,0.3-4
		c-1.4,0.1-3.5-0.4-4.1,0.3C368.1,1235.9,364.5,1241,360.9,1246z"/>
	<path class="st2" d="M1120.8,1314.4c-2.9,6.4-8.2,8.5-14.8,8c-12.1-1-24.2-2-36.3-3.5c-8.9-1.1-16.7,0.3-24.1,5.7
		c-6.8,5.1-14.2,9.3-21.3,13.9c-9.2-13.9-18.4-27.8-27.5-41.8c-3.1-4.7-1.4-7.4,4.6-7.4c17,0.2,34,0.7,51.1,1c6.7,0.1,13.4-0.5,20,0
		c7.7,0.6,15.5,1.6,23.1,3.4c6.8,1.6,9.9,8,14.2,12.8C1112.7,1309.8,1117.1,1311.8,1120.8,1314.4z"/>
	<path class="st4" d="M132.7,1170.6c0.3-0.9,0.7-1.8,1.1-3c-4.3,0-8.2,0-12.2,0c8.9-5.3,19-2.3,28.5-3.8c24.9-3.9,50-6.7,75-9.8
		c14.1-1.7,28.2-3.1,42.3-4.6c7.5-0.8,14.9-1.4,22.4-2c1.6-0.1,3.1,0.1,4.7,0.2c0,0.4,0.1,0.9,0.1,1.3c-6.3,1.1-12.6,2.5-18.9,3.4
		c-27.5,3.7-55,7.3-82.5,10.8C173.1,1165.8,152.9,1168.1,132.7,1170.6z"/>
	<path class="st16" d="M360.9,1246c3.6-5,7.2-10.2,11.1-15c0.6-0.7,2.7-0.2,4.1-0.3c0,1.4,0.4,3.1-0.3,4c-0.8,1.1-2.4,1.6-3.8,2.2
		c-3.7,1.5-5.5,4-5.1,8.1c-3.8,8.9-11.7,11.4-20.7,12.5c1.7,3.2,3.2,5.9,4.7,8.7c-1.4,0.7-2.7,1.4-4.1,2.1
		c-3.8-2.3-7.5-4.7-11.6-7.2c1.4-1.6,2.1-2.4,3-3.3c-3.8-3.2-7.5-6.3-11.2-9.3c0.3-0.5,0.7-0.9,1-1.4c3.6,1.9,7.3,3.7,10.8,5.9
		C345.2,1256.8,357.8,1253.1,360.9,1246z"/>
	<path class="st23" d="M487.2,1207.2c2.2-1.4,6-2.6,6.3-4.3c0.3-2.1-2.3-4.7-3.7-7c5,1,9.7,2,14.5,3.1c1,0.2,2.1,0.5,2.7,1.1
		c7.3,6.9,16.2,6.8,25.3,6.2c2.5-0.2,5.1,0.8,7.6,1.3c2.1,0.4,4.2,1.1,6.3,1.2c6.8,0.2,13.6,0.1,20.6,1c-0.9,0.3-1.8,1.1-2.7,1
		c-15.6-1.2-31.4-1.8-46.9-4.1c-10.1-1.5-19.7-3.3-29.3,1.8C487.7,1208,487.4,1207.6,487.2,1207.2z"/>
	<path class="st4" d="M350.9,1266.1c-1.5-2.8-3-5.5-4.7-8.7c9-1.1,16.9-3.6,20.7-12.5c-0.3,4.7,3.1,5.7,7.1,7.6
		c-4.9,2.8-9.8,5.6-14.6,8.5c-1.9,1.2-3.7,2.7-5.5,4C352.8,1265.4,351.9,1265.8,350.9,1266.1z"/>
	<path class="st2" d="M659.4,1236c-3,4.2-9.3,5.1-10.8,11c-0.2,0.8-3.8,1.3-5.6,0.9c-1.3-0.3-3.4-2.9-3.2-3.4
		c1.1-2.2,2.7-4.6,4.7-5.9c1.6-1,4.2-0.4,6.4-0.7c3.6-0.5,5.1-2.1,3-5.8c-1-1.8-1.1-4.1-1.7-6.1c3.1-1.5,4.3,0.7,5.1,2.9
		C658.3,1231.1,658.8,1233.6,659.4,1236z"/>
	<path class="st27" d="M560.5,1250.3c4.8-9.2,9.6-18.5,14.5-27.8C575.8,1226.7,568.1,1242.2,560.5,1250.3z"/>
	<path class="st27" d="M659.4,1264.1c0.7-3,1.3-6,2-9c2.2-2,4.5-3.9,7.4-6.5c-2.6,5.9-4.8,10.9-7.1,15.9
		C661.7,1264.6,660.2,1264.2,659.4,1264.1z"/>
	<path class="st27" d="M1091.4,1241.8c7.7-2.2,15.4-4.4,23-6.6c0.2,0.7,0.4,1.5,0.6,2.2c-7.8,1.9-15.5,3.8-23.3,5.7
		C1091.6,1242.7,1091.5,1242.2,1091.4,1241.8z"/>
	<path class="st27" d="M559.9,1255.1c-2.4,3.8-4.9,7.6-7.3,11.3c-0.5-0.3-1-0.6-1.4-0.8c1.9-3.5,3.8-7,5.8-10.5
		C557.9,1255.1,558.9,1255.1,559.9,1255.1z"/>
	<path class="st2" d="M1605.3,1668.2c-5.2-7.7-9.8-15.9-15.8-23c-6.4-7.7-15.7-11-25.4-13.2c-9.3-2-18.7-3.8-27.9-6.4
		c-11-3.2-19.4-10.2-25.2-20.3c-9.3-16.1-22.5-29-34.8-42.6c-3.7-4.1-7.6-8.1-7.9-14.6c-0.2-6.4,1.6-11,6.3-15.4
		c8.7-8.1,17.3-16.4,25.2-25.2c8.9-9.9,20.3-16.3,30.8-23.9c1.2-0.9,3.4-0.7,5.1-0.7c1.7,0,3.4,0.5,6.1,0.9c-1.4-2.3-2.1-3.4-3-5
		c7.1-4.3,14.1-8.5,21.1-12.8c1.1,4,4.3,5.8,7.9,5.9c10.3,0.2,20.7,0.2,31-0.1c7.7-0.2,15.4-0.9,23-1.8c2.3-0.3,4.9-1.7,6.5-3.4
		c3-3.1,5.1-7.1,8-10.2c1.7-1.8,4.3-2.9,6.6-4.1c2.9-1.5,6.3-2.4,8.9-4.3c2.6-1.9,4.6-1.8,6.5,0.5c3.1,3.9,6.5,3.7,10.6,1.5
		c5.7-3.1,11.6-5.9,17.5-8.7c1.3-0.6,3-1.4,4.3-1.1c6.6,1.5,11.7-1.8,16.8-5c1.1-0.7,2.3-1.4,3.5-1.9c3.3-1.2,5.4-0.8,6.4,3.5
		c3.1,13.2,6.9,26.2,10.1,39.4c3.9,15.7,13.8,27.2,26.1,37c4.1,3.2,8.5,6.1,6.7,12.7c-0.3,1.1,1.4,3.6,2.7,4.2
		c7.6,3.4,15.3,6.4,23.1,9.5c0.7,0.3,1.5,0.1,2.2,0.2c0.2-0.5,0.4-1,0.6-1.5c-4.7-2.5-9.4-5-14.2-7.4c-1.5-0.7-3.1-1.3-4.7-1.6
		c-4.5-0.9-8.8-1.6-6.4-8.2c0.4-1.2-1.4-3.7-2.7-5c-5-4.9-10-9.8-15.4-14.3c-10.8-9.3-14.4-22.3-18.1-35.1c-2.7-9.5-5-19.1-7.1-28.7
		c-0.7-3.2-0.6-6.8,0.2-9.9c1.8-6.9,5.1-13.5,6.4-20.5c0.9-4.9-0.6-10.2-1-15.3c-0.2-1.8-1.3-3.9-0.7-5.3c0.6-1.5,2.7-3.4,4.2-3.5
		c9-0.1,18.1,0.1,27.1,0.4c4.6,0.2,8.7-0.2,10.9-5.1c0.5-1,1.9-1.6,3.8-3.1c0.1,7.4,5.1,7.1,9.2,6.9c7.2-0.3,14.4-1.4,21.7-2.1
		c0.2-0.7,0.3-1.5,0.5-2.2c-2.1-1.3-4.3-2.5-6.3-4c-2.1-1.7-4.1-3.7-6.1-5.5c3.4,1.8,6.6,4,10.2,5.3c2.4,0.9,6,1.6,7.9,0.4
		c4-2.4,7.9-2,12-1.7c5.4,0.5,6.8,2.4,5,7.6c-1.9,5.5-4.4,10.8-5.4,16.7c-1.6,8.8-4.3,17.4-6.5,26c-5.1,20.8-10.4,41.5-15.4,62.3
		c-4.7,19.6-8.8,39.3-7.9,59.7c0.4,9.1-0.5,18.3-0.9,27.4c-0.8,16.5-0.5,33,2,49.4c1.1,7.4,2,14.9,3,22.3c-2.2,0.6-4.6,1-6.7,1.9
		c-16.2,7-32.4,14.1-48.6,21.2c0.2-1.1,0.6-2.3,0.5-3.4c-0.1-1.2-0.5-2.4-0.8-3.6c-1.3,0.5-2.7,0.8-3.7,1.6c-3.2,2.4-3.7,5.3-1,8.4
		c-14.4,4.6-28.9,9.2-43.3,13.9c0.1,0.6,0.1,1.1,0.2,1.7c6.5,0.6,13.1,1.3,19.6,1.9c-26.6,2.2-53.7,0.2-79.7,10.1
		c1,1.8,1.8,3.2,2.6,4.6c-7.7-4.6-14.2-10.5-18.7-18.3C1611.6,1678.7,1608.4,1673.5,1605.3,1668.2z M1764.1,1569.7
		c-4.1-1.3-8.2-2.6-12.3-3.9c1.7,2.1,3.7,3.2,5.5,4.6C1759.9,1572.4,1762.1,1572.4,1764.1,1569.7c4,0.9,9.1-2.4,8.3-5.7
		c-1.1-4-3-7.7-4.6-11.6c-0.5,0.1-1,0.1-1.5,0.2c0.5,2.4,0.5,5,1.5,7.2C1770.4,1565.7,1770.1,1566.7,1764.1,1569.7z M1678.6,1491.3
		c1.3,1.4,2.3,3.2,3.9,4.3c4.5,3,8.5,1.9,8.6-2.3c0-2.1-1.7-4.2-2.4-5.9c-3.2,0.4-6.1,0.7-9,1c-10.1,1.4-19.2,7.5-19.9,12.9
		C1665.9,1498,1672.3,1494.6,1678.6,1491.3z M1723.5,1628.4c-0.6-0.4-1.3-0.8-1.9-1.2c-2.4,3.3-4.9,6.5-7,10
		c-0.5,0.9,0.5,3.7,1.4,4.1c1.4,0.6,3.3-0.2,5.1-0.4c-0.2-1.3-0.5-2.7-0.6-4c0-1.6-0.1-3.4,0.4-4.9
		C1721.4,1630.6,1722.6,1629.6,1723.5,1628.4z M1612.1,1518c4.8-3.8,11.5,3.5,16-2.9C1621.2,1511,1615.8,1511.9,1612.1,1518z
		 M1519,1546.8c0.2-0.6,0.5-1.2,0.7-1.8c-1.7-0.8-3.5-1.7-5.2-2.5c-0.5,2.9-1.2,5.8-1.5,8.7c0,0.2,1.8,0.6,3.6,1.2
		c-0.6-2-1-3.1-1.3-4.4C1516.6,1547.6,1517.8,1547.2,1519,1546.8z M1770.8,1502.1c1.4-1.8,2.9-2.9,2.9-3.9c0-1.1-1.5-2.1-2.4-3.2
		c-1,1.1-2.3,2.1-2.7,3.4C1768.3,1499.1,1769.7,1500.3,1770.8,1502.1z M1720.7,1514.5c-1.8-1.3-2.8-2.6-3.9-2.7
		c-0.8-0.1-2.5,1.8-2.3,2.2c0.4,1.1,1.5,2.4,2.6,2.8C1717.7,1517.1,1718.9,1515.7,1720.7,1514.5z M1738.5,1571.8
		c3-1.6,5.9-3.2,8.3-4.5C1741.3,1565.9,1738.9,1567.1,1738.5,1571.8z"/>
	<path class="st2" d="M1562,1465.1c6.7-4.4,13.4-8.7,20.1-13.1c12.1-7.5,24.1-15.1,36.4-22.3c12.3-7.1,22-16.3,26.7-30.1
		c0.5-1.5,1.5-2.9,2.9-5.4c0.3,6.4-0.8,11.6,3.3,15.6c0.5-3-0.3-6.2,0.7-8.7c1.7-4.1,0.6-6.9-2.5-9.4c7.7-3.6,15.1-8,23.1-10.6
		c5.6-1.9,12.1-2.3,18.1-1.9c7.5,0.5,14.8,2.4,22.2,3.8c8.2,1.5,11.4,5.1,10.7,14.7c-0.7,9.2-2.8,18.4-5,27.4
		c-0.5,2.1-3.5,3.9-5.7,5.3c-2.1,1.3-4.7,1.7-6.8,3.1c-4.7,3.1-9.7,4.8-15.5,4.8c-2.9,0-5.9,1.9-8.8,3.2c-5.2,2.3-10.1,5.1-15.4,7.2
		c-1.5,0.6-4.3-0.2-5.5-1.3c-3.5-3.5-6.6-4.2-10.4-0.7c-1.1,1-2.5,2.1-3.8,2.2c-9.9,0.8-14.3,8.5-19,15.5c-2,2.9-4.1,3.8-7.4,4
		c-14,0.8-28,2.1-42,2.7C1572.3,1471.1,1566,1470.9,1562,1465.1z M1614,1451.5c-2.6-0.4-4.7-0.8-7.6-1.2
		C1609.2,1455,1610.7,1455.3,1614,1451.5z M1629.2,1437.5c-5.5,1.6-6.2,2.8-4.2,7.1C1626.3,1442.3,1627.6,1440.1,1629.2,1437.5z"/>
	<path class="st27" d="M1825.2,1337.4c-0.3-2.3-0.9-4.6-0.8-6.9c0.5-8.7-1.1-16.7-5.6-24.5c-2.4-4.1-2.1-9.6-3.4-14.4
		c-2.5-9.7-8.9-16.3-18-20c-7.1-2.9-8.6-8-2.4-12.5c7.4-5.3,15.7-9.4,23.6-13.9c2.3-1.3,4.9-2.1,7.4-3.2c10.7-5,21.2-3.8,29.6,4.6
		c2.1,2.1,2.5,6.4,2.4,9.6c0,1.3-3.4,3.2-5.5,3.6c-13.4,2.7-27,5-40.4,7.6c-1.7,0.3-3.2,1.4-4.9,2.1c0.8,1.5,1.2,3.5,2.4,4.5
		c7.9,6.9,11.7,15.1,10,25.8c-0.4,2.2,0.7,5.1,2,7c4.1,6,5.1,12.6,4.7,19.6c-0.2,3.6,0,7.2,0,10.9
		C1826,1337.2,1825.6,1337.3,1825.2,1337.4z"/>
	<path class="st35" d="M1813.4,1422.9c2.2-8.7,5-17.2,6.5-26c1.1-5.9,3.5-11.2,5.4-16.7c1.8-5.1,0.4-7.1-5-7.6
		c-4.1-0.3-8-0.7-12,1.7c-1.9,1.1-5.4,0.5-7.9-0.4c-3.6-1.3-6.8-3.5-10.2-5.3c-1.4-1.7-2.8-3.4-4.4-5.4c0.9-0.1,2.7-0.7,4.4-0.6
		c4.8,0.1,6.9-2.1,8.4-6.7c4.3-14.3-0.1-26.6-7.1-38.7c-2-3.5-3.3-7.2-2.4-12.2c1.5,1,2.3,1.2,2.6,1.7c8.3,15.6,16.6,31.2,11.4,49.9
		c-1.4,4.9,0,7.9,5.3,8.4c7,0.7,14.1,2.4,21,1.5c6.7-0.8,11.1-6.4,14-12.6c1.2-2.6,2.8-5,4.2-7.4c1.3,0.7,2.7,1.3,4,2
		c-3.2,5.8-6.5,11.6-9.7,17.4c-2.4,4.3,0.6,6.7,3.6,8.5c7.2,4.5,14.8,8.4,21.8,13.2c10.3,7,21.4,10.5,33.8,10.3
		c0.9,0,1.9,0.6,2.8,0.9c-3.4,1.3-6.7,2.7-10.1,4c-7.7,0.7-14.3-1.9-20.7-6c-9.7-6.2-19.8-11.8-29.8-17.6
		c-5.5-3.2-12.1-0.5-14.2,6.3c-3.7,11.9-7.1,24-10.6,36c-0.3,1.1-0.8,2.2-1.1,3.3C1816,1424.3,1814.7,1423.6,1813.4,1422.9z"/>
	<path class="st36" d="M1649.5,1391.8c3.1,2.5,4.1,5.2,2.5,9.4c-1,2.5-0.2,5.7-0.7,8.7c-4.1-4-2.9-9.2-3.3-15.6
		c-1.4,2.5-2.3,3.9-2.9,5.4c-4.7,13.7-14.4,22.9-26.7,30.1c-12.3,7.2-24.3,14.8-36.4,22.3c-1.3-0.7-2.7-1.3-4-2
		c12.7-8,25.2-16.5,38.2-23.9c11.4-6.5,19.4-15.4,24.9-27.1c4.3-9.2,9.8-17.8,14.9-26.6c0.7-1.2,2.3-1.9,3.4-2.8c1,0.7,2,1.3,3,2
		c-3.4,5-6.7,10-10.1,15.1C1651.5,1388.4,1650.5,1390.1,1649.5,1391.8z"/>
	<path class="st2" d="M1778.1,1367.8c-3.4,0.3-6.8,0.8-10.1,0.8c-14.9,0.1-29.8,0.1-44.6,0c-2.3,0-4.6-1.2-6.8-2.9
		c20.7-4.4,41.1,0.5,61.5,0.9C1778.1,1366.9,1778.1,1367.4,1778.1,1367.8z"/>
	<path class="st2" d="M1652.5,1386.7c3.4-5,6.7-10,10.1-15.1c3-4,6-8,9-12.1c0.2,3.3,2.4,3.9,5.2,4c2,0.1,4,0.5,6.1,0.8
		c0.1,0.5,0.2,1,0.3,1.5c-1.4,0.8-2.8,1.9-4.3,2.3c-1.9,0.5-4.1,0-5.9,0.6c-2.5,0.8-5.1,2-7.1,3.6c-0.5,0.4,1.3,3.4,2.5,6.5
		C1663.3,1381.4,1657.9,1384,1652.5,1386.7z"/>
	<path class="st10" d="M1896.1,1220.3c-5.8,3.3-11.6,6.5-17.4,9.8c-2.3,1.3-4.8,1.6-5.1-1.2c-0.3-2.6-2.8-7,2-7.9
		c6.6-1.4,13.4-1.8,20.1-2.7C1895.9,1218.9,1896,1219.6,1896.1,1220.3z"/>
	<path class="st2" d="M1708,1368c-6.3,0-11.6,0-17.3,0C1694,1362.3,1703.2,1362,1708,1368z"/>
	<path class="st2" d="M1708.8,1361.8c-1.2-2.5-3.4-5.2-2.8-6.2c2.2-3.6,4.4-8,11.2-6.8C1714.5,1353.1,1712,1356.9,1708.8,1361.8z"/>
	<path class="st13" d="M1713.4,1314.7c3,1.4,4.9,2.4,6.8,3.3C1716.4,1321,1714.3,1320.3,1713.4,1314.7z"/>
	<path class="st17" d="M1003.2,1358.6c14.9-10.1,30-20.1,44.8-30.3c6.7-4.6,13.5-6.8,21.7-5.1c8.8,1.7,17.8,3.3,26.7,3.7
		c6.7,0.3,13.6-0.7,20.2-2.1c2.3-0.5,4.5-3.3,6.1-5.6c3.6-4.8,6.7-10,10.1-15c2-1,4-2,6.1-3c0,1.9,0,3.8,0,5.9
		c7.1-6,15.3-4.7,23.4-4.9c-7.7-1.9-15.3-5.2-23.4-0.9c0.4-1.7,0.4-3.7,1.3-4.9c2.7-3.6,5.9-6.8,8.8-10.3c4-4.7,8.3-5,12.8-0.6
		c5.8,5.6,11.5,11.2,17.3,16.8c2.5,2.4,5,4.7,7.1,6.7c-16.4,11.9-25.4,29-36.3,44.6c-9.9,11.6-19.4,23.4-25.9,37.3
		c-4,8.5-7,17.5-11.8,25.4c-3.4,5.5-8.6,10.2-13.8,14.2c-25.5,19.7-51.3,39.1-76.9,58.7c-7.4,5.7-14.3,12.1-21.6,17.8
		c-2.2,1.7-5.3,3.2-7.9,3.1c-5.3,0-9.2,1.8-12.8,5.6c-11.1,11.6-22.3,23.1-33.5,34.6c-13.3,13.6-26.5,27.4-39.9,40.9
		c-31.9,32-63.8,63.9-95.8,95.8c-2,2-4.4,3.5-6.6,5.3c-3-2-6.1-4.1-9.1-6.1c-20.2-12.8-40.7-25.1-60.5-38.6
		c-14.2-9.7-27.4-20.9-41.1-31.3c-14.8-11.2-29.4-22.7-44.6-33.3c-8.1-5.7-17.4-9.7-26.2-14.4c-6.6-3.5-7.2-5-6.1-12.4
		c1.3-8.4,2.4-16.8,3.5-25.3c0.8-6.3-1.4-11.7-4.4-17.1c-5.4-10-10.3-20.2-15.4-30.4c-1.1-2.2-1.8-4.9-3.4-6.6
		c-4.9-5-5-10.2-1.3-15.8c5.8-8.7,11.7-17.4,17.5-26.2c16.1-5.5,30.8,1.5,45.8,5.4c11.7,3,23.2,6.9,35,9c8.2,1.4,17,1.1,25.3,0.1
		c22.7-2.7,45.4-6,68.1-9.5c18.2-2.8,36.2-7,54.4-9.2c22.9-2.8,43.5-11.8,64.4-20.4c17.2-7.1,34.8-13.3,51.3-21.7
		c14.4-7.3,27.4-17.2,41.1-26C999.4,1361.4,1001.3,1360,1003.2,1358.6z M768,1647c-1.3-1.3-2.5-2.7-3.9-3.9c-0.1-0.1-1.3,1-2,1.5
		c1.3,1,2.6,2,3.8,3c0.3,0.2,0.6,0.3,0.9,0.5c-3.7,0.8-3.8,2.5-2.3,5.8c6.4,13.6,5.3,10.7,16.1,6.5c1.1-0.4,2.7-2.3,2.4-3
		c-0.6-1.5-1.9-3.1-3.3-3.9c-0.9-0.6-2.6,0.2-3.9,0.1c-1.2-0.2-2.3-0.8-3.4-1.3c0.9-1,1.6-2.3,2.7-2.9c5.5-2.7,6.9,1.7,8.6,5.3
		c1,2.2,1.7,4.4,5,3.1c4.3-1.6,9.8-9.3,9.9-13.6c-2.3-1-4.8-1.5-6.3-3c-2.1-2.3-3.8-2.4-6.5-1.2C780.2,1642.5,774.1,1644.7,768,1647
		z M668.2,1568.4c-11.6,4.9-21.7-1.1-32.3-1.4c9.1,2.3,18.2,4.7,26.9,6.9C660.5,1569.7,666.1,1571.4,668.2,1568.4z M758,1639.9
		c0.1-0.4,0.2-0.8,0.4-1.1c-7.6-2.6-15.2-5.2-22.7-7.8c-0.2,0.5-0.3,0.9-0.5,1.4C742.8,1634.9,750.4,1637.4,758,1639.9z
		 M1141.9,1309.6c-0.4,0-0.9,0-1.3,0c0,4.7,0,9.4,0,14.2c0.4,0,0.9,0,1.3,0C1141.9,1319.1,1141.9,1314.4,1141.9,1309.6z
		 M687.7,1456.9c0.7,0.1,1.5,0.3,2.2,0.4c0.4-2.1,0.9-4.1,1.3-6.2c-0.7-0.2-1.5-0.3-2.2-0.5C688.5,1452.8,688.1,1454.8,687.7,1456.9
		z"/>
	<path class="st16" d="M70.4,1504.3c4.3,3,8.5,6.2,12.9,9c3.5,2.2,7.3,3.8,11,5.7c-0.3,0.5-0.6,1-0.9,1.6c-8-4.7-16.1-9.4-24.1-14.1
		C69.7,1505.7,70.1,1505,70.4,1504.3z"/>
	<path class="st37" d="M1887.7,1529.5c-1.4,0.2-2.8,0.5-4.3,0.7c-1.2,0.2-2.4,0.4-3.6,0.3c-0.2,0-0.6-2-0.5-2.1
		c1.2-0.6,2.5-1.1,3.9-1.2c1.1-0.1,2.3,0.2,3.5,0.3C1887.1,1528.1,1887.4,1528.8,1887.7,1529.5z"/>
	<path class="st7" d="M1857.6,1581.7c-4.8-0.9-9.5-2.2-14.3-2.6c-2.2-0.2-4.5,1.2-6.7,2c-1.5,0.5-3,1.1-5.1,1.3
		c6-5.4,1.5-8.1-1.9-11.1c-3.2-2.9-6.5-5.8-9.7-8.7c-0.1-0.1-0.2-0.3-0.4-0.3c-8-0.5-8.6-8.4-12.5-13c-5.4-6.3-4.4-8.1,4-9.2
		c-0.4-1-0.8-1.8-1.3-2.9c3.2-1.3,6.3-0.6,6.6,2.8c0.8,8.4,7.2,9.9,13.2,12.3c2.6,1,5.1,2.3,7.5,3.7c2.6,1.5,3.4,3.7,2.6,6.8
		c-0.5,2.3,0.1,4.9,0.3,7.4c0.6,0.1,1.2,0.2,1.7,0.3c0.7-1.3,1.6-2.5,2.2-3.8c1.2-2.5,2.3-5.1,3.4-7.7c0.4-0.9,1-2.1,0.7-2.8
		c-3.1-7.4,3.3-13.3,3.3-20.3c0-1.1,2.8-3.1,4.4-3.1c1.2-0.1,2.9,2,3.8,3.4c1.9,3,3,6.6,5.3,9.4c1.1,1.3,3.9,1,6,1.5
		c0.2-0.4,0.4-0.7,0.6-1.1c0.6,1.3,1.9,2.7,1.8,3.9c-0.5,6.1,3.8,11.8,1.1,18.3c-0.9,2.1,1.5,5.5,2.3,8.3c-3.6,1.3-7.2,2.9-10.9,3.9
		C1863.2,1581.4,1860.3,1581.4,1857.6,1581.7z"/>
	<path class="st38" d="M1529,1325.1c0.9-2.1,1.8-4.2,2.5-5.8c3.5,3.4,7.2,6.6,10.5,10.2c0.9,1,0.5,3.1,0.7,4.8
		c-1.8-0.1-4.1,0.5-5.2-0.4C1534.5,1331.3,1532,1328.2,1529,1325.1z"/>
	<path class="st33" d="M1459.6,1491.8c-2.1-3.1-4.2-6.1-6.4-9.2c0.5-0.3,0.9-0.6,1.4-1c2.2,3.1,4.3,6.2,6.5,9.2
		C1460.6,1491.2,1460.1,1491.5,1459.6,1491.8z"/>
	<path class="st39" d="M1179.1,1302.3c-5.8-5.6-11.5-11.2-17.3-16.8c-4.5-4.4-8.8-4.1-12.8,0.6c-2.9,3.4-6.1,6.7-8.8,10.3
		c-1,1.3-0.9,3.3-1.3,4.9l0,0c-2,1-4,2-6.1,3c-1.7-0.7-3.3-1.3-5-2c-1-1.1-1.8-2.9-2.9-3.2c-8.7-1.7-13.8-8.6-20.2-13.5
		c-3.8-3-7.2-6.5-10.3-10.3c-2.1-2.5-3.1-5.9-4.6-8.9c0.6-0.5,1.1-0.9,1.7-1.4c4.1,3.7,9.2,6.7,12,11.1c5.6,8.9,13.3,14.8,22.2,19.7
		c4,2.2,6.9,2.3,10.3-1.9c4.8-6.1,10.6-11.4,16.6-17.7c-3-3-6.7-6.7-10.4-10.5c-2.7-2.7-5.6-5.4-8-8.4c-0.8-1-0.3-3-0.4-4.5
		c1.5,0.1,3.1,0.1,4.6,0.3c0.3,0,0.5,0.4,0.8,0.6c15.3,15.5,30.7,30.9,46,46.4C1183.1,1300.9,1181.1,1301.6,1179.1,1302.3z"/>
	<path class="st15" d="M1605.3,1668.2c3.1,5.3,6.3,10.6,9.4,15.9c4.5,7.8,11,13.7,18.7,18.3c5.7,4,11.4,8,17.1,12c-1,1-2,2-3,3
		c-8.7-6-17.4-12.1-26.1-18.1c-9-8.5-14-19.7-20.1-30.2C1602.6,1668.8,1603.9,1668.5,1605.3,1668.2z"/>
	<path class="st12" d="M1587.2,1324.4c5.6-2.8,10-5.1,15.3-7.7C1601.6,1324.3,1594.8,1327.7,1587.2,1324.4z"/>
	<path class="st24" d="M1626.4,1319.4c0.2,1.5,1.2,3.9,0.6,4.4c-1.4,1.2-3.6,2-5.5,2c-1.4,0-2.8-1.5-4.2-2.4
		C1620.3,1322.1,1623.4,1320.7,1626.4,1319.4z"/>
	<path class="st14" d="M1626.4,1319.4c-3,1.3-6.1,2.7-9.1,4c-2.1,0.6-4.2,1.2-7.1,2c0.9-1.8,1.5-2.9,2.1-3.9c4.4-1,8.7-2,13.1-3
		C1625.7,1318.7,1626.1,1319.1,1626.4,1319.4z"/>
	<path class="st28" d="M1112.5,1639.8c8.4,3.1,8.4,3.1,11.8-5.7c2.3-5.9,5.3-11.6,3.3-18.3c-0.2-0.6,0.4-1.5,0.9-2.7
		c3,1.9,5.7,3.6,7.3,4.6c-1.3,4.4-3.4,8.4-3.6,12.6c-0.3,5.3-2.1,9.3-5.7,12.9c-4,4-7.6,7.9-9.6,13.7c-1.4,4.3-6.1,7.7-9.9,10.8
		c-2.4,1.9-5.6,2.7-7.6-1.9c-1.2-2.8-0.6-3.6,1.7-5c3.2-2,6.2-4.4,8.9-7C1113.9,1650,1116.6,1645.7,1112.5,1639.8z"/>
	<path class="st26" d="M1171.4,1595.4c3-0.6,6-1.2,9.3-1.8c0,3.4-2.5,5.4-5.6,6c-5.4,0.9-7.6,4.3-7.5,9c0.1,6.6-5.8,5.8-9.1,7.4
		c-1.9,0.9-5.4-1.1-7.9-2.4c-0.8-0.4-1.1-2.7-0.8-3.9c0.2-0.6,2.6-1.5,3.3-1c5.6,3.5,7.9-1.3,10.6-4.4c2.6-3,4.6-6.5,6.9-9.8
		C1170.9,1594.9,1171.2,1595.2,1171.4,1595.4z"/>
	<path class="st40" d="M1297.9,1614.6c-6.1-1.3-12.2-2.6-18.2-4c-0.6-0.2-1-1.4-1.5-2.1c1-0.4,2.1-1.4,2.9-1.2
		c5.7,1.9,11.4,4,17,6.1C1298,1613.8,1298,1614.2,1297.9,1614.6z"/>
	<path class="st22" d="M1241.4,1712.4c3.6,2.4,8.8,2.9,10.4,7.6c-0.4,0.5-0.8,1-1.1,1.5c-3.5-2.7-6.9-5.4-10.4-8.1
		C1240.7,1713.1,1241,1712.7,1241.4,1712.4z"/>
	<path class="st27" d="M1526.9,1706.4c-0.4,1.8-0.7,3.5-1.2,5.3c-0.1,0.4-1.2,0.5-1.8,0.8c0.7-7.5,1.4-15.1,2.1-22.6
		c0.3,0,0.6,0,1,0C1526.9,1695.3,1526.9,1700.9,1526.9,1706.4z"/>
	<path class="st41" d="M1452.2,1654.2c-3,2.3-5.9,4.5-8.8,6.8c-0.2-0.2-0.5-0.3-0.7-0.5c1.6-3.2,3.1-6.3,4.9-9.8
		C1449.1,1651.8,1450.9,1653.2,1452.2,1654.2z"/>
	<path class="st9" d="M1499.7,1681.3c-1.7,3.5-3,6.2-4.4,9.2C1491.7,1685.6,1492.6,1683.5,1499.7,1681.3z"/>
	<path class="st6" d="M1399.2,1722.9c0.4,2.6,0.8,5.1,1.3,7.7c-0.8,0.1-1.6,0.3-2.4,0.4c-0.4-2.5-0.9-5-1.3-7.5
		C1397.5,1723.3,1398.3,1723.1,1399.2,1722.9z"/>
	<path class="st22" d="M426.2,1540.5c-10.9-19.7-3.6-39.9,17.9-44.9c-2.4,1.4-3.5,2.2-4.7,2.8c-8,4-7.8,4-5.6,13
		c3.2,13.3,6.3,26.6,9.4,40c-0.5,0.1-0.9,0.2-1.4,0.3c-3.7-15.5-7.3-31.1-11-46.6c-0.5,0-1,0-1.4-0.1c-3.3,6-8.6,11.1-6.6,19.2
		C424.2,1529.7,425.1,1535.1,426.2,1540.5L426.2,1540.5z"/>
	<path class="st22" d="M518.6,1579c-4.6,2.4-7.4-7.6-12.5,0.7c-0.6-0.7-1.4-1.6-2.3-2.5c1.7-1.1,3.7-3.5,4.9-3.1
		C512.2,1575.2,515.3,1577.3,518.6,1579z"/>
	<path class="st42" d="M503.7,1476c-9.3,1.5-18.6,3-27.9,4.4c-0.1-0.4-0.1-0.7-0.2-1.1c9.3-1.6,18.6-3.2,27.9-4.8
		C503.5,1475.1,503.6,1475.5,503.7,1476z"/>
	<path class="st33" d="M426.2,1540.5c5.3,7,10.6,14,15.8,21C435.7,1555.4,428.9,1549.4,426.2,1540.5
		C426.2,1540.5,426.2,1540.5,426.2,1540.5z"/>
	<path class="st31" d="M459.9,1511c4.1-0.3,7.1-0.4,10.8-0.7c-4,2.3-10.5,2.2-6.4,10.2c-0.7-0.3-1.4-0.6-2.1-0.8
		C461.4,1516.7,460.6,1513.7,459.9,1511z"/>
	<path class="st43" d="M1813.4,1422.9c1.3,0.7,2.7,1.3,4,2c-6.5,28-13.2,55.9-19.4,84c-1.7,7.9-2.2,16.2-2.6,24.4
		c-0.9,18.2-2.5,36.4-1.9,54.6c0.6,17.4,3.7,34.8,5.7,52.2c0.3,2.7,0.7,5.4,1,8c-0.3,3.3-1.9,4.4-5,3c-0.3-2.3-0.7-4.7-1-7
		c-1-7.4-1.9-14.9-3-22.3c-2.5-16.4-2.8-32.9-2-49.4c0.4-9.1,1.3-18.3,0.9-27.4c-0.9-20.4,3.2-40.1,7.9-59.7
		C1803,1464.4,1808.2,1443.7,1813.4,1422.9z"/>
	<path class="st25" d="M1847.5,1627c-0.3-0.3-0.7-0.7-1-1c6.3-6.9,6.1-12.7-0.5-19.1c-3.5-3.4-7.2-6.4-10.4-10.1
		c-2.6-3-3-6.6-0.9-11.7c2.2,4.6,3.2,8.5,5.5,11.2c2.4,2.8,6.6,3.9,9.3,6.5C1857.1,1609.9,1855.7,1622.3,1847.5,1627z"/>
	<path class="st40" d="M1875.7,1522.1c1,1.2,1.8,2.1,2.8,3.3c-6.3-0.3-8.9-3.2-8.4-8.7c0.2-2.6-1.5-5.2,1.4-7.7
		c3-2.6,5.2-2.6,6.7,1.1C1880,1514.5,1879,1518.4,1875.7,1522.1z"/>
	<path class="st7" d="M1814.7,1502.1c-0.2,10.4-0.4,20-0.7,29.6c0,1.1-0.7,2.9-1.5,3.2c-1.2,0.4-3,0.1-4.2-0.6
		c-0.5-0.3-0.3-2.2-0.2-3.3c0.3-3.8,1-7.5,1.2-11.3C1809.5,1513.4,1811.8,1507.9,1814.7,1502.1z"/>
	<path class="st33" d="M1857.3,1514.1c-0.7-1.1-1.4-2.1-1.9-3.2c-9.9-19.3-19.9-38.6-29.4-58.1c-2.2-4.5-2.4-9.9-2.9-15
		c2.3,17.2,13.4,30.4,20.2,45.5c4.6,10.3,9.8,20.3,14.8,30.4C1857.9,1513.8,1857.6,1514,1857.3,1514.1z"/>
	<path class="st44" d="M1842.2,1534.1c-4.8-3.7-6.5-9-8.2-14.1c-0.9-2.9-1-6.1-1.2-9.1c-0.1-1.1,0.4-2.3,0.7-3.4
		c0.9,0.8,2.5,1.4,2.7,2.3C1838.3,1517.6,1840.1,1525.5,1842.2,1534.1z"/>
	<path class="st41" d="M1876,1532.4c-3.3,2.3-5.7,4.1-8.4,5.5c-0.4,0.2-2-2-3-3.1c2.4-1.9,4.7-4,7.3-5.6
		C1872.3,1529,1874,1530.8,1876,1532.4z"/>
	<path class="st44" d="M1803.4,1523.3c-1.3-1.1-2.4-1.6-2.6-2.4c-0.5-1.8-0.6-3.8-0.6-5.7c0-0.2,1.3-0.4,2.1-0.6
		c0.4,1.7,0.9,3.3,1.1,5C1803.6,1520.6,1803.4,1521.5,1803.4,1523.3z"/>
	<path class="st2" d="M1795.3,1651.1c3.1,1.4,4.7,0.3,5-3c1.6,10,3.5,20.1,4.8,30.1c0.6,4.8,1.3,9.2,5.1,12.6
		c0.7,0.6,0.9,1.7,1.4,2.8c-2.6,1.5-4.8,5.2-7.8,2.1c-1.8-1.9-2.1-5.3-3.2-8.2c-4.5,3.2-6.1,6.8-2.8,11.2c-3.1,0.8-6,1.1-8.5,2.3
		c-2.7,1.3-5.2,3.3-1.2,6.6c-6.9,4.2-13.2,8-19.5,11.6c-0.8,0.5-2.7,0-3.5-0.7c-2.2-1.8-4-4-6-6c1.7-0.8,3.4-1.7,5.1-2.5
		c-0.7-0.8-1.4-1.7-2.1-2.5c15.8-0.4,25.7-9.9,33.3-22.1c2.1-3.3,2.8-8,2.6-12C1797.7,1665.9,1796.3,1658.5,1795.3,1651.1z"/>
	<path class="st2" d="M1762.1,1707.4c0.7,0.8,1.4,1.7,2.1,2.5c-1.7,0.8-3.4,1.7-5.1,2.5c-8.6-2.6-17.3-3.8-26.2-1.4
		c-5.2,1.4-10.2,1.5-15.7,0.6c-7.4-1.2-14.2,1.6-20.2,5.9c-7.3,5.2-14.7,10-24.1,10c-9.9,0-18.2-3.7-25.5-10.1c1-1,2-2,3-3
		c2.1,1.4,4.1,2.8,6.3,4.2c10.6,6.6,21.2,6.4,31.6-0.3c2.7-1.7,5.1-3.7,7.7-5.6c7.3-5.4,15.3-9,24.6-8.3
		C1734.5,1705.4,1748.3,1706.4,1762.1,1707.4z"/>
	<path class="st2" d="M1580.1,1728.5c4.2-9.7-3.1-13.5-9-18.1c0,0,0,0,0,0c5.6-0.9,9,2.8,12.4,6.2
		C1586.1,1719.2,1584,1725.8,1580.1,1728.5L1580.1,1728.5z"/>
	<path class="st2" d="M1580.2,1728.5c-2.2,6.5-2.8,12.9,1.2,19.6C1572.7,1742.6,1572.5,1736.9,1580.2,1728.5L1580.2,1728.5z"/>
	<path class="st27" d="M1616,1755.8c-2.5,1.6-4.9,3.4-7.5,4.6c-0.8,0.4-2.4-0.8-3.6-1.3c0.7-1.3,1.1-3.4,2.1-3.7
		c2.5-0.9,5.4-1,8.1-1.5C1615.3,1754.5,1615.6,1755.1,1616,1755.8z"/>
	<path class="st27" d="M1817.8,1692.5c-2.5-2.2-4.2-3.5-5.6-5c-0.5-0.6-0.7-2-0.4-2.6c0.4-0.7,1.7-1.4,2.4-1.2
		c0.9,0.2,2.1,1,2.4,1.9C1817.3,1687.2,1817.3,1689,1817.8,1692.5z"/>
	<path class="st17" d="M1071.5,1721.5c0.3,0.3,0.7,0.6,1,1c-2,10.4-4,20.8-6,31.2c-1.2-0.5-2.5-0.8-3.6-1.5c-5.1-3.1-7.3-2.8-11,2
		c-1.7,2.2-3.1,4.7-4.8,7c-1,1.4-2.2,2.6-2.7-0.4c3.6-3.9,7.3-7.7,10.8-11.7c2.3-2.7,0.8-6.4-3.2-8.4c-13.8-7-27.7-13.9-41.4-21
		c-2.4-1.2-4.4-3.1-6.5-4.7c0.3-0.6,0.7-1.1,1-1.7c1.6,0.8,3.2,1.5,4.8,2.4c4.6,2.8,9.1,5.9,13.7,8.6c2.1,1.2,4.7,1.8,6.8,2.9
		c6.9,3.7,13.9,7.3,20.6,11.4c2.5,1.5,4.5,4.1,6.6,6.3c2,2.1,3.9,4.3,7,7.7C1067.1,1741.1,1069.3,1731.3,1071.5,1721.5z"/>
	<path class="st17" d="M1067.5,1754.6c3.7,2.3,7.4,4.7,11.1,7c1.7,1.5,3.3,3,5,4.6c-0.3,0.4-0.6,0.7-0.9,1.1
		C1076.7,1764.3,1072.1,1759.5,1067.5,1754.6z"/>
	<path class="st17" d="M468.8,1590.3c-1.3,0.7-2.7,1.9-4,1.9c-7.6-0.2-11.1,2-14,9c-1.8-5-1.9-5.7,5.2-9.4c3.6-1.9,8.1-2.1,12.2-3.1
		C468.5,1589.2,468.7,1589.7,468.8,1590.3z"/>
	<path class="st17" d="M400,1583.8c7.5-4.9,14.9-9.8,22.4-14.6c0.3,0.4,0.6,0.8,0.8,1.2c-7.4,5-14.8,10-22.1,15.1
		C400.7,1584.8,400.4,1584.3,400,1583.8z"/>
	<path class="st17" d="M459.4,1601.3c2.8-2.5,5.5-4.9,8.3-7.4c0.4,0.5,0.9,1.1,1.3,1.6c-2.9,2.2-5.9,4.5-8.8,6.7
		C459.9,1602,459.7,1601.7,459.4,1601.3z"/>
	<path class="st5" d="M818.1,1753.5c2.9-1.2,5.6-3,8.6-3.4c1.2-0.2,2.8,2.8,4.2,4.3c-1.5,0.8-3,2.2-4.5,2.2c-2.6,0-5.1-0.9-7.7-1.3
		C818.6,1754.6,818.4,1754.1,818.1,1753.5z"/>
	<path class="st29" d="M977,1708.4c3-0.7,6.1-1.4,9.1-2.1c1.5,0,3,0,4.5,0.1c5.3,0.2,6.1,1.2,4.9,6.4c-1.6,7.3-3.1,8-9.1,3.7
		C983,1714.1,980.1,1711.1,977,1708.4z"/>
	<path class="st45" d="M1315.9,1705.3c3.3,2.2,6.5,4.4,9.8,6.6c-0.3,0.4-0.5,0.8-0.8,1.2c-3.4-1.9-6.8-3.8-10.2-5.7
		C1315.1,1706.6,1315.5,1706,1315.9,1705.3z"/>
	<path class="st2" d="M596.2,1275.9c3.9-3.2,7.8-6.3,11.7-9.5c0.3,0.3,0.5,0.5,0.8,0.8c-3.7,3.4-7.4,6.7-11.1,10.1
		C597.1,1276.8,596.7,1276.3,596.2,1275.9z"/>
	<path class="st3" d="M1762.1,1707.4c-13.8-1-27.6-2-41.4-3c-9.4-0.7-17.3,2.9-24.6,8.3c-2.6,1.9-5,3.9-7.7,5.6
		c-10.4,6.7-21,6.9-31.6,0.3c-2.1-1.3-4.2-2.8-6.3-4.2c-5.7-4-11.4-8-17.1-12c-0.8-1.4-1.6-2.8-2.6-4.6c26-9.9,53.1-7.8,79.7-10.1
		c-6.5-0.6-13.1-1.3-19.6-1.9c-0.1-0.6-0.1-1.1-0.2-1.7c14.4-4.6,28.9-9.2,43.3-13.9c1.7-1,3.3-2,5-3c16.2-7.1,32.4-14.2,48.6-21.2
		c2.1-0.9,4.4-1.3,6.7-1.9c0.3,2.3,0.7,4.7,1,7c1,7.4,2.5,14.8,2.8,22.2c0.2,4-0.6,8.7-2.6,12
		C1787.8,1697.5,1777.8,1707,1762.1,1707.4z"/>
	<path class="st40" d="M1679.7,1488.4c2.9-0.3,5.8-0.6,9-1c0.8,1.8,2.5,3.9,2.4,5.9c-0.1,4.2-4.1,5.2-8.6,2.3
		c-1.5-1-2.6-2.8-3.9-4.3C1679,1490.3,1679.3,1489.3,1679.7,1488.4z"/>
	<path class="st37" d="M1679.7,1488.4c-0.3,1-0.7,2-1,2.9c-6.3,3.3-12.7,6.7-18.9,9.9C1660.5,1495.8,1669.6,1489.8,1679.7,1488.4z"
		/>
	<path class="st29" d="M1723.5,1628.4c-0.9,1.2-2.2,2.2-2.6,3.5c-0.5,1.5-0.4,3.2-0.4,4.9c0,1.3,0.4,2.7,0.6,4
		c-1.7,0.2-3.7,1-5.1,0.4c-0.9-0.4-1.9-3.2-1.4-4.1c2-3.5,4.6-6.7,7-10C1722.2,1627.6,1722.9,1628,1723.5,1628.4z"/>
	<path class="st37" d="M1612.1,1518c3.7-6.1,9.1-6.9,16-2.9C1623.6,1521.5,1616.8,1514.2,1612.1,1518z"/>
	<path class="st46" d="M1739,1667.2c-1.7,1-3.3,2-5,3c-2.7-3.2-2.2-6,1-8.4c1-0.8,2.5-1,3.7-1.6c0.3,1.2,0.7,2.4,0.8,3.6
		C1739.6,1664.9,1739.2,1666.1,1739,1667.2z"/>
	<path class="st34" d="M1764.1,1569.7c6-3,6.3-4,3.6-9.8c-1-2.2-1-4.8-1.5-7.2c0.5-0.1,1-0.1,1.5-0.2c1.6,3.8,3.5,7.6,4.6,11.6
		C1773.2,1567.3,1768.1,1570.6,1764.1,1569.7L1764.1,1569.7z"/>
	<path class="st44" d="M1519,1546.8c-1.2,0.4-2.5,0.8-3.8,1.2c0.4,1.2,0.7,2.4,1.3,4.4c-1.7-0.6-3.6-1-3.6-1.2
		c0.4-2.9,1-5.8,1.5-8.7c1.7,0.8,3.5,1.7,5.2,2.5C1519.5,1545.6,1519.3,1546.2,1519,1546.8z"/>
	<path class="st37" d="M1770.8,1502.1c-1.1-1.8-2.5-3-2.2-3.6c0.4-1.3,1.8-2.3,2.7-3.4c0.9,1.1,2.4,2.1,2.4,3.2
		C1773.7,1499.2,1772.2,1500.3,1770.8,1502.1z"/>
	<path class="st34" d="M1764.1,1569.7c-2,2.8-4.2,2.7-6.8,0.7c-1.8-1.4-3.8-2.5-5.5-4.6C1755.9,1567.1,1760,1568.4,1764.1,1569.7
		C1764.1,1569.7,1764.1,1569.7,1764.1,1569.7z"/>
	<path class="st29" d="M1720.7,1514.5c-1.8,1.2-3,2.5-3.6,2.3c-1.1-0.4-2.2-1.7-2.6-2.8c-0.2-0.4,1.6-2.2,2.3-2.2
		C1717.9,1512,1718.9,1513.2,1720.7,1514.5z"/>
	<path class="st33" d="M1738.5,1571.8c0.4-4.7,2.8-5.9,8.3-4.5C1744.3,1568.6,1741.5,1570.2,1738.5,1571.8z"/>
	<path class="st34" d="M1614,1451.5c-3.3,3.7-4.9,3.5-7.6-1.2C1609.3,1450.8,1611.4,1451.1,1614,1451.5z"/>
	<path class="st25" d="M1629.2,1437.5c-1.6,2.7-2.9,4.8-4.2,7.1C1622.9,1440.3,1623.7,1439.1,1629.2,1437.5z"/>
	<path class="st7" d="M768,1647c6-2.3,12.2-4.5,18.1-7.1c2.7-1.2,4.4-1,6.5,1.2c1.4,1.5,4,2,6.3,3c-0.1,4.3-5.6,12-9.9,13.6
		c-3.3,1.3-4-0.9-5-3.1c-1.7-3.6-3.1-7.9-8.6-5.3c-1.1,0.5-1.8,1.9-2.7,2.9c1.1,0.4,2.2,1.1,3.4,1.3c1.3,0.2,3-0.6,3.9-0.1
		c1.4,0.8,2.7,2.4,3.3,3.9c0.2,0.6-1.3,2.5-2.4,3c-10.9,4.2-9.8,7.2-16.1-6.5c-1.5-3.3-1.4-5,2.3-5.8
		C767.2,1647.7,767.6,1647.4,768,1647z"/>
	<path class="st11" d="M1138.9,1301.3c8-4.3,15.6-1,23.4,0.9c-8,0.2-16.2-1-23.4,4.9C1138.9,1305.1,1138.9,1303.2,1138.9,1301.3
		C1138.9,1301.3,1138.9,1301.3,1138.9,1301.3z"/>
	<path class="st43" d="M668.2,1568.4c-2.1,3-7.7,1.3-5.4,5.5c-8.7-2.2-17.8-4.6-26.9-6.9C646.6,1567.3,656.6,1573.3,668.2,1568.4z"
		/>
	<path class="st11" d="M758,1639.9c-7.6-2.5-15.2-5-22.8-7.5c0.2-0.5,0.3-0.9,0.5-1.4c7.6,2.6,15.2,5.2,22.7,7.8
		C758.3,1639.1,758.2,1639.5,758,1639.9z"/>
	<path class="st42" d="M1141.9,1309.6c0,4.7,0,9.5,0,14.2c-0.4,0-0.9,0-1.3,0c0-4.7,0-9.4,0-14.2
		C1141,1309.6,1141.4,1309.6,1141.9,1309.6z"/>
	<path class="st25" d="M768,1647c-0.4,0.4-0.8,0.7-1.1,1.1c-0.3-0.2-0.6-0.3-0.9-0.5c-1.3-1-2.6-2-3.8-3c0.7-0.5,1.9-1.6,2-1.5
		C765.5,1644.3,766.7,1645.7,768,1647z"/>
	<path class="st47" d="M687.7,1456.9c0.4-2.1,0.8-4.1,1.3-6.2c0.7,0.2,1.5,0.3,2.2,0.5c-0.4,2.1-0.9,4.1-1.3,6.2
		C689.1,1457.2,688.4,1457,687.7,1456.9z"/>
</g>
</svg>
