<svg 
 xmlns="http://www.w3.org/2000/svg"
 xmlns:xlink="http://www.w3.org/1999/xlink"
 width="74px" height="74px">
<path fill-rule="evenodd"  fill="rgb(17, 196, 90)"
 d="M36.999,74.000 C16.597,74.000 -0.001,57.401 -0.001,36.999 C-0.001,16.596 16.597,-0.002 36.999,-0.002 C57.401,-0.002 74.000,16.596 74.000,36.999 C74.000,57.401 57.401,74.000 36.999,74.000 ZM10.386,24.198 C8.511,28.078 7.430,32.409 7.430,36.999 C7.430,48.429 13.961,58.345 23.477,63.264 C23.379,59.629 21.877,52.968 15.823,42.020 C10.616,32.604 10.050,27.954 10.386,24.198 ZM33.745,8.184 C25.235,8.184 18.273,15.262 17.771,24.157 C17.869,26.035 18.046,27.822 18.242,29.396 C19.727,35.530 24.360,40.328 30.200,41.738 C29.359,39.842 28.650,37.919 28.499,35.780 C28.434,34.851 28.828,33.408 28.919,32.480 C28.967,31.987 29.201,31.513 29.363,30.994 C28.007,30.851 26.658,30.974 25.437,31.812 C24.130,32.709 23.040,33.833 21.995,35.009 C21.796,35.233 21.601,35.463 21.372,35.727 C21.360,35.609 21.347,35.539 21.347,35.470 C21.360,33.847 21.563,32.260 22.235,30.762 C23.164,28.694 24.851,27.757 27.090,28.094 C27.694,28.185 28.285,28.358 28.903,28.499 C28.555,28.093 28.133,27.795 27.667,27.555 C26.414,26.909 25.076,26.834 23.709,26.994 C22.452,27.139 21.250,27.497 20.044,27.947 C20.277,27.687 20.499,27.415 20.743,27.166 C21.951,25.931 23.277,24.857 24.925,24.259 C26.974,23.517 28.703,23.958 30.166,25.569 C30.242,25.653 30.323,25.731 30.424,25.836 C30.183,24.805 30.650,24.041 31.283,23.357 C32.670,21.859 34.464,21.135 36.458,20.677 C36.217,21.225 35.992,21.723 35.778,22.226 C35.501,22.878 35.192,23.522 34.970,24.193 C34.740,24.892 34.339,25.430 33.758,25.858 C33.607,25.969 33.474,26.103 33.341,26.233 C35.432,24.891 37.710,24.421 40.158,24.762 C41.136,24.899 42.063,25.203 42.805,25.893 C43.068,26.139 43.270,26.451 43.539,26.781 C41.127,26.198 38.856,26.568 36.607,27.168 C36.095,27.304 35.620,27.585 35.133,27.810 C35.039,27.853 34.969,27.949 34.915,28.064 C35.155,28.025 35.394,27.977 35.635,27.947 C37.588,27.700 39.158,28.395 40.389,29.900 C40.888,30.509 41.290,31.180 41.593,31.924 C39.839,30.797 38.073,29.727 35.831,30.090 C36.302,31.551 36.625,33.005 36.177,34.545 C35.660,34.435 35.250,34.198 34.866,33.903 C34.061,33.283 33.478,32.507 33.104,31.555 C32.773,30.711 32.058,30.582 31.409,31.130 C31.363,32.352 31.439,36.373 34.273,38.222 C36.535,39.698 40.958,39.767 44.214,38.013 C47.608,34.895 49.767,30.303 49.767,25.177 C49.767,15.807 42.579,8.184 33.745,8.184 ZM52.344,11.771 C54.878,15.582 56.373,20.199 56.373,25.177 C56.373,38.191 46.222,48.777 33.745,48.777 C30.933,48.777 28.250,48.215 25.763,47.233 C26.127,47.886 26.355,48.282 26.355,48.282 C26.355,48.282 29.318,53.181 32.665,59.186 C34.602,62.662 39.171,64.809 42.683,66.007 C56.276,63.348 66.569,51.358 66.569,36.999 C66.569,26.317 60.856,16.968 52.344,11.771 Z"/>
</svg>