<svg xmlns="http://www.w3.org/2000/svg" width="36" height="29" viewBox="0 0 36 29">
  <metadata><?xpacket begin="﻿" id="W5M0MpCehiHzreSzNTczkc9d"?>
<x:xmpmeta xmlns:x="adobe:ns:meta/" x:xmptk="Adobe XMP Core 5.6-c138 79.159824, 2016/09/14-01:09:01        ">
   <rdf:RDF xmlns:rdf="http://www.w3.org/1999/02/22-rdf-syntax-ns#">
      <rdf:Description rdf:about=""/>
   </rdf:RDF>
</x:xmpmeta>
                                                                                                    
                                                                                                    
                                                                                                    
                                                                                                    
                                                                                                    
                                                                                                    
                                                                                                    
                                                                                                    
                                                                                                    
                                                                                                    
                                                                                                    
                                                                                                    
                                                                                                    
                                                                                                    
                                                                                                    
                                                                                                    
                                                                                                    
                                                                                                    
                                                                                                    
                                                                                                    
                           
<?xpacket end="w"?></metadata>
<defs>
    <style>
      .cls-1 {
        fill: #bdc0c5;
        fill-rule: evenodd;
      }
    </style>
  </defs>
  <path id="ИКОНКА_ВЫХОДНОЙ" data-name="ИКОНКА ВЫХОДНОЙ" class="cls-1" d="M959,4419.61h-3.761V4424h-3.21v-4.39H929.976v4.38H926.74v-4.4H923v-3.2c0.116-.01.228-0.02,0.341-0.02h35.378c0.094,0,.187.01,0.281,0.01v3.23Zm-0.094-5.25H923.075c0.087-.14.148-0.25,0.213-0.35,1.176-1.86,2.358-3.71,3.522-5.57a1.381,1.381,0,0,0,.193-0.68q0.018-5.4,0-10.8a0.718,0.718,0,0,1,.243-0.58q0.588-.555,1.143-1.14a0.716,0.716,0,0,1,.583-0.24q9.145,0.015,18.29,0c1.911,0,3.822.01,5.733,0a0.746,0.746,0,0,1,.585.23,6.049,6.049,0,0,1,1.321,1.43,5.237,5.237,0,0,1,.062,1.91c0,3.06,0,6.12.01,9.18a1.407,1.407,0,0,0,.21.71c1.157,1.86,2.332,3.7,3.5,5.54C958.754,4414.11,958.816,4414.21,958.906,4414.36Zm-28.647-16.12v7.97a50.11,50.11,0,0,1,21.462,0v-7.97H930.259Zm9.414,5.15a32.5,32.5,0,0,0-7.206.95c-0.009-.16-0.021-0.29-0.022-0.41,0-.71.025-1.42-0.008-2.13a1.679,1.679,0,0,1,.886-1.6,5.26,5.26,0,0,1,3.175-.69,4.915,4.915,0,0,1,2.148.6,1.735,1.735,0,0,1,1.035,1.75C939.642,4402.36,939.673,4402.86,939.673,4403.39Zm9.838,0.9c-0.928-.18-1.817-0.41-2.72-0.52-1.36-.16-2.728-0.26-4.094-0.35a0.339,0.339,0,0,1-.4-0.43c0.024-.45.015-0.91,0-1.36a1.446,1.446,0,0,1,.513-1.15,3.882,3.882,0,0,1,1.994-.88,5.753,5.753,0,0,1,3.307.32,2.9,2.9,0,0,1,.881.56,1.538,1.538,0,0,1,.491.85C949.549,4402.31,949.511,4403.29,949.511,4404.29Z" transform="translate(-923 -4395)"/>
</svg>
