<svg xmlns="http://www.w3.org/2000/svg" width="24" height="24" viewBox="0 0 24 24">
  <metadata><?xpacket begin="﻿" id="W5M0MpCehiHzreSzNTczkc9d"?>
<x:xmpmeta xmlns:x="adobe:ns:meta/" x:xmptk="Adobe XMP Core 5.6-c138 79.159824, 2016/09/14-01:09:01        ">
   <rdf:RDF xmlns:rdf="http://www.w3.org/1999/02/22-rdf-syntax-ns#">
      <rdf:Description rdf:about=""/>
   </rdf:RDF>
</x:xmpmeta>
                                                                                                    
                                                                                                    
                                                                                                    
                                                                                                    
                                                                                                    
                                                                                                    
                                                                                                    
                                                                                                    
                                                                                                    
                                                                                                    
                                                                                                    
                                                                                                    
                                                                                                    
                                                                                                    
                                                                                                    
                                                                                                    
                                                                                                    
                                                                                                    
                                                                                                    
                                                                                                    
                           
<?xpacket end="w"?></metadata>
<defs>
    <style>
      .cls-1 {
        fill: #fff;
        fill-rule: evenodd;
      }
    </style>
  </defs>
  <path class="cls-1" d="M469.25,10504h1.68a12.732,12.732,0,0,1,5.05,1.6,11.907,11.907,0,0,1,5.836,8.3c0.081,0.5.123,0.9,0.184,1.4v1.5c-0.035.2-.065,0.5-0.106,0.8a11.318,11.318,0,0,1-3.291,6.7,12.01,12.01,0,0,1-18.2-1.1,12,12,0,0,1,.572-15.1,11.9,11.9,0,0,1,6.983-3.9C468.384,10504.1,468.818,10504.1,469.25,10504Zm1.583,12.6v-0.3q0-3.6,0-7.2a0.835,0.835,0,1,0-1.666,0c0,2.7,0,5.5,0,8.3a0.863,0.863,0,0,0,.906.9h5.039a0.873,0.873,0,0,0,.9-0.9,0.863,0.863,0,0,0-.908-0.8h-4.27Z" transform="translate(-458 -10504)"/>
</svg>
