<svg xmlns="http://www.w3.org/2000/svg" width="31" height="18" viewBox="0 0 31 18">
  <metadata><?xpacket begin="﻿" id="W5M0MpCehiHzreSzNTczkc9d"?>
<x:xmpmeta xmlns:x="adobe:ns:meta/" x:xmptk="Adobe XMP Core 5.6-c138 79.159824, 2016/09/14-01:09:01        ">
   <rdf:RDF xmlns:rdf="http://www.w3.org/1999/02/22-rdf-syntax-ns#">
      <rdf:Description rdf:about=""/>
   </rdf:RDF>
</x:xmpmeta>
                                                                                                    
                                                                                                    
                                                                                                    
                                                                                                    
                                                                                                    
                                                                                                    
                                                                                                    
                                                                                                    
                                                                                                    
                                                                                                    
                                                                                                    
                                                                                                    
                                                                                                    
                                                                                                    
                                                                                                    
                                                                                                    
                                                                                                    
                                                                                                    
                                                                                                    
                                                                                                    
                           
<?xpacket end="w"?></metadata>
<defs>
    <style>
      .cls-1 {
        fill: #979797;
        fill-rule: evenodd;
      }
    </style>
  </defs>
  <path id="иконка_глаз" data-name="иконка глаз" class="cls-1" d="M532,3156.23c-0.3.43-.564,0.88-0.9,1.28a21.04,21.04,0,0,1-7,5.64,16.641,16.641,0,0,1-16.073-.46,22.163,22.163,0,0,1-6.744-5.95,1.119,1.119,0,0,1-.035-1.45,21.16,21.16,0,0,1,9.027-7.06,16.552,16.552,0,0,1,14.857,1.16,22.114,22.114,0,0,1,6.585,5.86,3.4,3.4,0,0,1,.28.51v0.47Zm-15.69-6.57a6.336,6.336,0,1,0,6.713,6.13A6.443,6.443,0,0,0,516.31,3149.66Zm0.239,2.92a3.451,3.451,0,0,1,3.467,3.43A3.51,3.51,0,1,1,516.549,3152.58Z" transform="translate(-501 -3147)"/>
</svg>
