<svg xmlns="http://www.w3.org/2000/svg" width="29.03" height="29.031" viewBox="0 0 29.03 29.031">
  <path id="facebook" fill="#dbdbdb" d="M1052,61.472V59.427c0.06-.377.11-0.755,0.19-1.131a13.107,13.107,0,0,1,5.77-8.708,14.838,14.838,0,0,1,11.12-2.37,14.1,14.1,0,0,1,9.73,6.133,12.194,12.194,0,0,1,1.87,9.877,13.116,13.116,0,0,1-6.81,8.8,15.077,15.077,0,0,1-11.2,1.4,0.76,0.76,0,0,0-.61.076c-1.45.81-2.91,1.605-4.37,2.4a1.519,1.519,0,0,1-.3.1c0-1.644.01-3.288,0-4.931a0.5,0.5,0,0,0-.18-0.286c-0.48-.433-0.98-0.829-1.43-1.286a12.834,12.834,0,0,1-3.62-7.092C1052.11,62.093,1052.05,61.782,1052,61.472Zm12.25-.3c1.23,1.318,2.46,2.627,3.69,3.947q3.87-4.114,7.7-8.189c-0.02-.025-0.05-0.05-0.07-0.075-0.09.051-.19,0.1-0.29,0.152-2.09,1.164-4.19,2.324-6.28,3.495a0.307,0.307,0,0,1-.45-0.069c-1.11-1.181-2.24-2.352-3.36-3.529a1.478,1.478,0,0,1-.16-0.289c-2.67,2.852-5.26,5.607-7.85,8.36l0.03,0.052C1059.55,63.744,1061.89,62.461,1064.25,61.17Z" transform="translate(-1052 -46.969)"/>
</svg>
