<svg xmlns="http://www.w3.org/2000/svg" width="19.969" height="28" viewBox="0 0 19.969 28">
  <metadata><?xpacket begin="﻿" id="W5M0MpCehiHzreSzNTczkc9d"?>
<x:xmpmeta xmlns:x="adobe:ns:meta/" x:xmptk="Adobe XMP Core 5.6-c138 79.159824, 2016/09/14-01:09:01        ">
   <rdf:RDF xmlns:rdf="http://www.w3.org/1999/02/22-rdf-syntax-ns#">
      <rdf:Description rdf:about=""/>
   </rdf:RDF>
</x:xmpmeta>
                                                                                                    
                                                                                                    
                                                                                                    
                                                                                                    
                                                                                                    
                                                                                                    
                                                                                                    
                                                                                                    
                                                                                                    
                                                                                                    
                                                                                                    
                                                                                                    
                                                                                                    
                                                                                                    
                                                                                                    
                                                                                                    
                                                                                                    
                                                                                                    
                                                                                                    
                                                                                                    
                           
<?xpacket end="w"?></metadata>
<defs>
    <style>
      .cls-1 {
        fill: #fff;
        fill-rule: evenodd;
      }
    </style>
  </defs>
  <path class="cls-1" d="M468.689,10669c0.582,0.1,1.171.2,1.743,0.3a10.087,10.087,0,0,1,7.485,8.7,11.851,11.851,0,0,1-.8,5.4,37.05,37.05,0,0,1-4.208,7.8,54.618,54.618,0,0,1-4.156,5.4,0.969,0.969,0,0,1-1.531,0,56.119,56.119,0,0,1-7.022-10.2,20.766,20.766,0,0,1-1.99-5.3,10.065,10.065,0,0,1,5.1-10.9,12.463,12.463,0,0,1,3.793-1.2h1.58Zm4.323,10.1a5.024,5.024,0,1,0-5.037,5.1A4.962,4.962,0,0,0,473.012,10679.1Z" transform="translate(-458 -10669)"/>
</svg>
