<svg xmlns="http://www.w3.org/2000/svg" width="29" height="28" viewBox="0 0 29 28">
  <metadata><?xpacket begin="﻿" id="W5M0MpCehiHzreSzNTczkc9d"?>
<x:xmpmeta xmlns:x="adobe:ns:meta/" x:xmptk="Adobe XMP Core 5.6-c138 79.159824, 2016/09/14-01:09:01        ">
   <rdf:RDF xmlns:rdf="http://www.w3.org/1999/02/22-rdf-syntax-ns#">
      <rdf:Description rdf:about=""/>
   </rdf:RDF>
</x:xmpmeta>
                                                                                                    
                                                                                                    
                                                                                                    
                                                                                                    
                                                                                                    
                                                                                                    
                                                                                                    
                                                                                                    
                                                                                                    
                                                                                                    
                                                                                                    
                                                                                                    
                                                                                                    
                                                                                                    
                                                                                                    
                                                                                                    
                                                                                                    
                                                                                                    
                                                                                                    
                                                                                                    
                           
<?xpacket end="w"?></metadata>
<defs>
    <style>
      .cls-1 {
        fill: #787878;
        fill-rule: evenodd;
      }
    </style>
  </defs>
  <path id="ИКОНКА_ШЕСТЕРЕНКА" data-name="ИКОНКА ШЕСТЕРЕНКА" class="cls-1" d="M1026.02,5118.79l-0.73-1.71a31.193,31.193,0,0,0,1.55-3.93l-2.26-2.17a31.71,31.71,0,0,0-4,1.58l-1.77-.71a29.946,29.946,0,0,0-1.78-3.84h-3.18a29.117,29.117,0,0,0-1.67,3.85l-1.77.71a32.742,32.742,0,0,0-4.08-1.5l-2.25,2.17a29.836,29.836,0,0,0,1.64,3.86l-0.73,1.71a32.536,32.536,0,0,0-3.98,1.72v3.07a31.717,31.717,0,0,0,3.99,1.61l0.73,1.71a31.221,31.221,0,0,0-1.56,3.93l2.26,2.18a33.32,33.32,0,0,0,4-1.59l1.77,0.71a31.369,31.369,0,0,0,1.78,3.84h3.18a29.117,29.117,0,0,0,1.67-3.85l1.78-.71a32.589,32.589,0,0,0,4.07,1.5l2.25-2.17a28.507,28.507,0,0,0-1.64-3.86l0.73-1.71a32.536,32.536,0,0,0,3.98-1.72v-3.07A31.592,31.592,0,0,0,1026.02,5118.79Zm-5.87,3.21a4.648,4.648,0,1,1-4.64-4.48A4.567,4.567,0,0,1,1020.15,5122Z" transform="translate(-1001 -5108)"/>
</svg>
