<svg xmlns="http://www.w3.org/2000/svg" width="23" height="30" viewBox="0 0 23 30">
  <metadata><?xpacket begin="﻿" id="W5M0MpCehiHzreSzNTczkc9d"?>
<x:xmpmeta xmlns:x="adobe:ns:meta/" x:xmptk="Adobe XMP Core 5.6-c138 79.159824, 2016/09/14-01:09:01        ">
   <rdf:RDF xmlns:rdf="http://www.w3.org/1999/02/22-rdf-syntax-ns#">
      <rdf:Description rdf:about=""/>
   </rdf:RDF>
</x:xmpmeta>
                                                                                                    
                                                                                                    
                                                                                                    
                                                                                                    
                                                                                                    
                                                                                                    
                                                                                                    
                                                                                                    
                                                                                                    
                                                                                                    
                                                                                                    
                                                                                                    
                                                                                                    
                                                                                                    
                                                                                                    
                                                                                                    
                                                                                                    
                                                                                                    
                                                                                                    
                                                                                                    
                           
<?xpacket end="w"?></metadata>
<defs>
    <style>
      .cls-1 {
        fill: #787878;
        fill-rule: evenodd;
      }
    </style>
  </defs>
  <path class="cls-1" d="M468.682,3352h1.636c0.353,0.06.707,0.11,1.058,0.18a9.29,9.29,0,0,1,7.348,8.31c0.089,1.08.044,2.17,0.06,3.25,0,0.12,0,.23,0,0.38h0.434a1.512,1.512,0,0,1,1.472.87,2.655,2.655,0,0,1,.31,1.35q0,6.7,0,13.42a3.946,3.946,0,0,1-.052.64,1.742,1.742,0,0,1-1.69,1.59c-6.5.01-13.008,0-19.512,0.01a1.516,1.516,0,0,1-1.294-.67,2.5,2.5,0,0,1-.449-1.54q0-6.75,0-13.48a3.8,3.8,0,0,1,.051-0.61,1.744,1.744,0,0,1,1.845-1.58c0.1,0,.19-0.01.317-0.02,0-.15,0-0.28,0-0.42a20.367,20.367,0,0,1,.174-4.05,9.189,9.189,0,0,1,6.81-7.35C467.681,3352.15,468.187,3352.09,468.682,3352Zm6.237,12.1a1.549,1.549,0,0,0,.017-0.18c-0.016-1.09.053-2.19-.068-3.28a5.408,5.408,0,0,0-10.627-.64,17.98,17.98,0,0,0-.165,4.05,0.105,0.105,0,0,0,.036.05h10.807Zm-7.272,11.08c0,0.64,0,1.27,0,1.9a0.9,0.9,0,0,0,.987.98q0.832,0.015,1.664,0a0.926,0.926,0,0,0,1.054-1.06c0-1.22-.006-2.46.007-3.68a0.867,0.867,0,0,1,.167-0.47,2.648,2.648,0,0,0,.542-1.43,2.5,2.5,0,0,0-2.624-2.67,2.4,2.4,0,0,0-2.265,1.42,2.465,2.465,0,0,0,.328,2.72,0.665,0.665,0,0,1,.133.36C467.654,3373.89,467.647,3374.54,467.647,3375.18Z" transform="translate(-458 -3352)"/>
</svg>
