<svg xmlns="http://www.w3.org/2000/svg" width="31" height="31" viewBox="0 0 31 31">
  <metadata><?xpacket begin="﻿" id="W5M0MpCehiHzreSzNTczkc9d"?>
<x:xmpmeta xmlns:x="adobe:ns:meta/" x:xmptk="Adobe XMP Core 5.6-c138 79.159824, 2016/09/14-01:09:01        ">
   <rdf:RDF xmlns:rdf="http://www.w3.org/1999/02/22-rdf-syntax-ns#">
      <rdf:Description rdf:about=""/>
   </rdf:RDF>
</x:xmpmeta>
                                                                                                    
                                                                                                    
                                                                                                    
                                                                                                    
                                                                                                    
                                                                                                    
                                                                                                    
                                                                                                    
                                                                                                    
                                                                                                    
                                                                                                    
                                                                                                    
                                                                                                    
                                                                                                    
                                                                                                    
                                                                                                    
                                                                                                    
                                                                                                    
                                                                                                    
                                                                                                    
                           
<?xpacket end="w"?></metadata>
<defs>
    <style>
      .cls-1 {
        fill: #252525;
        fill-rule: evenodd;
      }
    </style>
  </defs>
  <path id="ИКОНКА_ДЕНЬ" data-name="ИКОНКА ДЕНЬ" class="cls-1" d="M685.742,4393a1.2,1.2,0,0,1,.779,1.31c-0.027.54,0,1.09-.007,1.63a1.018,1.018,0,1,1-2.029,0c0-.54.02-1.09-0.007-1.63a1.2,1.2,0,0,1,.779-1.31h0.485ZM701,4408.74a1.194,1.194,0,0,1-1.314.78c-0.542-.03-1.086,0-1.63-0.01a1.014,1.014,0,1,1,0-2.02c0.543-.01,1.088.02,1.63-0.01a1.192,1.192,0,0,1,1.313.78v0.48Zm-6.063-.25a9.438,9.438,0,1,1-9.447-9.43A9.467,9.467,0,0,1,694.937,4408.49Zm-9.424-7.4a7.41,7.41,0,1,0,7.395,7.42A7.409,7.409,0,0,0,685.513,4401.09Zm-13.476,6.4c0.322,0,.644-0.01.966,0a1.011,1.011,0,1,1,0,2.02q-0.982.015-1.963,0a1.01,1.01,0,1,1,0-2.02C671.372,4407.48,671.7,4407.49,672.037,4407.49Zm14.477,14.5c0,0.32.009,0.65,0,.97a1.013,1.013,0,1,1-2.026,0c-0.012-.65-0.012-1.31,0-1.96a1.014,1.014,0,1,1,2.026-.01C686.523,4421.33,686.514,4421.66,686.514,4421.99Zm-10.808-7.27a0.939,0.939,0,0,1-.443.85c-0.61.37-1.226,0.73-1.855,1.07a0.991,0.991,0,0,1-1.334-.4,0.977,0.977,0,0,1,.341-1.34c0.6-.37,1.207-0.73,1.829-1.06A1,1,0,0,1,675.706,4414.72Zm16.012-16.02a0.976,0.976,0,0,1-.9-1.4c0.335-.67.718-1.31,1.114-1.94a1,1,0,0,1,1.724,1c-0.346.66-.728,1.3-1.114,1.93A0.892,0.892,0,0,1,691.718,4398.7Zm-16.013,3.56a0.985,0.985,0,0,1-1.42.91c-0.653-.33-1.286-0.71-1.908-1.09a1.005,1.005,0,0,1,.992-1.74c0.649,0.35,1.28.72,1.909,1.1A0.927,0.927,0,0,1,675.705,4402.26Zm3.418-3.56a0.882,0.882,0,0,1-.714-0.47c-0.354-.6-0.707-1.2-1.039-1.81a1,1,0,0,1,1.741-1c0.362,0.6.715,1.2,1.041,1.81A1.013,1.013,0,0,1,679.123,4398.7Zm18.953,1.53a1.034,1.034,0,0,1,.923.69,0.939,0.939,0,0,1-.319,1.11c-0.653.41-1.322,0.81-2.009,1.16a0.955,0.955,0,0,1-1.263-.45,0.99,0.99,0,0,1,.327-1.31c0.616-.38,1.248-0.73,1.881-1.08A1.427,1.427,0,0,1,698.076,4400.23Zm-0.029,16.55a2.208,2.208,0,0,1-.507-0.17c-0.589-.33-1.175-0.66-1.751-1.01a1.005,1.005,0,0,1,.99-1.75c0.609,0.33,1.209.68,1.8,1.04a0.981,0.981,0,0,1,.435,1.13A1.064,1.064,0,0,1,698.047,4416.78Zm-20.837,4.26a3.807,3.807,0,0,1,.21-0.56c0.3-.54.616-1.08,0.933-1.62a1.013,1.013,0,1,1,1.751,1.01c-0.322.56-.645,1.13-0.983,1.69a0.982,0.982,0,0,1-1.144.46A1.09,1.09,0,0,1,677.21,4421.04Zm14.662-2.74a0.863,0.863,0,0,1,.7.45c0.362,0.6.719,1.21,1.055,1.83a1,1,0,0,1-1.744.99c-0.361-.59-0.715-1.19-1.041-1.8A1.014,1.014,0,0,1,691.872,4418.3Zm-11.76-9.97a5.4,5.4,0,0,1,5.334-5.22,1.02,1.02,0,0,1,1.066.97,1,1,0,0,1-.993,1.04,3.367,3.367,0,0,0-3.246,2.44,3.187,3.187,0,0,0-.134.86A1.021,1.021,0,1,1,680.112,4408.33Z" transform="translate(-670 -4393)"/>
</svg>
