<svg xmlns="http://www.w3.org/2000/svg" width="17" height="28" viewBox="0 0 17 28">
  <metadata><?xpacket begin="﻿" id="W5M0MpCehiHzreSzNTczkc9d"?>
<x:xmpmeta xmlns:x="adobe:ns:meta/" x:xmptk="Adobe XMP Core 5.6-c138 79.159824, 2016/09/14-01:09:01        ">
   <rdf:RDF xmlns:rdf="http://www.w3.org/1999/02/22-rdf-syntax-ns#">
      <rdf:Description rdf:about=""/>
   </rdf:RDF>
</x:xmpmeta>
                                                                                                    
                                                                                                    
                                                                                                    
                                                                                                    
                                                                                                    
                                                                                                    
                                                                                                    
                                                                                                    
                                                                                                    
                                                                                                    
                                                                                                    
                                                                                                    
                                                                                                    
                                                                                                    
                                                                                                    
                                                                                                    
                                                                                                    
                                                                                                    
                                                                                                    
                                                                                                    
                           
<?xpacket end="w"?></metadata>
<defs>
    <style>
      .cls-1 {
        fill: #fff;
        fill-rule: evenodd;
      }
    </style>
  </defs>
  <path class="cls-1" d="M464.468,10865h-2.459a1.478,1.478,0,0,1-1.566-1.4,8.634,8.634,0,0,0-2-4.3,9.152,9.152,0,0,1-2.445-6.6,8.813,8.813,0,0,1,6.891-8.5,8.425,8.425,0,0,1,9.909,7,8.819,8.819,0,0,1-2.034,7.8,9.505,9.505,0,0,0-2.251,4.7,1.421,1.421,0,0,1-1.454,1.3h-2.593Zm-0.152-18.5a1.024,1.024,0,0,1-.535.1,6.332,6.332,0,0,0-5.419,6.3,0.932,0.932,0,0,0,.9,1.1,0.908,0.908,0,0,0,1.018-1,6.612,6.612,0,0,1,.384-1.8,4.072,4.072,0,0,1,3.667-2.6,0.969,0.969,0,0,0,.94-0.5,0.936,0.936,0,0,0,.057-1A1.1,1.1,0,0,0,464.316,10846.5Zm0.189,19.9h2.829a0.992,0.992,0,0,1,1.085,1.1c0,0.3.008,0.7-.006,1a1.73,1.73,0,0,1-1.082,1.6c-0.223,0-.305.1-0.348,0.4-0.045.2-.1,0.4-0.169,0.6a1.11,1.11,0,0,1-1.131.9h-2.391a1.112,1.112,0,0,1-1.131-.9,1.827,1.827,0,0,1-.05-0.2,1.174,1.174,0,0,0-.7-1,1.384,1.384,0,0,1-.837-1.3c-0.025-.4-0.025-0.8-0.01-1.2a0.913,0.913,0,0,1,1.013-1A28.635,28.635,0,0,1,464.505,10866.4Z" transform="translate(-456 -10844)"/>
</svg>
