<svg xmlns="http://www.w3.org/2000/svg" width="31.03" height="26.969" viewBox="0 0 31.03 26.969">
  <path id="telegram" fill="#dbdbdb" d="M1032,50.083q-0.27,1.276-.54,2.552-1.98,9.72-3.97,19.44c-0.09.475-.18,0.951-0.29,1.42-0.39,1.543-1.47,1.933-2.71.989-2.11-1.618-4.23-3.24-6.34-4.861-0.62-.473-0.62-0.474-1.17.07-1.02,1.027-2.06,2.053-3.08,3.084a1.648,1.648,0,0,1-1.24.528c0.03-.454.06-0.9,0.09-1.347,0.13-1.967.27-3.934,0.4-5.9a0.691,0.691,0,0,1,.25-0.5q6.39-6,12.79-12.007a0.6,0.6,0,0,0,.14-0.127c0.08-.154.15-0.316,0.23-0.474a1.687,1.687,0,0,0-.55-0.1,1.509,1.509,0,0,0-.57.271q-7.965,5.2-15.92,10.417a0.776,0.776,0,0,1-.75.107c-2.2-.73-4.41-1.434-6.61-2.163a2.958,2.958,0,0,1-.83-0.43,0.69,0.69,0,0,1-.09-1.131,3.507,3.507,0,0,1,1.03-.7c2.07-.856,4.15-1.681,6.23-2.513q10.665-4.27,21.34-8.534a2.323,2.323,0,0,1,.64-0.172,1.253,1.253,0,0,1,1.46,1.089c0.02,0.06.04,0.117,0.06,0.176v0.823Z" transform="translate(-1000.97 -48)"/>
</svg>
