<svg xmlns="http://www.w3.org/2000/svg" width="24.031" height="30" viewBox="0 0 24.031 30" fill='#787878'>
  <path d="M472.8,4215c0.505,0.09,1.017.14,1.512,0.26a4.484,4.484,0,0,1,3.482,3.08,10.705,10.705,0,0,1,.063,6.82,6.865,6.865,0,0,1-1.873,2.89,5.707,5.707,0,0,1-8.08-.11,7.324,7.324,0,0,1-2.167-4.4,11.715,11.715,0,0,1,.37-4.96,4.8,4.8,0,0,1,4.271-3.46l0.819-.12h1.6Zm-1.113,30a28.97,28.97,0,0,1-6.919-.77,11.62,11.62,0,0,1-3.565-1.47c-0.1-.07-0.195-0.15-0.3-0.21a1.848,1.848,0,0,1-.923-1.89c0.162-1.37.178-2.76,0.309-4.14a6.97,6.97,0,0,1,.709-2.44,5.625,5.625,0,0,1,3.057-2.68,20.639,20.639,0,0,1,4.319-1.14,0.347,0.347,0,0,1,.237.08,5.513,5.513,0,0,0,6.779-.01,0.281,0.281,0,0,1,.213-0.07,18.694,18.694,0,0,1,4.766,1.34,5.606,5.606,0,0,1,3.216,4.24,30.387,30.387,0,0,1,.405,5.6,0.879,0.879,0,0,1-.257.51,6,6,0,0,1-1.911,1.36,15.958,15.958,0,0,1-4.6,1.33A36.443,36.443,0,0,1,471.691,4245Z" transform="translate(-459.969 -4215)"/>
</svg>
