<svg xmlns="http://www.w3.org/2000/svg" width="28.97" height="29" viewBox="0 0 28.97 29">
  <path id="viber" fill="#dbdbdb" d="M1128,69.852a7.987,7.987,0,0,1-3.02,4.157,4.1,4.1,0,0,1-4.48.585,38.832,38.832,0,0,1-10.68-6.449,35.711,35.711,0,0,1-10.44-14.965,4.4,4.4,0,0,1-.33-2.324,2.793,2.793,0,0,1,.63-1.312,13.084,13.084,0,0,1,3.51-2.78,2.686,2.686,0,0,1,3.1.439,19.357,19.357,0,0,1,2.65,3.082,11.954,11.954,0,0,1,1.61,2.628,2.552,2.552,0,0,1,.18,1.841,2.477,2.477,0,0,1-.77,1.07c-0.46.394-.92,0.784-1.39,1.157a1.234,1.234,0,0,0-.47,1.28,7.7,7.7,0,0,0,1.66,3.485,13.285,13.285,0,0,0,5.3,4.085,5.452,5.452,0,0,0,1.09.3,1,1,0,0,0,1-.392c0.3-.385.64-0.745,0.94-1.134a2.837,2.837,0,0,1,3.66-.718,29.51,29.51,0,0,1,5.55,3.944,2.575,2.575,0,0,1,.7,1.291v0.737Zm0-9.461a1.361,1.361,0,0,1-1.03,1.05,1.281,1.281,0,0,1-1.58-1.063c-0.09-.654-0.09-1.318-0.17-1.973a10.454,10.454,0,0,0-6.45-8.972,10.942,10.942,0,0,0-3.86-.771,6.347,6.347,0,0,1-.87-0.088,1.222,1.222,0,0,1-1.02-1.247,1.261,1.261,0,0,1,.95-1.279c0.03-.01.06-0.032,0.1-0.048h1.19c0.12,0.018.23,0.041,0.36,0.051a12.3,12.3,0,0,1,3.13.557,12.971,12.971,0,0,1,9.02,10.718c0.11,0.618.16,1.249,0.23,1.874V60.39Zm-3.89-1.873c0,0.264-.01.528,0,0.792a1.315,1.315,0,0,1-2.62,0,17.409,17.409,0,0,0-.16-1.775,6.172,6.172,0,0,0-4.56-5,15.378,15.378,0,0,0-2.16-.405,1.327,1.327,0,0,1-.96-2.135,1.215,1.215,0,0,1,1.03-.483,9.452,9.452,0,0,1,2.95.5,8.961,8.961,0,0,1,6.45,7.694c0,0.027.01,0.056,0.01,0.084,0.01,0.245.02,0.491,0.04,0.735h-0.02Zm-3.63-.183a1.313,1.313,0,0,1-1.74,1.381,1.182,1.182,0,0,1-.87-0.945c-0.05-.229-0.08-0.464-0.11-0.7a2.183,2.183,0,0,0-2.19-2.159,4.408,4.408,0,0,1-.7-0.13,1.3,1.3,0,0,1,.36-2.527,4.887,4.887,0,0,1,5.18,4.432C1120.44,57.9,1120.46,58.118,1120.48,58.334Z" transform="translate(-1099.03 -46)"/>
</svg>
